<?xml version="1.0" standalone="no"?><!DOCTYPE svg PUBLIC "-//W3C//DTD SVG 1.1//EN" "http://www.w3.org/Graphics/SVG/1.1/DTD/svg11.dtd" ><svg version="1.1" xmlns="http://www.w3.org/2000/svg"><defs><font horiz-adv-x="0" id="font"><font-face ascent="750" bbox="-220 -270 1505 1090" cap-height="750" descent="-250" font-family="Apex New Truetype" font-stretch="normal" font-style="normal" font-weight="600" units-per-em="1000" x-height="500" /><missing-glyph d="M247 293V535H403V293ZM325 47Q244 47 175 30.5Q106 14 50 -10V156Q106 179 175 193.5Q244 208 325 208Q406 208 475 193.5Q544 179 600 156V-10Q544 14 475 30.5Q406 47 325 47ZM515 760Q556 760 583 733Q610 706 610 665Q610 625 583 597.5Q556 570 515 570Q475 570 447.5 597.5Q420 625 420 665Q420 706 447.5 733Q475 760 515 760ZM135 760Q175 760 202.5 733Q230 706 230 665Q230 625 202.5 597.5Q175 570 135 570Q94 570 67 597.5Q40 625 40 665Q40 706 67 733Q94 760 135 760Z" horiz-adv-x="649" /><glyph glyph-name=".null" horiz-adv-x="0" /><glyph d="M20 0 228 754H412L620 0H450L415 154H225L190 0ZM256 281H384L320 565Z" glyph-name="A" horiz-adv-x="640" unicode="A" /><glyph d="M923 312H637L660 150H952V0H500L482 152H259L196 0H10L363 750H952V600H597L616 462H923ZM318 292H466L434 571Z" glyph-name="AE" horiz-adv-x="987" unicode="&#198;" /><glyph d="M923 312H637L660 150H952V0H500L482 152H259L196 0H10L363 750H952V600H597L616 462H923ZM318 292H466L434 571ZM415 790 465 910H635L535 790Z" glyph-name="AEacute" horiz-adv-x="987" unicode="&#508;" /><glyph d="M923 312H637L660 150H952V0H500L482 152H259L196 0H10L363 750H952V600H597L616 462H923ZM318 292H466L434 571ZM636 790H324V910H636Z" glyph-name="AEmacron" horiz-adv-x="987" unicode="&#482;" /><glyph d="M20 0 228 754H412L620 0H450L415 154H225L190 0ZM256 281H384L320 565ZM265 790 315 910H485L385 790Z" glyph-name="Aacute" horiz-adv-x="640" unicode="&#193;" /><glyph d="M20 0 228 754H412L620 0H450L415 154H225L190 0ZM320 870Q358 870 369 878.5Q380 887 380 910H508Q508 875 498.5 849Q489 823 466.5 806.5Q444 790 408 782Q372 774 320 774Q267 774 231.5 782Q196 790 173.5 806.5Q151 823 141.5 849Q132 875 132 910H260Q260 887 271 878.5Q282 870 320 870ZM256 281H384L320 565Z" glyph-name="Abreve" horiz-adv-x="640" unicode="&#258;" /><glyph d="M20 0 228 754H412L620 0H450L415 154H225L190 0ZM518 910 395 790H245L122 910H255L320 865L385 910ZM256 281H384L320 565Z" glyph-name="Acaron" horiz-adv-x="640" unicode="&#461;" /><glyph d="M20 0 228 754H412L620 0H450L415 154H225L190 0ZM122 790 245 910H395L518 790H385L320 835L255 790ZM256 281H384L320 565Z" glyph-name="Acircumflex" horiz-adv-x="640" unicode="&#194;" /><glyph d="M20 0 228 754H412L620 0H450L415 154H225L190 0ZM345 860Q345 900 372 927.5Q399 955 440 955Q480 955 507.5 927.5Q535 900 535 860Q535 819 507.5 792Q480 765 440 765Q399 765 372 792Q345 819 345 860ZM105 860Q105 900 132 927.5Q159 955 200 955Q240 955 267.5 927.5Q295 900 295 860Q295 819 267.5 792Q240 765 200 765Q159 765 132 792Q105 819 105 860ZM256 281H384L320 565Z" glyph-name="Adieresis" horiz-adv-x="640" unicode="&#196;" /><glyph d="M20 0 228 754H412L620 0H450L415 154H225L190 0ZM476 970H164V1090H476ZM105 860Q105 900 132 927.5Q159 955 200 955Q240 955 267.5 927.5Q295 900 295 860Q295 819 267.5 792Q240 765 200 765Q159 765 132 792Q105 819 105 860ZM345 860Q345 900 372 927.5Q399 955 440 955Q480 955 507.5 927.5Q535 900 535 860Q535 819 507.5 792Q480 765 440 765Q399 765 372 792Q345 819 345 860ZM256 281H384L320 565Z" glyph-name="Adieresismacron" horiz-adv-x="640" unicode="&#478;" /><glyph d="M20 0 228 754H412L620 0H450L415 154H225L190 0ZM225 860Q225 900 252 927.5Q279 955 320 955Q360 955 387.5 927.5Q415 900 415 860Q415 819 387.5 792Q360 765 320 765Q279 765 252 792Q225 819 225 860ZM256 281H384L320 565Z" glyph-name="Adotabove" horiz-adv-x="640" unicode="&#57345;" /><glyph d="M20 0 228 754H412L620 0H450L415 154H225L190 0ZM256 281H384L320 565ZM366 790 266 910H436L486 790ZM176 790 76 910H246L296 790Z" glyph-name="Adoublegrave" horiz-adv-x="640" unicode="&#57344;" /><glyph d="M20 0 228 754H412L620 0H450L415 154H225L190 0ZM256 281H384L320 565ZM255 790 155 910H325L375 790Z" glyph-name="Agrave" horiz-adv-x="640" unicode="&#192;" /><glyph d="M20 0 228 754H412L620 0H450L415 154H225L190 0ZM320 830Q282 830 271 821.5Q260 813 260 790H132Q132 825 141.5 851Q151 877 173.5 893.5Q196 910 231.5 918Q267 926 320 926Q372 926 408 918Q444 910 466.5 893.5Q489 877 498.5 851Q508 825 508 790H380Q380 813 369 821.5Q358 830 320 830ZM256 281H384L320 565Z" glyph-name="Ainvertedbreve" horiz-adv-x="640" unicode="&#514;" /><glyph d="M20 0 228 754H412L620 0H450L415 154H225L190 0ZM476 790H164V910H476ZM256 281H384L320 565Z" glyph-name="Amacron" horiz-adv-x="640" unicode="&#256;" /><glyph d="M190 0H20L228 754H412L620 0H450L320 565Z" glyph-name="Anocross" horiz-adv-x="640" unicode="&#57346;" /><glyph d="M20 0 228 754H412L620 0Q593 -6 572 -17.5Q551 -29 536.5 -43Q522 -57 514.5 -72.5Q507 -88 507 -102Q507 -128 523.5 -140.5Q540 -153 566 -153Q591 -153 608.5 -148.5Q626 -144 634 -141V-231Q623 -236 601 -243Q579 -250 534 -250Q506 -250 479.5 -243Q453 -236 432.5 -221Q412 -206 399.5 -182.5Q387 -159 387 -127Q387 -88 405.5 -59.5Q424 -31 453 -11L415 154H225L190 0ZM256 281H384L320 565Z" glyph-name="Aogonek" horiz-adv-x="640" unicode="&#260;" /><glyph d="M20 0 228 754H412L620 0H450L415 154H225L190 0ZM426 860Q426 806 397 785.5Q368 765 320 765Q272 765 243 785.5Q214 806 214 860Q214 914 243 934.5Q272 955 320 955Q368 955 397 934.5Q426 914 426 860ZM256 281H384L320 565ZM298 860Q298 849 320 849Q342 849 342 860Q342 871 320 871Q298 871 298 860Z" glyph-name="Aring" horiz-adv-x="640" unicode="&#197;" /><glyph d="M20 0 228 754H412L620 0H450L415 154H225L190 0ZM426 860Q426 806 397 785.5Q368 765 320 765Q272 765 243 785.5Q214 806 214 860Q214 871 215 880Q216 889 219 897L257 1030H427L365 950Q393 942 409.5 921Q426 900 426 860ZM256 281H384L320 565ZM298 860Q298 849 320 849Q342 849 342 860Q342 871 320 871Q298 871 298 860Z" glyph-name="Aringacute" horiz-adv-x="640" unicode="&#506;" /><glyph d="M20 0 228 754H412L620 0H450L415 154H225L190 0ZM105 790Q105 935 235 935Q267 935 290.5 925.5Q314 916 333 904.5Q352 893 369 883.5Q386 874 404 874Q427 874 437.5 884.5Q448 895 448 910H535Q535 765 405 765Q373 765 349.5 774.5Q326 784 307 795.5Q288 807 271 816.5Q254 826 236 826Q213 826 202.5 815.5Q192 805 192 790ZM256 281H384L320 565Z" glyph-name="Atilde" horiz-adv-x="640" unicode="&#195;" /><glyph d="M46 750H315Q386 750 433 734Q480 718 507.5 689.5Q535 661 546 622.5Q557 584 557 538Q557 490 535 453Q513 416 476 396Q518 382 548.5 340.5Q579 299 579 229Q579 180 566.5 138Q554 96 524 65.5Q494 35 444 17.5Q394 0 319 0H46ZM206 136H317Q367 136 388 162.5Q409 189 409 230Q409 272 388 297.5Q367 323 317 323H206ZM387 533Q387 546 384 560.5Q381 575 373 587Q365 599 349.5 606.5Q334 614 309 614H206V453H309Q334 453 349 460.5Q364 468 372.5 480Q381 492 384 506Q387 520 387 533Z" glyph-name="B" horiz-adv-x="601" unicode="B" /><glyph d="M41 375Q41 481 61 555Q81 629 121 675.5Q161 722 222 743Q283 764 365 764Q398 764 422 761.5Q446 759 464.5 754.5Q483 750 496.5 745Q510 740 521 736V585Q487 599 456.5 606.5Q426 614 381 614Q335 614 301.5 603.5Q268 593 246 566Q224 539 213.5 492.5Q203 446 203 375Q203 304 213.5 257.5Q224 211 246 184Q268 157 301.5 146.5Q335 136 381 136Q426 136 456.5 143.5Q487 151 521 165V14Q510 9 496.5 4.5Q483 0 464.5 -4.5Q446 -9 422 -11.5Q398 -14 365 -14Q283 -14 222 7Q161 28 121 74.5Q81 121 61 195Q41 269 41 375Z" glyph-name="C" horiz-adv-x="562" unicode="C" /><glyph d="M265 790 315 910H485L385 790ZM41 375Q41 481 61 555Q81 629 121 675.5Q161 722 222 743Q283 764 365 764Q398 764 422 761.5Q446 759 464.5 754.5Q483 750 496.5 745Q510 740 521 736V585Q487 599 456.5 606.5Q426 614 381 614Q335 614 301.5 603.5Q268 593 246 566Q224 539 213.5 492.5Q203 446 203 375Q203 304 213.5 257.5Q224 211 246 184Q268 157 301.5 146.5Q335 136 381 136Q426 136 456.5 143.5Q487 151 521 165V14Q510 9 496.5 4.5Q483 0 464.5 -4.5Q446 -9 422 -11.5Q398 -14 365 -14Q283 -14 222 7Q161 28 121 74.5Q81 121 61 195Q41 269 41 375Z" glyph-name="Cacute" horiz-adv-x="560" unicode="&#262;" /><glyph d="M528 910 405 790H255L132 910H265L330 865L395 910ZM41 375Q41 481 61 555Q81 629 121 675.5Q161 722 222 743Q283 764 365 764Q398 764 422 761.5Q446 759 464.5 754.5Q483 750 496.5 745Q510 740 521 736V585Q487 599 456.5 606.5Q426 614 381 614Q335 614 301.5 603.5Q268 593 246 566Q224 539 213.5 492.5Q203 446 203 375Q203 304 213.5 257.5Q224 211 246 184Q268 157 301.5 146.5Q335 136 381 136Q426 136 456.5 143.5Q487 151 521 165V14Q510 9 496.5 4.5Q483 0 464.5 -4.5Q446 -9 422 -11.5Q398 -14 365 -14Q283 -14 222 7Q161 28 121 74.5Q81 121 61 195Q41 269 41 375Z" glyph-name="Ccaron" horiz-adv-x="560" unicode="&#268;" /><glyph d="M459 -145Q459 -174 449 -193.5Q439 -213 421.5 -226Q404 -239 380.5 -244.5Q357 -250 331 -250Q299 -250 271.5 -244Q244 -238 231 -231V-140Q245 -145 268.5 -150Q292 -155 318 -155Q335 -155 345.5 -150Q356 -145 356 -132Q356 -127 353.5 -121.5Q351 -116 343.5 -111Q336 -106 322 -101.5Q308 -97 285 -94L294 -9Q230 -1 182.5 25Q135 51 103.5 97.5Q72 144 56.5 212.5Q41 281 41 375Q41 481 61 555Q81 629 121 675.5Q161 722 222 743Q283 764 365 764Q398 764 422 761.5Q446 759 464.5 754.5Q483 750 496.5 745Q510 740 521 736V585Q487 599 456.5 606.5Q426 614 381 614Q335 614 301.5 603.5Q268 593 246 566Q224 539 213.5 492.5Q203 446 203 375Q203 304 213.5 257.5Q224 211 246 184Q268 157 301.5 146.5Q335 136 381 136Q426 136 456.5 143.5Q487 151 521 165V14Q510 9 496.5 4.5Q483 0 464.5 -4.5Q446 -9 422 -11.5Q398 -14 366 -14L369 -57Q415 -68 437 -89Q459 -110 459 -145Z" glyph-name="Ccedilla" horiz-adv-x="560" unicode="&#199;" /><glyph d="M132 790 255 910H405L528 790H395L330 835L265 790ZM41 375Q41 481 61 555Q81 629 121 675.5Q161 722 222 743Q283 764 365 764Q398 764 422 761.5Q446 759 464.5 754.5Q483 750 496.5 745Q510 740 521 736V585Q487 599 456.5 606.5Q426 614 381 614Q335 614 301.5 603.5Q268 593 246 566Q224 539 213.5 492.5Q203 446 203 375Q203 304 213.5 257.5Q224 211 246 184Q268 157 301.5 146.5Q335 136 381 136Q426 136 456.5 143.5Q487 151 521 165V14Q510 9 496.5 4.5Q483 0 464.5 -4.5Q446 -9 422 -11.5Q398 -14 365 -14Q283 -14 222 7Q161 28 121 74.5Q81 121 61 195Q41 269 41 375Z" glyph-name="Ccircumflex" horiz-adv-x="560" unicode="&#264;" /><glyph d="M235 860Q235 900 262 927.5Q289 955 330 955Q370 955 397.5 927.5Q425 900 425 860Q425 819 397.5 792Q370 765 330 765Q289 765 262 792Q235 819 235 860ZM41 375Q41 481 61 555Q81 629 121 675.5Q161 722 222 743Q283 764 365 764Q398 764 422 761.5Q446 759 464.5 754.5Q483 750 496.5 745Q510 740 521 736V585Q487 599 456.5 606.5Q426 614 381 614Q335 614 301.5 603.5Q268 593 246 566Q224 539 213.5 492.5Q203 446 203 375Q203 304 213.5 257.5Q224 211 246 184Q268 157 301.5 146.5Q335 136 381 136Q426 136 456.5 143.5Q487 151 521 165V14Q510 9 496.5 4.5Q483 0 464.5 -4.5Q446 -9 422 -11.5Q398 -14 365 -14Q283 -14 222 7Q161 28 121 74.5Q81 121 61 195Q41 269 41 375Z" glyph-name="Cdotaccent" horiz-adv-x="560" unicode="&#266;" /><glyph d="M46 0V750H289Q384 750 446 721.5Q508 693 544 642.5Q580 592 594.5 523.5Q609 455 609 375Q609 295 594.5 226.5Q580 158 544 107.5Q508 57 446 28.5Q384 0 289 0ZM206 146H292Q336 146 365 161.5Q394 177 411.5 206Q429 235 436 278Q443 321 443 375Q443 429 436 471.5Q429 514 411.5 543.5Q394 573 365 588.5Q336 604 292 604H206Z" glyph-name="D" horiz-adv-x="645" unicode="D" /><glyph d="M493 910 370 790H220L97 910H230L295 865L360 910ZM46 0V750H289Q384 750 446 721.5Q508 693 544 642.5Q580 592 594.5 523.5Q609 455 609 375Q609 295 594.5 226.5Q580 158 544 107.5Q508 57 446 28.5Q384 0 289 0ZM206 146H292Q336 146 365 161.5Q394 177 411.5 206Q429 235 436 278Q443 321 443 375Q443 429 436 471.5Q429 514 411.5 543.5Q394 573 365 588.5Q336 604 292 604H206Z" glyph-name="Dcaron" horiz-adv-x="645" unicode="&#270;" /><glyph d="M46 0V750H289Q384 750 446 721.5Q508 693 544 642.5Q580 592 594.5 523.5Q609 455 609 375Q609 295 594.5 226.5Q580 158 544 107.5Q508 57 446 28.5Q384 0 289 0ZM206 146H292Q336 146 365 161.5Q394 177 411.5 206Q429 235 436 278Q443 321 443 375Q443 429 436 471.5Q429 514 411.5 543.5Q394 573 365 588.5Q336 604 292 604H206ZM256 -38Q308 -42 341 -52.5Q374 -63 392.5 -77.5Q411 -92 417.5 -109.5Q424 -127 424 -145Q424 -174 414 -193.5Q404 -213 386.5 -226Q369 -239 345.5 -244.5Q322 -250 296 -250Q264 -250 236.5 -244Q209 -238 196 -231V-140Q210 -145 233.5 -150Q257 -155 283 -155Q300 -155 310.5 -150Q321 -145 321 -132Q321 -127 318.5 -121.5Q316 -116 308.5 -111Q301 -106 287 -101.5Q273 -97 250 -94Z" glyph-name="Dcedilla" horiz-adv-x="645" unicode="&#7696;" /><glyph d="M109 0V317H25V437H109V750H352Q447 750 509 721.5Q571 693 607 642.5Q643 592 657.5 523.5Q672 455 672 375Q672 295 657.5 226.5Q643 158 607 107.5Q571 57 509 28.5Q447 0 352 0ZM269 437H399V317H269V146H355Q399 146 428 161.5Q457 177 474.5 206Q492 235 499 278Q506 321 506 375Q506 429 499 471.5Q492 514 474.5 543.5Q457 573 428 588.5Q399 604 355 604H269Z" glyph-name="Dcroat" horiz-adv-x="708" unicode="&#272;" /><glyph d="M200 -150Q200 -110 227 -82.5Q254 -55 295 -55Q335 -55 362.5 -82.5Q390 -110 390 -150Q390 -191 362.5 -218Q335 -245 295 -245Q254 -245 227 -218Q200 -191 200 -150ZM46 0V750H289Q384 750 446 721.5Q508 693 544 642.5Q580 592 594.5 523.5Q609 455 609 375Q609 295 594.5 226.5Q580 158 544 107.5Q508 57 446 28.5Q384 0 289 0ZM206 146H292Q336 146 365 161.5Q394 177 411.5 206Q429 235 436 278Q443 321 443 375Q443 429 436 471.5Q429 514 411.5 543.5Q394 573 365 588.5Q336 604 292 604H206Z" glyph-name="Ddotbelow" horiz-adv-x="645" unicode="&#7692;" /><glyph d="M10 109 334 764H486L810 109V0H10ZM614 150 410 586 206 150Z" glyph-name="Delta" horiz-adv-x="820" unicode="&#8710;" /><glyph d="M495 316H206V146H524V0H46V750H524V604H206V459H495Z" glyph-name="E" horiz-adv-x="560" unicode="E" /><glyph d="M230 790 280 910H450L350 790ZM495 316H206V146H524V0H46V750H524V604H206V459H495Z" glyph-name="Eacute" horiz-adv-x="560" unicode="&#201;" /><glyph d="M200 -150Q200 -110 227 -82.5Q254 -55 295 -55Q335 -55 362.5 -82.5Q390 -110 390 -150Q390 -191 362.5 -218Q335 -245 295 -245Q254 -245 227 -218Q200 -191 200 -150ZM230 790 280 910H450L350 790ZM495 316H206V146H524V0H46V750H524V604H206V459H495Z" glyph-name="Eacutedotbelow" horiz-adv-x="560" unicode="&#57348;" /><glyph d="M295 870Q333 870 344 878.5Q355 887 355 910H483Q483 875 473.5 849Q464 823 441.5 806.5Q419 790 383 782Q347 774 295 774Q242 774 206.5 782Q171 790 148.5 806.5Q126 823 116.5 849Q107 875 107 910H235Q235 887 246 878.5Q257 870 295 870ZM495 316H206V146H524V0H46V750H524V604H206V459H495Z" glyph-name="Ebreve" horiz-adv-x="560" unicode="&#276;" /><glyph d="M493 910 370 790H220L97 910H230L295 865L360 910ZM495 316H206V146H524V0H46V750H524V604H206V459H495Z" glyph-name="Ecaron" horiz-adv-x="560" unicode="&#282;" /><glyph d="M97 790 220 910H370L493 790H360L295 835L230 790ZM495 316H206V146H524V0H46V750H524V604H206V459H495Z" glyph-name="Ecircumflex" horiz-adv-x="560" unicode="&#202;" /><glyph d="M80 860Q80 900 107 927.5Q134 955 175 955Q215 955 242.5 927.5Q270 900 270 860Q270 819 242.5 792Q215 765 175 765Q134 765 107 792Q80 819 80 860ZM320 860Q320 900 347 927.5Q374 955 415 955Q455 955 482.5 927.5Q510 900 510 860Q510 819 482.5 792Q455 765 415 765Q374 765 347 792Q320 819 320 860ZM495 316H206V146H524V0H46V750H524V604H206V459H495Z" glyph-name="Edieresis" horiz-adv-x="560" unicode="&#203;" /><glyph d="M200 860Q200 900 227 927.5Q254 955 295 955Q335 955 362.5 927.5Q390 900 390 860Q390 819 362.5 792Q335 765 295 765Q254 765 227 792Q200 819 200 860ZM495 316H206V146H524V0H46V750H524V604H206V459H495Z" glyph-name="Edotaccent" horiz-adv-x="560" unicode="&#278;" /><glyph d="M341 790 241 910H411L461 790ZM151 790 51 910H221L271 790ZM495 316H206V146H524V0H46V750H524V604H206V459H495Z" glyph-name="Edoublegrave" horiz-adv-x="560" unicode="&#57347;" /><glyph d="M241 790 141 910H311L361 790ZM495 316H206V146H524V0H46V750H524V604H206V459H495Z" glyph-name="Egrave" horiz-adv-x="560" unicode="&#200;" /><glyph d="M200 -150Q200 -110 227 -82.5Q254 -55 295 -55Q335 -55 362.5 -82.5Q390 -110 390 -150Q390 -191 362.5 -218Q335 -245 295 -245Q254 -245 227 -218Q200 -191 200 -150ZM241 790 141 910H311L361 790ZM495 316H206V146H524V0H46V750H524V604H206V459H495Z" glyph-name="Egravedotbelow" horiz-adv-x="560" unicode="&#57349;" /><glyph d="M295 830Q257 830 246 821.5Q235 813 235 790H107Q107 825 116.5 851Q126 877 148.5 893.5Q171 910 206.5 918Q242 926 295 926Q347 926 383 918Q419 910 441.5 893.5Q464 877 473.5 851Q483 825 483 790H355Q355 813 344 821.5Q333 830 295 830ZM495 316H206V146H524V0H46V750H524V604H206V459H495Z" glyph-name="Einvertedbreve" horiz-adv-x="560" unicode="&#518;" /><glyph d="M451 790H139V910H451ZM495 316H206V146H524V0H46V750H524V604H206V459H495Z" glyph-name="Emacron" horiz-adv-x="560" unicode="&#274;" /><glyph d="M335 -130Q367 -130 387 -123.5Q407 -117 418.5 -105.5Q430 -94 434 -78.5Q438 -63 438 -46V7L200 448L204 0H46V750H204L446 302L442 750H600V-62Q600 -116 576.5 -154.5Q553 -193 515.5 -217Q478 -241 430.5 -252.5Q383 -264 335 -264Z" glyph-name="Eng" horiz-adv-x="645" unicode="&#330;" /><glyph d="M495 316H206V146H524V3L525 0Q498 -6 477 -17.5Q456 -29 441.5 -43Q427 -57 419.5 -72.5Q412 -88 412 -102Q412 -128 428.5 -140.5Q445 -153 471 -153Q496 -153 513.5 -148.5Q531 -144 539 -141V-231Q528 -236 506 -243Q484 -250 439 -250Q411 -250 384.5 -243Q358 -236 337.5 -221Q317 -206 304.5 -182.5Q292 -159 292 -127Q292 -82 316.5 -51Q341 -20 376 0H46V750H524V604H206V459H495Z" glyph-name="Eogonek" horiz-adv-x="560" unicode="&#280;" /><glyph d="M109 0V317H25V437H109V750H352Q447 750 509 721.5Q571 693 607 642.5Q643 592 657.5 523.5Q672 455 672 375Q672 295 657.5 226.5Q643 158 607 107.5Q571 57 509 28.5Q447 0 352 0ZM269 437H399V317H269V146H355Q399 146 428 161.5Q457 177 474.5 206Q492 235 499 278Q506 321 506 375Q506 429 499 471.5Q492 514 474.5 543.5Q457 573 428 588.5Q399 604 355 604H269Z" glyph-name="Eth" horiz-adv-x="708" unicode="&#208;" /><glyph d="M21 327V427H99Q112 486 139.5 526.5Q167 567 207 592Q247 617 299.5 628Q352 639 415 639Q481 639 520 630.5Q559 622 582 613V471Q552 482 512 488Q472 494 427 494Q363 494 323.5 480.5Q284 467 265 427H510L475 327H246V299H466L431 199H264Q284 158 323.5 144.5Q363 131 427 131Q472 131 512 137Q552 143 582 154V12Q559 3 520 -5.5Q481 -14 415 -14Q352 -14 299.5 -3Q247 8 207 33.5Q167 59 139.5 99.5Q112 140 99 199H21V299H88V327Z" glyph-name="Euro" horiz-adv-x="618" unicode="&#8364;" /><glyph d="M21 394V514H101Q115 581 144 628.5Q173 676 214.5 706Q256 736 309 750Q362 764 425 764Q491 764 530 755.5Q569 747 592 738V596Q531 619 442 619Q376 619 331.5 596.5Q287 574 265 514H517L475 394H246V356H462L420 236H265Q287 176 331.5 153.5Q376 131 442 131Q531 131 592 154V12Q569 3 530 -5.5Q491 -14 425 -14Q362 -14 309 -0.5Q256 13 214.5 43Q173 73 144 120.5Q115 168 101 236H21V356H88V394Z" glyph-name="Euro.LP" horiz-adv-x="628" unicode="&#57749;" /><glyph d="M21 310H83Q97 414 158 464Q219 514 327 514Q379 514 421.5 505.5Q464 497 491 486V344Q470 352 436.5 361Q403 370 361 370Q313 370 285 357Q257 344 246 310H442L400 190H246Q257 155 285 142.5Q313 130 361 130Q403 130 436.5 139Q470 148 491 156V14Q464 3 421.5 -5.5Q379 -14 327 -14Q219 -14 158 36Q97 86 83 190H21Z" glyph-name="Euro.OP" horiz-adv-x="527" unicode="&#57789;" /><glyph d="M453 69Q453 115 442 149Q431 183 405.5 205.5Q380 228 337 238.5Q294 249 230 249L140 247V347L341 596L30 593V750H565V641L357 394Q416 384 463.5 359.5Q511 335 545 294.5Q579 254 597 198Q615 142 615 69Q615 -18 589.5 -80.5Q564 -143 518 -184Q472 -225 407.5 -244.5Q343 -264 265 -264Q229 -264 194.5 -261Q160 -258 130 -252.5Q100 -247 76 -240.5Q52 -234 36 -226V-75Q50 -81 70.5 -87.5Q91 -94 116.5 -99.5Q142 -105 171 -108.5Q200 -112 230 -112Q294 -112 337 -101Q380 -90 405.5 -68Q431 -46 442 -12Q453 22 453 69Z" glyph-name="Ezh" horiz-adv-x="645" unicode="&#439;" /><glyph d="M453 69Q453 115 442 149Q431 183 405.5 205.5Q380 228 337 238.5Q294 249 230 249L140 247V347L341 596L30 593V750H565V641L357 394Q416 384 463.5 359.5Q511 335 545 294.5Q579 254 597 198Q615 142 615 69Q615 -18 589.5 -80.5Q564 -143 518 -184Q472 -225 407.5 -244.5Q343 -264 265 -264Q229 -264 194.5 -261Q160 -258 130 -252.5Q100 -247 76 -240.5Q52 -234 36 -226V-75Q50 -81 70.5 -87.5Q91 -94 116.5 -99.5Q142 -105 171 -108.5Q200 -112 230 -112Q294 -112 337 -101Q380 -90 405.5 -68Q431 -46 442 -12Q453 22 453 69ZM493 910 370 790H220L97 910H230L295 865L360 910Z" glyph-name="Ezhcaron" horiz-adv-x="645" unicode="&#494;" /><glyph d="M489 306H206V0H46V750H519V604H206V449H489Z" glyph-name="F" horiz-adv-x="536" unicode="F" /><glyph d="M358 -14Q191 -14 116 82.5Q41 179 41 375Q41 571 116.5 667.5Q192 764 363 764Q440 764 495 754Q550 744 584 729V573Q537 593 488.5 603.5Q440 614 393 614Q339 614 303 601.5Q267 589 244.5 560.5Q222 532 212.5 486.5Q203 441 203 375Q203 305 213 259Q223 213 245.5 185.5Q268 158 304.5 147Q341 136 393 136Q404 136 417.5 136.5Q431 137 439 139V291H333V434H599V37Q565 16 502 1Q439 -14 358 -14Z" glyph-name="G" horiz-adv-x="641" unicode="G" /><glyph d="M285 790 335 910H505L405 790ZM358 -14Q191 -14 116 82.5Q41 179 41 375Q41 571 116.5 667.5Q192 764 363 764Q440 764 495 754Q550 744 584 729V573Q537 593 488.5 603.5Q440 614 393 614Q339 614 303 601.5Q267 589 244.5 560.5Q222 532 212.5 486.5Q203 441 203 375Q203 305 213 259Q223 213 245.5 185.5Q268 158 304.5 147Q341 136 393 136Q404 136 417.5 136.5Q431 137 439 139V291H333V434H599V37Q565 16 502 1Q439 -14 358 -14Z" glyph-name="Gacute" horiz-adv-x="640" unicode="&#500;" /><glyph d="M350 870Q388 870 399 878.5Q410 887 410 910H538Q538 875 528.5 849Q519 823 496.5 806.5Q474 790 438 782Q402 774 350 774Q297 774 261.5 782Q226 790 203.5 806.5Q181 823 171.5 849Q162 875 162 910H290Q290 887 301 878.5Q312 870 350 870ZM358 -14Q191 -14 116 82.5Q41 179 41 375Q41 571 116.5 667.5Q192 764 363 764Q440 764 495 754Q550 744 584 729V573Q537 593 488.5 603.5Q440 614 393 614Q339 614 303 601.5Q267 589 244.5 560.5Q222 532 212.5 486.5Q203 441 203 375Q203 305 213 259Q223 213 245.5 185.5Q268 158 304.5 147Q341 136 393 136Q404 136 417.5 136.5Q431 137 439 139V291H333V434H599V37Q565 16 502 1Q439 -14 358 -14Z" glyph-name="Gbreve" horiz-adv-x="640" unicode="&#286;" /><glyph d="M548 910 425 790H275L152 910H285L350 865L415 910ZM358 -14Q191 -14 116 82.5Q41 179 41 375Q41 571 116.5 667.5Q192 764 363 764Q440 764 495 754Q550 744 584 729V573Q537 593 488.5 603.5Q440 614 393 614Q339 614 303 601.5Q267 589 244.5 560.5Q222 532 212.5 486.5Q203 441 203 375Q203 305 213 259Q223 213 245.5 185.5Q268 158 304.5 147Q341 136 393 136Q404 136 417.5 136.5Q431 137 439 139V291H333V434H599V37Q565 16 502 1Q439 -14 358 -14Z" glyph-name="Gcaron" horiz-adv-x="640" unicode="&#486;" /><glyph d="M152 790 275 910H425L548 790H415L350 835L285 790ZM358 -14Q191 -14 116 82.5Q41 179 41 375Q41 571 116.5 667.5Q192 764 363 764Q440 764 495 754Q550 744 584 729V573Q537 593 488.5 603.5Q440 614 393 614Q339 614 303 601.5Q267 589 244.5 560.5Q222 532 212.5 486.5Q203 441 203 375Q203 305 213 259Q223 213 245.5 185.5Q268 158 304.5 147Q341 136 393 136Q404 136 417.5 136.5Q431 137 439 139V291H333V434H599V37Q565 16 502 1Q439 -14 358 -14Z" glyph-name="Gcircumflex" horiz-adv-x="640" unicode="&#284;" /><glyph d="M259 -250 273 -51H451L390 -250ZM358 -14Q191 -14 116 82.5Q41 179 41 375Q41 571 116.5 667.5Q192 764 363 764Q440 764 495 754Q550 744 584 729V573Q537 593 488.5 603.5Q440 614 393 614Q339 614 303 601.5Q267 589 244.5 560.5Q222 532 212.5 486.5Q203 441 203 375Q203 305 213 259Q223 213 245.5 185.5Q268 158 304.5 147Q341 136 393 136Q404 136 417.5 136.5Q431 137 439 139V291H333V434H599V37Q565 16 502 1Q439 -14 358 -14Z" glyph-name="Gcommaaccent" horiz-adv-x="640" unicode="&#290;" /><glyph d="M475 910 425 790H255L355 910ZM358 -14Q191 -14 116 82.5Q41 179 41 375Q41 571 116.5 667.5Q192 764 363 764Q440 764 495 754Q550 744 584 729V573Q537 593 488.5 603.5Q440 614 393 614Q339 614 303 601.5Q267 589 244.5 560.5Q222 532 212.5 486.5Q203 441 203 375Q203 305 213 259Q223 213 245.5 185.5Q268 158 304.5 147Q341 136 393 136Q404 136 417.5 136.5Q431 137 439 139V291H333V434H599V37Q565 16 502 1Q439 -14 358 -14Z" glyph-name="Gcommaturnedabove" horiz-adv-x="640" unicode="&#57351;" /><glyph d="M255 860Q255 900 282 927.5Q309 955 350 955Q390 955 417.5 927.5Q445 900 445 860Q445 819 417.5 792Q390 765 350 765Q309 765 282 792Q255 819 255 860ZM358 -14Q191 -14 116 82.5Q41 179 41 375Q41 571 116.5 667.5Q192 764 363 764Q440 764 495 754Q550 744 584 729V573Q537 593 488.5 603.5Q440 614 393 614Q339 614 303 601.5Q267 589 244.5 560.5Q222 532 212.5 486.5Q203 441 203 375Q203 305 213 259Q223 213 245.5 185.5Q268 158 304.5 147Q341 136 393 136Q404 136 417.5 136.5Q431 137 439 139V291H333V434H599V37Q565 16 502 1Q439 -14 358 -14Z" glyph-name="Gdotaccent" horiz-adv-x="640" unicode="&#288;" /><glyph d="M358 -14Q191 -14 116 82.5Q41 179 41 375Q41 571 116.5 667.5Q192 764 363 764Q440 764 495 754Q550 744 584 729V573Q537 593 488.5 603.5Q440 614 393 614Q339 614 303 601.5Q267 589 244.5 560.5Q222 532 212.5 486.5Q203 441 203 375Q203 305 213 259Q223 213 245.5 185.5Q268 158 304.5 147Q341 136 393 136Q404 136 417.5 136.5Q431 137 439 139V155H333V275H439V291H333V434H599V275H674V155H599V37Q565 16 502 1Q439 -14 358 -14Z" glyph-name="Gstroke" horiz-adv-x="699" unicode="&#484;" /><glyph d="M135 790Q135 935 265 935Q297 935 320.5 925.5Q344 916 363 904.5Q382 893 399 883.5Q416 874 434 874Q457 874 467.5 884.5Q478 895 478 910H565Q565 765 435 765Q403 765 379.5 774.5Q356 784 337 795.5Q318 807 301 816.5Q284 826 266 826Q243 826 232.5 815.5Q222 805 222 790ZM358 -14Q191 -14 116 82.5Q41 179 41 375Q41 571 116.5 667.5Q192 764 363 764Q440 764 495 754Q550 744 584 729V573Q537 593 488.5 603.5Q440 614 393 614Q339 614 303 601.5Q267 589 244.5 560.5Q222 532 212.5 486.5Q203 441 203 375Q203 305 213 259Q223 213 245.5 185.5Q268 158 304.5 147Q341 136 393 136Q404 136 417.5 136.5Q431 137 439 139V291H333V434H599V37Q565 16 502 1Q439 -14 358 -14Z" glyph-name="Gtilde" horiz-adv-x="640" unicode="&#57350;" /><glyph d="M434 0V314H206V0H46V750H206V460H434V750H594V0Z" glyph-name="H" horiz-adv-x="640" unicode="H" /><glyph d="M434 0V314H206V0H46V750H206V665H434V750H594V0ZM434 460V545H206V460Z" glyph-name="Hbar" horiz-adv-x="640" unicode="&#294;" /><glyph d="M518 910 395 790H245L122 910H255L320 865L385 910ZM434 0V314H206V0H46V750H206V460H434V750H594V0Z" glyph-name="Hcaron" horiz-adv-x="640" unicode="&#57352;" /><glyph d="M122 790 245 910H395L518 790H385L320 835L255 790ZM434 0V314H206V0H46V750H206V460H434V750H594V0Z" glyph-name="Hcircumflex" horiz-adv-x="640" unicode="&#292;" /><glyph d="M225 -150Q225 -110 252 -82.5Q279 -55 320 -55Q360 -55 387.5 -82.5Q415 -110 415 -150Q415 -191 387.5 -218Q360 -245 320 -245Q279 -245 252 -218Q225 -191 225 -150ZM434 0V314H206V0H46V750H206V460H434V750H594V0Z" glyph-name="Hdotbelow" horiz-adv-x="640" unicode="&#7716;" /><glyph d="M476 -210H164V-90H476ZM434 0V314H206V0H46V750H206V460H434V750H594V0Z" glyph-name="Hmacronbelow" horiz-adv-x="640" unicode="&#57353;" /><glyph d="M57 0V750H217V0Z" glyph-name="I" horiz-adv-x="274" unicode="I" /><glyph d="M57 0V750H217V0ZM268 157Q280 152 304 146Q328 140 354 140Q386 140 406 156.5Q426 173 426 208V750H588V172Q588 78 535 32Q482 -14 367 -14Q358 -14 345.5 -13Q333 -12 319.5 -10Q306 -8 292.5 -4.5Q279 -1 268 4Z" glyph-name="IJ" horiz-adv-x="629" unicode="&#306;" /><glyph d="M75 790 125 910H295L195 790ZM57 0V750H217V0Z" glyph-name="Iacute" horiz-adv-x="274" unicode="&#205;" /><glyph d="M137 870Q175 870 186 878.5Q197 887 197 910H325Q325 875 315.5 849Q306 823 283.5 806.5Q261 790 225 782Q189 774 137 774Q84 774 48.5 782Q13 790 -9.5 806.5Q-32 823 -41.5 849Q-51 875 -51 910H77Q77 887 88 878.5Q99 870 137 870ZM57 0V750H217V0Z" glyph-name="Ibreve" horiz-adv-x="274" unicode="&#300;" /><glyph d="M335 910 212 790H62L-61 910H72L137 865L202 910ZM57 0V750H217V0Z" glyph-name="Icaron" horiz-adv-x="274" unicode="&#463;" /><glyph d="M-61 790 62 910H212L335 790H202L137 835L72 790ZM57 0V750H217V0Z" glyph-name="Icircumflex" horiz-adv-x="274" unicode="&#206;" /><glyph d="M-68 860Q-68 900 -41 927.5Q-14 955 27 955Q67 955 94.5 927.5Q122 900 122 860Q122 819 94.5 792Q67 765 27 765Q-14 765 -41 792Q-68 819 -68 860ZM152 860Q152 900 179 927.5Q206 955 247 955Q287 955 314.5 927.5Q342 900 342 860Q342 819 314.5 792Q287 765 247 765Q206 765 179 792Q152 819 152 860ZM57 0V750H217V0Z" glyph-name="Idieresis" horiz-adv-x="274" unicode="&#207;" /><glyph d="M42 860Q42 900 69 927.5Q96 955 137 955Q177 955 204.5 927.5Q232 900 232 860Q232 819 204.5 792Q177 765 137 765Q96 765 69 792Q42 819 42 860ZM57 0V750H217V0Z" glyph-name="Idotaccent" horiz-adv-x="274" unicode="&#304;" /><glyph d="M42 -150Q42 -110 69 -82.5Q96 -55 137 -55Q177 -55 204.5 -82.5Q232 -110 232 -150Q232 -191 204.5 -218Q177 -245 137 -245Q96 -245 69 -218Q42 -191 42 -150ZM57 0V750H217V0Z" glyph-name="Idotbelow" horiz-adv-x="274" unicode="&#7882;" /><glyph d="M183 790 83 910H253L303 790ZM-7 790 -107 910H63L113 790ZM57 0V750H217V0Z" glyph-name="Idoublegrave" horiz-adv-x="274" unicode="&#57355;" /><glyph d="M80 790 -20 910H150L200 790ZM57 0V750H217V0Z" glyph-name="Igrave" horiz-adv-x="274" unicode="&#204;" /><glyph d="M137 830Q99 830 88 821.5Q77 813 77 790H-51Q-51 825 -41.5 851Q-32 877 -9.5 893.5Q13 910 48.5 918Q84 926 137 926Q189 926 225 918Q261 910 283.5 893.5Q306 877 315.5 851Q325 825 325 790H197Q197 813 186 821.5Q175 830 137 830ZM57 0V750H217V0Z" glyph-name="Iinvertedbreve" horiz-adv-x="274" unicode="&#522;" /><glyph d="M293 790H-19V910H293ZM57 0V750H217V0Z" glyph-name="Imacron" horiz-adv-x="274" unicode="&#298;" /><glyph d="M217 0Q195 -6 177 -18Q159 -30 146 -45Q133 -60 126 -76.5Q119 -93 119 -107Q119 -129 135.5 -141Q152 -153 178 -153Q203 -153 220.5 -148.5Q238 -144 246 -141V-231Q235 -236 213 -243Q191 -250 146 -250Q118 -250 91.5 -243Q65 -236 44.5 -221Q24 -206 11.5 -182.5Q-1 -159 -1 -127Q-1 -89 15 -61.5Q31 -34 57 -14V750H217V0Z" glyph-name="Iogonek" horiz-adv-x="274" unicode="&#302;" /><glyph d="M-78 790Q-78 935 52 935Q84 935 107.5 925.5Q131 916 150 904.5Q169 893 186 883.5Q203 874 221 874Q244 874 254.5 884.5Q265 895 265 910H352Q352 765 222 765Q190 765 166.5 774.5Q143 784 124 795.5Q105 807 88 816.5Q71 826 53 826Q30 826 19.5 815.5Q9 805 9 790ZM57 0V750H217V0Z" glyph-name="Itilde" horiz-adv-x="274" unicode="&#296;" /><glyph d="M8 157Q20 152 44 146Q68 140 94 140Q126 140 146 156.5Q166 173 166 208V750H328V172Q328 78 275 32Q222 -14 107 -14Q98 -14 85.5 -13Q73 -12 59.5 -10Q46 -8 32.5 -4.5Q19 -1 8 4Z" glyph-name="J" horiz-adv-x="369" unicode="J" /><glyph d="M445 910 322 790H172L49 910H182L247 865L312 910ZM8 157Q20 152 44 146Q68 140 94 140Q126 140 146 156.5Q166 173 166 208V750H328V172Q328 78 275 32Q222 -14 107 -14Q98 -14 85.5 -13Q73 -12 59.5 -10Q46 -8 32.5 -4.5Q19 -1 8 4Z" glyph-name="Jcaron" horiz-adv-x="369" unicode="&#57356;" /><glyph d="M49 790 172 910H322L445 790H312L247 835L182 790ZM8 157Q20 152 44 146Q68 140 94 140Q126 140 146 156.5Q166 173 166 208V750H328V172Q328 78 275 32Q222 -14 107 -14Q98 -14 85.5 -13Q73 -12 59.5 -10Q46 -8 32.5 -4.5Q19 -1 8 4Z" glyph-name="Jcircumflex" horiz-adv-x="369" unicode="&#308;" /><glyph d="M259 295 204 225V0H46V750H204V430L427 750H620L360 422L638 0H439Z" glyph-name="K" horiz-adv-x="645" unicode="K" /><glyph d="M508 910 385 790H235L112 910H245L310 865L375 910ZM259 295 204 225V0H46V750H204V430L427 750H620L360 422L638 0H439Z" glyph-name="Kcaron" horiz-adv-x="645" unicode="&#488;" /><glyph d="M261 -38Q313 -42 346 -52.5Q379 -63 397.5 -77.5Q416 -92 422.5 -109.5Q429 -127 429 -145Q429 -174 419 -193.5Q409 -213 391.5 -226Q374 -239 350.5 -244.5Q327 -250 301 -250Q269 -250 241.5 -244Q214 -238 201 -231V-140Q215 -145 238.5 -150Q262 -155 288 -155Q305 -155 315.5 -150Q326 -145 326 -132Q326 -127 323.5 -121.5Q321 -116 313.5 -111Q306 -106 292 -101.5Q278 -97 255 -94ZM259 295 204 225V0H46V750H204V430L427 750H620L360 422L638 0H439Z" glyph-name="Kcedilla" horiz-adv-x="645" unicode="&#57357;" /><glyph d="M209 -250 223 -51H401L340 -250ZM259 295 204 225V0H46V750H204V430L427 750H620L360 422L638 0H439Z" glyph-name="Kcommaaccent" horiz-adv-x="645" unicode="&#310;" /><glyph d="M204 445Q230 457 248 486Q266 515 291 567Q308 603 330.5 637.5Q353 672 388.5 699.5Q424 727 476 743.5Q528 760 604 760V605Q553 605 521.5 591Q490 577 468.5 552Q447 527 430.5 493Q414 459 394 420L379 393L638 0H439L268 279Q236 260 204 251V0H46V750H204Z" glyph-name="Khook" horiz-adv-x="645" unicode="&#408;" /><glyph d="M206 146H509V0H46V750H206Z" glyph-name="L" horiz-adv-x="520" unicode="L" /><glyph d="M206 146H509V0H46V750H206ZM64 790 114 910H284L184 790Z" glyph-name="Lacute" horiz-adv-x="520" unicode="&#313;" /><glyph d="M206 146H509V0H46V750H206ZM400 750 352 550H286L302 750Z" glyph-name="Lcaron" horiz-adv-x="520" unicode="&#317;" /><glyph d="M206 146H509V0H46V750H206ZM236 -38Q288 -42 321 -52.5Q354 -63 372.5 -77.5Q391 -92 397.5 -109.5Q404 -127 404 -145Q404 -174 394 -193.5Q384 -213 366.5 -226Q349 -239 325.5 -244.5Q302 -250 276 -250Q244 -250 216.5 -244Q189 -238 176 -231V-140Q190 -145 213.5 -150Q237 -155 263 -155Q280 -155 290.5 -150Q301 -145 301 -132Q301 -127 298.5 -121.5Q296 -116 288.5 -111Q281 -106 267 -101.5Q253 -97 230 -94Z" glyph-name="Lcedilla" horiz-adv-x="520" unicode="&#57358;" /><glyph d="M184 -250 198 -51H376L315 -250ZM206 146H509V0H46V750H206Z" glyph-name="Lcommaaccent" horiz-adv-x="520" unicode="&#315;" /><glyph d="M291 387Q291 427 318 454.5Q345 482 386 482Q426 482 453.5 454.5Q481 427 481 387Q481 346 453.5 319Q426 292 386 292Q345 292 318 319Q291 346 291 387ZM206 146H509V0H46V750H206Z" glyph-name="Ldot" horiz-adv-x="520" unicode="&#319;" /><glyph d="M180 -150Q180 -110 207 -82.5Q234 -55 275 -55Q315 -55 342.5 -82.5Q370 -110 370 -150Q370 -191 342.5 -218Q315 -245 275 -245Q234 -245 207 -218Q180 -191 180 -150ZM206 146H509V0H46V750H206Z" glyph-name="Ldotbelow" horiz-adv-x="520" unicode="&#7734;" /><glyph d="M180 -150Q180 -110 207 -82.5Q234 -55 275 -55Q315 -55 342.5 -82.5Q370 -110 370 -150Q370 -191 342.5 -218Q315 -245 275 -245Q234 -245 207 -218Q180 -191 180 -150ZM206 146H509V0H46V750H206ZM282 790H-30V910H282Z" glyph-name="Ldotbelowmacron" horiz-adv-x="520" unicode="&#7736;" /><glyph d="M245 428 417 514V412L245 326V146H548V0H85V247L0 205V307L85 349V750H245Z" glyph-name="Lslash" horiz-adv-x="559" unicode="&#321;" /><glyph d="M477 91H315L199 459L204 0H46V750H247L396 283L545 750H746V0H588L593 459Z" glyph-name="M" horiz-adv-x="792" unicode="M" /><glyph d="M477 91H315L199 459L204 0H46V750H247L396 283L545 750H746V0H588L593 459ZM356 -38Q408 -42 441 -52.5Q474 -63 492.5 -77.5Q511 -92 517.5 -109.5Q524 -127 524 -145Q524 -174 514 -193.5Q504 -213 486.5 -226Q469 -239 445.5 -244.5Q422 -250 396 -250Q364 -250 336.5 -244Q309 -238 296 -231V-140Q310 -145 333.5 -150Q357 -155 383 -155Q400 -155 410.5 -150Q421 -145 421 -132Q421 -127 418.5 -121.5Q416 -116 408.5 -111Q401 -106 387 -101.5Q373 -97 350 -94Z" glyph-name="Mcedilla" horiz-adv-x="792" unicode="&#57360;" /><glyph d="M477 91H315L199 459L204 0H46V750H247L396 283L545 750H746V0H588L593 459ZM300 -150Q300 -110 327 -82.5Q354 -55 395 -55Q435 -55 462.5 -82.5Q490 -110 490 -150Q490 -191 462.5 -218Q435 -245 395 -245Q354 -245 327 -218Q300 -191 300 -150Z" glyph-name="Mdotbelow" horiz-adv-x="792" unicode="&#7746;" /><glyph d="M477 91H315L199 459L204 0H46V750H247L396 283L545 750H746V0H588L593 459ZM551 790H239V910H551Z" glyph-name="Mmacron" horiz-adv-x="792" unicode="&#57359;" /><glyph d="M442 0 200 448 204 0H46V750H204L446 302L442 750H600V0Z" glyph-name="N" horiz-adv-x="646" unicode="N" /><glyph d="M258 790 308 910H478L378 790ZM442 0 200 448 204 0H46V750H204L446 302L442 750H600V0Z" glyph-name="Nacute" horiz-adv-x="646" unicode="&#323;" /><glyph d="M521 910 398 790H248L125 910H258L323 865L388 910ZM442 0 200 448 204 0H46V750H204L446 302L442 750H600V0Z" glyph-name="Ncaron" horiz-adv-x="646" unicode="&#327;" /><glyph d="M442 0 200 448 204 0H46V750H204L446 302L442 750H600V0ZM284 -38Q336 -42 369 -52.5Q402 -63 420.5 -77.5Q439 -92 445.5 -109.5Q452 -127 452 -145Q452 -174 442 -193.5Q432 -213 414.5 -226Q397 -239 373.5 -244.5Q350 -250 324 -250Q292 -250 264.5 -244Q237 -238 224 -231V-140Q238 -145 261.5 -150Q285 -155 311 -155Q328 -155 338.5 -150Q349 -145 349 -132Q349 -127 346.5 -121.5Q344 -116 336.5 -111Q329 -106 315 -101.5Q301 -97 278 -94Z" glyph-name="Ncedilla" horiz-adv-x="646" unicode="&#57364;" /><glyph d="M232 -250 246 -51H424L363 -250ZM442 0 200 448 204 0H46V750H204L446 302L442 750H600V0Z" glyph-name="Ncommaaccent" horiz-adv-x="646" unicode="&#325;" /><glyph d="M700 100V-125H600V0H442L200 448L204 0H46V750H204L446 302L442 750H600V100Z" glyph-name="Ndescender" horiz-adv-x="696" unicode="&#57365;" /><glyph d="M108 860Q108 900 135 927.5Q162 955 203 955Q243 955 270.5 927.5Q298 900 298 860Q298 819 270.5 792Q243 765 203 765Q162 765 135 792Q108 819 108 860ZM348 860Q348 900 375 927.5Q402 955 443 955Q483 955 510.5 927.5Q538 900 538 860Q538 819 510.5 792Q483 765 443 765Q402 765 375 792Q348 819 348 860ZM442 0 200 448 204 0H46V750H204L446 302L442 750H600V0Z" glyph-name="Ndieresis" horiz-adv-x="646" unicode="&#57362;" /><glyph d="M228 860Q228 900 255 927.5Q282 955 323 955Q363 955 390.5 927.5Q418 900 418 860Q418 819 390.5 792Q363 765 323 765Q282 765 255 792Q228 819 228 860ZM442 0 200 448 204 0H46V750H204L446 302L442 750H600V0Z" glyph-name="Ndotaccent" horiz-adv-x="646" unicode="&#7748;" /><glyph d="M228 -150Q228 -110 255 -82.5Q282 -55 323 -55Q363 -55 390.5 -82.5Q418 -110 418 -150Q418 -191 390.5 -218Q363 -245 323 -245Q282 -245 255 -218Q228 -191 228 -150ZM442 0 200 448 204 0H46V750H204L446 302L442 750H600V0Z" glyph-name="Ndotbelow" horiz-adv-x="646" unicode="&#7750;" /><glyph d="M269 790 169 910H339L389 790ZM442 0 200 448 204 0H46V750H204L446 302L442 750H600V0Z" glyph-name="Ngrave" horiz-adv-x="646" unicode="&#57361;" /><glyph d="M479 790H167V910H479ZM442 0 200 448 204 0H46V750H204L446 302L442 750H600V0Z" glyph-name="Nmacron" horiz-adv-x="646" unicode="&#57363;" /><glyph d="M108 790Q108 935 238 935Q270 935 293.5 925.5Q317 916 336 904.5Q355 893 372 883.5Q389 874 407 874Q430 874 440.5 884.5Q451 895 451 910H538Q538 765 408 765Q376 765 352.5 774.5Q329 784 310 795.5Q291 807 274 816.5Q257 826 239 826Q216 826 205.5 815.5Q195 805 195 790ZM442 0 200 448 204 0H46V750H204L446 302L442 750H600V0Z" glyph-name="Ntilde" horiz-adv-x="646" unicode="&#209;" /><glyph d="M340 -14Q251 -14 193.5 14.5Q136 43 102 94.5Q68 146 54.5 217.5Q41 289 41 375Q41 461 54.5 532.5Q68 604 102 655.5Q136 707 193.5 735.5Q251 764 340 764Q428 764 486 735.5Q544 707 578 655.5Q612 604 625.5 532.5Q639 461 639 375Q639 289 625.5 217.5Q612 146 578 94.5Q544 43 486 14.5Q428 -14 340 -14ZM340 619Q266 619 234.5 562.5Q203 506 203 375Q203 244 234.5 187.5Q266 131 340 131Q414 131 445.5 187.5Q477 244 477 375Q477 506 445.5 562.5Q414 619 340 619Z" glyph-name="O" horiz-adv-x="680" unicode="O" /><glyph d="M828 316H569V146H857V0H356Q261 0 199 28.5Q137 57 101 107.5Q65 158 50.5 226.5Q36 295 36 375Q36 455 50.5 523.5Q65 592 101 642.5Q137 693 199 721.5Q261 750 356 750H857V604H569V459H828ZM409 604H353Q309 604 280 588.5Q251 573 233.5 544Q216 515 209 472Q202 429 202 375Q202 321 209 278.5Q216 236 233.5 206.5Q251 177 280 161.5Q309 146 353 146H409Z" glyph-name="OE" horiz-adv-x="893" unicode="&#338;" /><glyph d="M275 790 325 910H495L395 790ZM340 -14Q251 -14 193.5 14.5Q136 43 102 94.5Q68 146 54.5 217.5Q41 289 41 375Q41 461 54.5 532.5Q68 604 102 655.5Q136 707 193.5 735.5Q251 764 340 764Q428 764 486 735.5Q544 707 578 655.5Q612 604 625.5 532.5Q639 461 639 375Q639 289 625.5 217.5Q612 146 578 94.5Q544 43 486 14.5Q428 -14 340 -14ZM340 619Q266 619 234.5 562.5Q203 506 203 375Q203 244 234.5 187.5Q266 131 340 131Q414 131 445.5 187.5Q477 244 477 375Q477 506 445.5 562.5Q414 619 340 619Z" glyph-name="Oacute" horiz-adv-x="680" unicode="&#211;" /><glyph d="M340 870Q378 870 389 878.5Q400 887 400 910H528Q528 875 518.5 849Q509 823 486.5 806.5Q464 790 428 782Q392 774 340 774Q287 774 251.5 782Q216 790 193.5 806.5Q171 823 161.5 849Q152 875 152 910H280Q280 887 291 878.5Q302 870 340 870ZM340 -14Q251 -14 193.5 14.5Q136 43 102 94.5Q68 146 54.5 217.5Q41 289 41 375Q41 461 54.5 532.5Q68 604 102 655.5Q136 707 193.5 735.5Q251 764 340 764Q428 764 486 735.5Q544 707 578 655.5Q612 604 625.5 532.5Q639 461 639 375Q639 289 625.5 217.5Q612 146 578 94.5Q544 43 486 14.5Q428 -14 340 -14ZM340 619Q266 619 234.5 562.5Q203 506 203 375Q203 244 234.5 187.5Q266 131 340 131Q414 131 445.5 187.5Q477 244 477 375Q477 506 445.5 562.5Q414 619 340 619Z" glyph-name="Obreve" horiz-adv-x="680" unicode="&#334;" /><glyph d="M538 910 415 790H265L142 910H275L340 865L405 910ZM340 -14Q251 -14 193.5 14.5Q136 43 102 94.5Q68 146 54.5 217.5Q41 289 41 375Q41 461 54.5 532.5Q68 604 102 655.5Q136 707 193.5 735.5Q251 764 340 764Q428 764 486 735.5Q544 707 578 655.5Q612 604 625.5 532.5Q639 461 639 375Q639 289 625.5 217.5Q612 146 578 94.5Q544 43 486 14.5Q428 -14 340 -14ZM340 619Q266 619 234.5 562.5Q203 506 203 375Q203 244 234.5 187.5Q266 131 340 131Q414 131 445.5 187.5Q477 244 477 375Q477 506 445.5 562.5Q414 619 340 619Z" glyph-name="Ocaron" horiz-adv-x="680" unicode="&#465;" /><glyph d="M340 -14Q251 -14 193.5 14.5Q136 43 102 94.5Q68 146 54.5 217.5Q41 289 41 375Q41 461 54.5 532.5Q68 604 102 655.5Q136 707 193.5 735.5Q251 764 340 764Q428 764 486 735.5Q544 707 578 655.5Q612 604 625.5 532.5Q639 461 639 375Q639 289 625.5 217.5Q612 146 578 94.5Q544 43 486 14.5Q428 -14 340 -14ZM340 619Q266 619 234.5 562.5Q203 506 203 375Q203 244 234.5 187.5Q266 131 340 131Q414 131 445.5 187.5Q477 244 477 375Q477 506 445.5 562.5Q414 619 340 619ZM301 -38Q353 -42 386 -52.5Q419 -63 437.5 -77.5Q456 -92 462.5 -109.5Q469 -127 469 -145Q469 -174 459 -193.5Q449 -213 431.5 -226Q414 -239 390.5 -244.5Q367 -250 341 -250Q309 -250 281.5 -244Q254 -238 241 -231V-140Q255 -145 278.5 -150Q302 -155 328 -155Q345 -155 355.5 -150Q366 -145 366 -132Q366 -127 363.5 -121.5Q361 -116 353.5 -111Q346 -106 332 -101.5Q318 -97 295 -94Z" glyph-name="Ocedilla" horiz-adv-x="680" unicode="&#57371;" /><glyph d="M142 790 265 910H415L538 790H405L340 835L275 790ZM340 -14Q251 -14 193.5 14.5Q136 43 102 94.5Q68 146 54.5 217.5Q41 289 41 375Q41 461 54.5 532.5Q68 604 102 655.5Q136 707 193.5 735.5Q251 764 340 764Q428 764 486 735.5Q544 707 578 655.5Q612 604 625.5 532.5Q639 461 639 375Q639 289 625.5 217.5Q612 146 578 94.5Q544 43 486 14.5Q428 -14 340 -14ZM340 619Q266 619 234.5 562.5Q203 506 203 375Q203 244 234.5 187.5Q266 131 340 131Q414 131 445.5 187.5Q477 244 477 375Q477 506 445.5 562.5Q414 619 340 619Z" glyph-name="Ocircumflex" horiz-adv-x="680" unicode="&#212;" /><glyph d="M275 790 325 910H495L395 790ZM340 -14Q251 -14 193.5 14.5Q136 43 102 94.5Q68 146 54.5 217.5Q41 289 41 375Q41 461 54.5 532.5Q68 604 102 655.5Q136 707 193.5 735.5Q251 764 340 764Q428 764 486 735.5Q544 707 578 655.5Q612 604 625.5 532.5Q639 461 639 375Q639 289 625.5 217.5Q612 146 578 94.5Q544 43 486 14.5Q428 -14 340 -14ZM340 619Q266 619 234.5 562.5Q203 506 203 375Q203 244 234.5 187.5Q266 131 340 131Q414 131 445.5 187.5Q477 244 477 375Q477 506 445.5 562.5Q414 619 340 619Z" glyph-name="Ocommaturnedabove" horiz-adv-x="680" unicode="&#57367;" /><glyph d="M125 860Q125 900 152 927.5Q179 955 220 955Q260 955 287.5 927.5Q315 900 315 860Q315 819 287.5 792Q260 765 220 765Q179 765 152 792Q125 819 125 860ZM365 860Q365 900 392 927.5Q419 955 460 955Q500 955 527.5 927.5Q555 900 555 860Q555 819 527.5 792Q500 765 460 765Q419 765 392 792Q365 819 365 860ZM340 -14Q251 -14 193.5 14.5Q136 43 102 94.5Q68 146 54.5 217.5Q41 289 41 375Q41 461 54.5 532.5Q68 604 102 655.5Q136 707 193.5 735.5Q251 764 340 764Q428 764 486 735.5Q544 707 578 655.5Q612 604 625.5 532.5Q639 461 639 375Q639 289 625.5 217.5Q612 146 578 94.5Q544 43 486 14.5Q428 -14 340 -14ZM340 619Q266 619 234.5 562.5Q203 506 203 375Q203 244 234.5 187.5Q266 131 340 131Q414 131 445.5 187.5Q477 244 477 375Q477 506 445.5 562.5Q414 619 340 619Z" glyph-name="Odieresis" horiz-adv-x="680" unicode="&#214;" /><glyph d="M245 867Q245 907 272 934.5Q299 962 340 962Q380 962 407.5 934.5Q435 907 435 867Q435 826 407.5 799Q380 772 340 772Q299 772 272 799Q245 826 245 867ZM340 -14Q251 -14 193.5 14.5Q136 43 102 94.5Q68 146 54.5 217.5Q41 289 41 375Q41 461 54.5 532.5Q68 604 102 655.5Q136 707 193.5 735.5Q251 764 340 764Q428 764 486 735.5Q544 707 578 655.5Q612 604 625.5 532.5Q639 461 639 375Q639 289 625.5 217.5Q612 146 578 94.5Q544 43 486 14.5Q428 -14 340 -14ZM340 619Q266 619 234.5 562.5Q203 506 203 375Q203 244 234.5 187.5Q266 131 340 131Q414 131 445.5 187.5Q477 244 477 375Q477 506 445.5 562.5Q414 619 340 619Z" glyph-name="Odotabove" horiz-adv-x="680" unicode="&#57369;" /><glyph d="M245 867Q245 907 272 934.5Q299 962 340 962Q380 962 407.5 934.5Q435 907 435 867Q435 826 407.5 799Q380 772 340 772Q299 772 272 799Q245 826 245 867ZM496 970H184V1090H496ZM340 -14Q251 -14 193.5 14.5Q136 43 102 94.5Q68 146 54.5 217.5Q41 289 41 375Q41 461 54.5 532.5Q68 604 102 655.5Q136 707 193.5 735.5Q251 764 340 764Q428 764 486 735.5Q544 707 578 655.5Q612 604 625.5 532.5Q639 461 639 375Q639 289 625.5 217.5Q612 146 578 94.5Q544 43 486 14.5Q428 -14 340 -14ZM340 619Q266 619 234.5 562.5Q203 506 203 375Q203 244 234.5 187.5Q266 131 340 131Q414 131 445.5 187.5Q477 244 477 375Q477 506 445.5 562.5Q414 619 340 619Z" glyph-name="Odotabovemacron" horiz-adv-x="680" unicode="&#57370;" /><glyph d="M245 -150Q245 -110 272 -82.5Q299 -55 340 -55Q380 -55 407.5 -82.5Q435 -110 435 -150Q435 -191 407.5 -218Q380 -245 340 -245Q299 -245 272 -218Q245 -191 245 -150ZM340 -14Q251 -14 193.5 14.5Q136 43 102 94.5Q68 146 54.5 217.5Q41 289 41 375Q41 461 54.5 532.5Q68 604 102 655.5Q136 707 193.5 735.5Q251 764 340 764Q428 764 486 735.5Q544 707 578 655.5Q612 604 625.5 532.5Q639 461 639 375Q639 289 625.5 217.5Q612 146 578 94.5Q544 43 486 14.5Q428 -14 340 -14ZM340 619Q266 619 234.5 562.5Q203 506 203 375Q203 244 234.5 187.5Q266 131 340 131Q414 131 445.5 187.5Q477 244 477 375Q477 506 445.5 562.5Q414 619 340 619Z" glyph-name="Odotbelow" horiz-adv-x="680" unicode="&#7884;" /><glyph d="M386 790 286 910H456L506 790ZM196 790 96 910H266L316 790ZM340 -14Q251 -14 193.5 14.5Q136 43 102 94.5Q68 146 54.5 217.5Q41 289 41 375Q41 461 54.5 532.5Q68 604 102 655.5Q136 707 193.5 735.5Q251 764 340 764Q428 764 486 735.5Q544 707 578 655.5Q612 604 625.5 532.5Q639 461 639 375Q639 289 625.5 217.5Q612 146 578 94.5Q544 43 486 14.5Q428 -14 340 -14ZM340 619Q266 619 234.5 562.5Q203 506 203 375Q203 244 234.5 187.5Q266 131 340 131Q414 131 445.5 187.5Q477 244 477 375Q477 506 445.5 562.5Q414 619 340 619Z" glyph-name="Odoublegrave" horiz-adv-x="680" unicode="&#57366;" /><glyph d="M286 790 186 910H356L406 790ZM340 -14Q251 -14 193.5 14.5Q136 43 102 94.5Q68 146 54.5 217.5Q41 289 41 375Q41 461 54.5 532.5Q68 604 102 655.5Q136 707 193.5 735.5Q251 764 340 764Q428 764 486 735.5Q544 707 578 655.5Q612 604 625.5 532.5Q639 461 639 375Q639 289 625.5 217.5Q612 146 578 94.5Q544 43 486 14.5Q428 -14 340 -14ZM340 619Q266 619 234.5 562.5Q203 506 203 375Q203 244 234.5 187.5Q266 131 340 131Q414 131 445.5 187.5Q477 244 477 375Q477 506 445.5 562.5Q414 619 340 619Z" glyph-name="Ograve" horiz-adv-x="680" unicode="&#210;" /><glyph d="M175 790 225 910H395L295 790ZM365 790 415 910H585L485 790ZM340 -14Q251 -14 193.5 14.5Q136 43 102 94.5Q68 146 54.5 217.5Q41 289 41 375Q41 461 54.5 532.5Q68 604 102 655.5Q136 707 193.5 735.5Q251 764 340 764Q428 764 486 735.5Q544 707 578 655.5Q612 604 625.5 532.5Q639 461 639 375Q639 289 625.5 217.5Q612 146 578 94.5Q544 43 486 14.5Q428 -14 340 -14ZM340 619Q266 619 234.5 562.5Q203 506 203 375Q203 244 234.5 187.5Q266 131 340 131Q414 131 445.5 187.5Q477 244 477 375Q477 506 445.5 562.5Q414 619 340 619Z" glyph-name="Ohungarumlaut" horiz-adv-x="680" unicode="&#336;" /><glyph d="M340 830Q302 830 291 821.5Q280 813 280 790H152Q152 825 161.5 851Q171 877 193.5 893.5Q216 910 251.5 918Q287 926 340 926Q392 926 428 918Q464 910 486.5 893.5Q509 877 518.5 851Q528 825 528 790H400Q400 813 389 821.5Q378 830 340 830ZM340 -14Q251 -14 193.5 14.5Q136 43 102 94.5Q68 146 54.5 217.5Q41 289 41 375Q41 461 54.5 532.5Q68 604 102 655.5Q136 707 193.5 735.5Q251 764 340 764Q428 764 486 735.5Q544 707 578 655.5Q612 604 625.5 532.5Q639 461 639 375Q639 289 625.5 217.5Q612 146 578 94.5Q544 43 486 14.5Q428 -14 340 -14ZM340 619Q266 619 234.5 562.5Q203 506 203 375Q203 244 234.5 187.5Q266 131 340 131Q414 131 445.5 187.5Q477 244 477 375Q477 506 445.5 562.5Q414 619 340 619Z" glyph-name="Oinvertedbreve" horiz-adv-x="680" unicode="&#526;" /><glyph d="M496 790H184V910H496ZM340 -14Q251 -14 193.5 14.5Q136 43 102 94.5Q68 146 54.5 217.5Q41 289 41 375Q41 461 54.5 532.5Q68 604 102 655.5Q136 707 193.5 735.5Q251 764 340 764Q428 764 486 735.5Q544 707 578 655.5Q612 604 625.5 532.5Q639 461 639 375Q639 289 625.5 217.5Q612 146 578 94.5Q544 43 486 14.5Q428 -14 340 -14ZM340 619Q266 619 234.5 562.5Q203 506 203 375Q203 244 234.5 187.5Q266 131 340 131Q414 131 445.5 187.5Q477 244 477 375Q477 506 445.5 562.5Q414 619 340 619Z" glyph-name="Omacron" horiz-adv-x="680" unicode="&#332;" /><glyph d="M230 -127Q230 -88 247.5 -59.5Q265 -31 292 -11Q218 -4 169.5 27.5Q121 59 92.5 109.5Q64 160 52.5 227.5Q41 295 41 375Q41 461 54.5 532.5Q68 604 102 655.5Q136 707 193.5 735.5Q251 764 340 764Q428 764 486 735.5Q544 707 578 655.5Q612 604 625.5 532.5Q639 461 639 375Q639 303 629.5 241Q620 179 597.5 130Q575 81 536.5 47Q498 13 441 -2Q421 -8 404 -20.5Q387 -33 375 -47.5Q363 -62 356.5 -78Q350 -94 350 -107Q350 -129 366.5 -141Q383 -153 409 -153Q434 -153 451.5 -148.5Q469 -144 477 -141V-231Q466 -236 444 -243Q422 -250 377 -250Q349 -250 322.5 -243Q296 -236 275.5 -221Q255 -206 242.5 -182.5Q230 -159 230 -127ZM340 619Q266 619 234.5 562.5Q203 506 203 375Q203 244 234.5 187.5Q266 131 340 131Q414 131 445.5 187.5Q477 244 477 375Q477 506 445.5 562.5Q414 619 340 619Z" glyph-name="Oogonek" horiz-adv-x="680" unicode="&#490;" /><glyph d="M230 -127Q230 -88 247.5 -59.5Q265 -31 292 -11Q218 -4 169.5 27.5Q121 59 92.5 109.5Q64 160 52.5 227.5Q41 295 41 375Q41 461 54.5 532.5Q68 604 102 655.5Q136 707 193.5 735.5Q251 764 340 764Q428 764 486 735.5Q544 707 578 655.5Q612 604 625.5 532.5Q639 461 639 375Q639 303 629.5 241Q620 179 597.5 130Q575 81 536.5 47Q498 13 441 -2Q421 -8 404 -20.5Q387 -33 375 -47.5Q363 -62 356.5 -78Q350 -94 350 -107Q350 -129 366.5 -141Q383 -153 409 -153Q434 -153 451.5 -148.5Q469 -144 477 -141V-231Q466 -236 444 -243Q422 -250 377 -250Q349 -250 322.5 -243Q296 -236 275.5 -221Q255 -206 242.5 -182.5Q230 -159 230 -127ZM340 619Q266 619 234.5 562.5Q203 506 203 375Q203 244 234.5 187.5Q266 131 340 131Q414 131 445.5 187.5Q477 244 477 375Q477 506 445.5 562.5Q414 619 340 619ZM496 790H184V910H496Z" glyph-name="Oogonekmacron" horiz-adv-x="680" unicode="&#492;" /><glyph d="M340 -14Q290 -14 251 -5Q212 4 181 21L168 0H65L113 79Q72 131 56.5 206Q41 281 41 375Q41 461 54.5 532.5Q68 604 102 655.5Q136 707 193.5 735.5Q251 764 340 764Q441 764 506 724L522 750H625L572 663Q610 611 624.5 538Q639 465 639 375Q639 289 625.5 217.5Q612 146 578 94.5Q544 43 486 14.5Q428 -14 340 -14ZM340 619Q266 619 234.5 562.5Q203 506 203 375Q203 335 205.5 303Q208 271 214 245L424 590Q394 619 340 619ZM477 375Q477 443 468 493L262 154Q291 131 340 131Q414 131 445.5 187.5Q477 244 477 375Z" glyph-name="Oslash" horiz-adv-x="680" unicode="&#216;" /><glyph d="M340 -14Q290 -14 251 -5Q212 4 181 21L168 0H65L113 79Q72 131 56.5 206Q41 281 41 375Q41 461 54.5 532.5Q68 604 102 655.5Q136 707 193.5 735.5Q251 764 340 764Q441 764 506 724L522 750H625L572 663Q610 611 624.5 538Q639 465 639 375Q639 289 625.5 217.5Q612 146 578 94.5Q544 43 486 14.5Q428 -14 340 -14ZM340 619Q266 619 234.5 562.5Q203 506 203 375Q203 335 205.5 303Q208 271 214 245L424 590Q394 619 340 619ZM477 375Q477 443 468 493L262 154Q291 131 340 131Q414 131 445.5 187.5Q477 244 477 375ZM275 790 325 910H495L395 790Z" glyph-name="Oslashacute" horiz-adv-x="680" unicode="&#510;" /><glyph d="M125 790Q125 935 255 935Q287 935 310.5 925.5Q334 916 353 904.5Q372 893 389 883.5Q406 874 424 874Q447 874 457.5 884.5Q468 895 468 910H555Q555 765 425 765Q393 765 369.5 774.5Q346 784 327 795.5Q308 807 291 816.5Q274 826 256 826Q233 826 222.5 815.5Q212 805 212 790ZM340 -14Q251 -14 193.5 14.5Q136 43 102 94.5Q68 146 54.5 217.5Q41 289 41 375Q41 461 54.5 532.5Q68 604 102 655.5Q136 707 193.5 735.5Q251 764 340 764Q428 764 486 735.5Q544 707 578 655.5Q612 604 625.5 532.5Q639 461 639 375Q639 289 625.5 217.5Q612 146 578 94.5Q544 43 486 14.5Q428 -14 340 -14ZM340 619Q266 619 234.5 562.5Q203 506 203 375Q203 244 234.5 187.5Q266 131 340 131Q414 131 445.5 187.5Q477 244 477 375Q477 506 445.5 562.5Q414 619 340 619Z" glyph-name="Otilde" horiz-adv-x="680" unicode="&#213;" /><glyph d="M125 807Q125 952 255 952Q287 952 310.5 942.5Q334 933 353 921.5Q372 910 389 900.5Q406 891 424 891Q447 891 457.5 901.5Q468 912 468 927H555Q555 782 425 782Q393 782 369.5 791.5Q346 801 327 812.5Q308 824 291 833.5Q274 843 256 843Q233 843 222.5 832.5Q212 822 212 807ZM496 970H184V1090H496ZM340 -14Q251 -14 193.5 14.5Q136 43 102 94.5Q68 146 54.5 217.5Q41 289 41 375Q41 461 54.5 532.5Q68 604 102 655.5Q136 707 193.5 735.5Q251 764 340 764Q428 764 486 735.5Q544 707 578 655.5Q612 604 625.5 532.5Q639 461 639 375Q639 289 625.5 217.5Q612 146 578 94.5Q544 43 486 14.5Q428 -14 340 -14ZM340 619Q266 619 234.5 562.5Q203 506 203 375Q203 244 234.5 187.5Q266 131 340 131Q414 131 445.5 187.5Q477 244 477 375Q477 506 445.5 562.5Q414 619 340 619Z" glyph-name="Otildemacron" horiz-adv-x="680" unicode="&#57368;" /><glyph d="M390 -50V-250H290V-50ZM340 -14Q251 -14 193.5 14.5Q136 43 102 94.5Q68 146 54.5 217.5Q41 289 41 375Q41 461 54.5 532.5Q68 604 102 655.5Q136 707 193.5 735.5Q251 764 340 764Q428 764 486 735.5Q544 707 578 655.5Q612 604 625.5 532.5Q639 461 639 375Q639 289 625.5 217.5Q612 146 578 94.5Q544 43 486 14.5Q428 -14 340 -14ZM340 619Q266 619 234.5 562.5Q203 506 203 375Q203 244 234.5 187.5Q266 131 340 131Q414 131 445.5 187.5Q477 244 477 375Q477 506 445.5 562.5Q414 619 340 619Z" glyph-name="Ounderlineaccent" horiz-adv-x="680" unicode="&#57372;" /><glyph d="M206 0H46V750H300Q375 750 426.5 729.5Q478 709 509.5 675.5Q541 642 555 597.5Q569 553 569 505Q569 456 555 411.5Q541 367 509.5 333.5Q478 300 426.5 280Q375 260 300 260H206ZM206 404H301Q331 404 349.5 414Q368 424 378.5 439Q389 454 392.5 471.5Q396 489 396 504Q396 519 392.5 536.5Q389 554 378.5 569Q368 584 349.5 594Q331 604 301 604H206Z" glyph-name="P" horiz-adv-x="580" unicode="P" /><glyph d="M431 790H119V910H431ZM206 0H46V750H300Q375 750 426.5 729.5Q478 709 509.5 675.5Q541 642 555 597.5Q569 553 569 505Q569 456 555 411.5Q541 367 509.5 333.5Q478 300 426.5 280Q375 260 300 260H206ZM206 404H301Q331 404 349.5 414Q368 424 378.5 439Q389 454 392.5 471.5Q396 489 396 504Q396 519 392.5 536.5Q389 554 378.5 569Q368 584 349.5 594Q331 604 301 604H206Z" glyph-name="Pmacron" horiz-adv-x="580" unicode="&#57374;" /><glyph d="M523 35 700 -1V-162L228 1Q173 20 137 54Q101 88 79.5 135.5Q58 183 49.5 243Q41 303 41 375Q41 461 54.5 532.5Q68 604 101.5 655.5Q135 707 193 735.5Q251 764 340 764Q428 764 486 735.5Q544 707 578 655.5Q612 604 625.5 532.5Q639 461 639 375Q639 261 614 172.5Q589 84 523 36ZM340 619Q266 619 234.5 562.5Q203 506 203 375Q203 244 234.5 187.5Q266 131 340 131Q414 131 445.5 187.5Q477 244 477 375Q477 506 445.5 562.5Q414 619 340 619Z" glyph-name="Q" horiz-adv-x="680" unicode="Q" /><glyph d="M206 0H46V750H301Q377 750 428 733.5Q479 717 510.5 686Q542 655 555.5 612Q569 569 569 515Q569 445 546.5 393.5Q524 342 464 313L597 0H410L309 281H206ZM206 426H315Q342 426 357.5 434Q373 442 381.5 455Q390 468 392.5 484Q395 500 395 515Q395 531 392.5 546.5Q390 562 381.5 575Q373 588 357.5 596Q342 604 315 604H206Z" glyph-name="R" horiz-adv-x="605" unicode="R" /><glyph d="M225 790 275 910H445L345 790ZM206 0H46V750H301Q377 750 428 733.5Q479 717 510.5 686Q542 655 555.5 612Q569 569 569 515Q569 445 546.5 393.5Q524 342 464 313L597 0H410L309 281H206ZM206 426H315Q342 426 357.5 434Q373 442 381.5 455Q390 468 392.5 484Q395 500 395 515Q395 531 392.5 546.5Q390 562 381.5 575Q373 588 357.5 596Q342 604 315 604H206Z" glyph-name="Racute" horiz-adv-x="620" unicode="&#340;" /><glyph d="M488 910 365 790H215L92 910H225L290 865L355 910ZM206 0H46V750H301Q377 750 428 733.5Q479 717 510.5 686Q542 655 555.5 612Q569 569 569 515Q569 445 546.5 393.5Q524 342 464 313L597 0H410L309 281H206ZM206 426H315Q342 426 357.5 434Q373 442 381.5 455Q390 468 392.5 484Q395 500 395 515Q395 531 392.5 546.5Q390 562 381.5 575Q373 588 357.5 596Q342 604 315 604H206Z" glyph-name="Rcaron" horiz-adv-x="620" unicode="&#344;" /><glyph d="M206 0H46V750H301Q377 750 428 733.5Q479 717 510.5 686Q542 655 555.5 612Q569 569 569 515Q569 445 546.5 393.5Q524 342 464 313L597 0H410L309 281H206ZM206 426H315Q342 426 357.5 434Q373 442 381.5 455Q390 468 392.5 484Q395 500 395 515Q395 531 392.5 546.5Q390 562 381.5 575Q373 588 357.5 596Q342 604 315 604H206ZM271 -38Q323 -42 356 -52.5Q389 -63 407.5 -77.5Q426 -92 432.5 -109.5Q439 -127 439 -145Q439 -174 429 -193.5Q419 -213 401.5 -226Q384 -239 360.5 -244.5Q337 -250 311 -250Q279 -250 251.5 -244Q224 -238 211 -231V-140Q225 -145 248.5 -150Q272 -155 298 -155Q315 -155 325.5 -150Q336 -145 336 -132Q336 -127 333.5 -121.5Q331 -116 323.5 -111Q316 -106 302 -101.5Q288 -97 265 -94Z" glyph-name="Rcedilla" horiz-adv-x="620" unicode="&#57376;" /><glyph d="M219 -250 233 -51H411L350 -250ZM206 0H46V750H301Q377 750 428 733.5Q479 717 510.5 686Q542 655 555.5 612Q569 569 569 515Q569 445 546.5 393.5Q524 342 464 313L597 0H410L309 281H206ZM206 426H315Q342 426 357.5 434Q373 442 381.5 455Q390 468 392.5 484Q395 500 395 515Q395 531 392.5 546.5Q390 562 381.5 575Q373 588 357.5 596Q342 604 315 604H206Z" glyph-name="Rcommaaccent" horiz-adv-x="620" unicode="&#342;" /><glyph d="M215 -150Q215 -110 242 -82.5Q269 -55 310 -55Q350 -55 377.5 -82.5Q405 -110 405 -150Q405 -191 377.5 -218Q350 -245 310 -245Q269 -245 242 -218Q215 -191 215 -150ZM206 0H46V750H301Q377 750 428 733.5Q479 717 510.5 686Q542 655 555.5 612Q569 569 569 515Q569 445 546.5 393.5Q524 342 464 313L597 0H410L309 281H206ZM206 426H315Q342 426 357.5 434Q373 442 381.5 455Q390 468 392.5 484Q395 500 395 515Q395 531 392.5 546.5Q390 562 381.5 575Q373 588 357.5 596Q342 604 315 604H206Z" glyph-name="Rdotbelow" horiz-adv-x="620" unicode="&#7770;" /><glyph d="M446 790H134V910H446ZM215 -150Q215 -110 242 -82.5Q269 -55 310 -55Q350 -55 377.5 -82.5Q405 -110 405 -150Q405 -191 377.5 -218Q350 -245 310 -245Q269 -245 242 -218Q215 -191 215 -150ZM206 0H46V750H301Q377 750 428 733.5Q479 717 510.5 686Q542 655 555.5 612Q569 569 569 515Q569 445 546.5 393.5Q524 342 464 313L597 0H410L309 281H206ZM206 426H315Q342 426 357.5 434Q373 442 381.5 455Q390 468 392.5 484Q395 500 395 515Q395 531 392.5 546.5Q390 562 381.5 575Q373 588 357.5 596Q342 604 315 604H206Z" glyph-name="Rdotbelowmacron" horiz-adv-x="620" unicode="&#7772;" /><glyph d="M336 790 236 910H406L456 790ZM146 790 46 910H216L266 790ZM206 0H46V750H301Q377 750 428 733.5Q479 717 510.5 686Q542 655 555.5 612Q569 569 569 515Q569 445 546.5 393.5Q524 342 464 313L597 0H410L309 281H206ZM206 426H315Q342 426 357.5 434Q373 442 381.5 455Q390 468 392.5 484Q395 500 395 515Q395 531 392.5 546.5Q390 562 381.5 575Q373 588 357.5 596Q342 604 315 604H206Z" glyph-name="Rdoublegrave" horiz-adv-x="620" unicode="&#57375;" /><glyph d="M290 830Q252 830 241 821.5Q230 813 230 790H102Q102 825 111.5 851Q121 877 143.5 893.5Q166 910 201.5 918Q237 926 290 926Q342 926 378 918Q414 910 436.5 893.5Q459 877 468.5 851Q478 825 478 790H350Q350 813 339 821.5Q328 830 290 830ZM206 0H46V750H301Q377 750 428 733.5Q479 717 510.5 686Q542 655 555.5 612Q569 569 569 515Q569 445 546.5 393.5Q524 342 464 313L597 0H410L309 281H206ZM206 426H315Q342 426 357.5 434Q373 442 381.5 455Q390 468 392.5 484Q395 500 395 515Q395 531 392.5 546.5Q390 562 381.5 575Q373 588 357.5 596Q342 604 315 604H206Z" glyph-name="Rinvertedbreve" horiz-adv-x="620" unicode="&#530;" /><glyph d="M307 456Q369 447 417 434.5Q465 422 497.5 398.5Q530 375 547 337Q564 299 564 239Q564 169 543 121Q522 73 483.5 43Q445 13 390.5 -0.5Q336 -14 270 -14Q240 -14 207 -11.5Q174 -9 143 -3Q112 3 84 11.5Q56 20 36 32V196Q49 188 71 178Q93 168 121 159Q149 150 183 144Q217 138 254 138Q296 138 324.5 144.5Q353 151 369.5 162Q386 173 393 189Q400 205 400 224Q400 245 395 260Q390 275 378 284.5Q366 294 346.5 300Q327 306 299 310Q228 319 178 335.5Q128 352 96.5 378.5Q65 405 50.5 444Q36 483 36 538Q36 589 52 630.5Q68 672 102 702Q136 732 189.5 748Q243 764 317 764Q394 764 448.5 752.5Q503 741 529 727V572Q514 579 491.5 586.5Q469 594 442.5 599.5Q416 605 386.5 608.5Q357 612 329 612Q266 612 233 593Q200 574 200 538Q200 518 205.5 504Q211 490 224 481Q237 472 257.5 466Q278 460 307 456Z" glyph-name="S" horiz-adv-x="595" unicode="S" /><glyph d="M235 790 285 910H455L355 790ZM307 456Q369 447 417 434.5Q465 422 497.5 398.5Q530 375 547 337Q564 299 564 239Q564 169 543 121Q522 73 483.5 43Q445 13 390.5 -0.5Q336 -14 270 -14Q240 -14 207 -11.5Q174 -9 143 -3Q112 3 84 11.5Q56 20 36 32V196Q49 188 71 178Q93 168 121 159Q149 150 183 144Q217 138 254 138Q296 138 324.5 144.5Q353 151 369.5 162Q386 173 393 189Q400 205 400 224Q400 245 395 260Q390 275 378 284.5Q366 294 346.5 300Q327 306 299 310Q228 319 178 335.5Q128 352 96.5 378.5Q65 405 50.5 444Q36 483 36 538Q36 589 52 630.5Q68 672 102 702Q136 732 189.5 748Q243 764 317 764Q394 764 448.5 752.5Q503 741 529 727V572Q514 579 491.5 586.5Q469 594 442.5 599.5Q416 605 386.5 608.5Q357 612 329 612Q266 612 233 593Q200 574 200 538Q200 518 205.5 504Q211 490 224 481Q237 472 257.5 466Q278 460 307 456Z" glyph-name="Sacute" horiz-adv-x="595" unicode="&#346;" /><glyph d="M498 910 375 790H225L102 910H235L300 865L365 910ZM307 456Q369 447 417 434.5Q465 422 497.5 398.5Q530 375 547 337Q564 299 564 239Q564 169 543 121Q522 73 483.5 43Q445 13 390.5 -0.5Q336 -14 270 -14Q240 -14 207 -11.5Q174 -9 143 -3Q112 3 84 11.5Q56 20 36 32V196Q49 188 71 178Q93 168 121 159Q149 150 183 144Q217 138 254 138Q296 138 324.5 144.5Q353 151 369.5 162Q386 173 393 189Q400 205 400 224Q400 245 395 260Q390 275 378 284.5Q366 294 346.5 300Q327 306 299 310Q228 319 178 335.5Q128 352 96.5 378.5Q65 405 50.5 444Q36 483 36 538Q36 589 52 630.5Q68 672 102 702Q136 732 189.5 748Q243 764 317 764Q394 764 448.5 752.5Q503 741 529 727V572Q514 579 491.5 586.5Q469 594 442.5 599.5Q416 605 386.5 608.5Q357 612 329 612Q266 612 233 593Q200 574 200 538Q200 518 205.5 504Q211 490 224 481Q237 472 257.5 466Q278 460 307 456Z" glyph-name="Scaron" horiz-adv-x="595" unicode="&#352;" /><glyph d="M253 -14Q224 -13 193.5 -10Q163 -7 134.5 -1.5Q106 4 80.5 12.5Q55 21 36 32V196Q49 188 71 178Q93 168 121 159Q149 150 183 144Q217 138 254 138Q296 138 324.5 144.5Q353 151 369.5 162Q386 173 393 189Q400 205 400 224Q400 245 395 260Q390 275 378 284.5Q366 294 346.5 300Q327 306 299 310Q228 319 178 335.5Q128 352 96.5 378.5Q65 405 50.5 444Q36 483 36 538Q36 589 52 630.5Q68 672 102 702Q136 732 189.5 748Q243 764 317 764Q394 764 448.5 752.5Q503 741 529 727V572Q514 579 491.5 586.5Q469 594 442.5 599.5Q416 605 386.5 608.5Q357 612 329 612Q266 612 233 593Q200 574 200 538Q200 518 205.5 504Q211 490 224 481Q237 472 257.5 466Q278 460 307 456Q369 447 417 434.5Q465 422 497.5 398.5Q530 375 547 337Q564 299 564 239Q564 177 547 132Q530 87 499 57Q468 27 424 10.5Q380 -6 326 -11L329 -57Q375 -68 397 -89Q419 -110 419 -145Q419 -174 409 -193.5Q399 -213 381.5 -226Q364 -239 340.5 -244.5Q317 -250 291 -250Q259 -250 231.5 -244Q204 -238 191 -231V-140Q205 -145 228.5 -150Q252 -155 278 -155Q295 -155 305.5 -150Q316 -145 316 -132Q316 -127 313.5 -121.5Q311 -116 303.5 -111Q296 -106 282 -101.5Q268 -97 245 -94Z" glyph-name="Scedilla" horiz-adv-x="595" unicode="&#350;" /><glyph d="M652 375Q652 288 633 216Q614 144 574.5 93Q535 42 474.5 14Q414 -14 330 -14Q237 -14 179 16Q121 46 89 96Q57 146 46 212.5Q35 279 35 353L37 460H484Q480 496 468 524.5Q456 553 433.5 573Q411 593 377.5 603.5Q344 614 297 614Q224 614 166.5 598.5Q109 583 67 566V714Q127 743 195 753.5Q263 764 323 764Q408 764 470.5 736Q533 708 573 657Q613 606 632.5 534Q652 462 652 375ZM330 139Q371 139 400 151.5Q429 164 447.5 187Q466 210 475 242Q484 274 486 314H198Q198 278 202 246Q206 214 219.5 190Q233 166 259.5 152.5Q286 139 330 139Z" glyph-name="Schwa" horiz-adv-x="692" unicode="&#399;" /><glyph d="M102 790 225 910H375L498 790H365L300 835L235 790ZM307 456Q369 447 417 434.5Q465 422 497.5 398.5Q530 375 547 337Q564 299 564 239Q564 169 543 121Q522 73 483.5 43Q445 13 390.5 -0.5Q336 -14 270 -14Q240 -14 207 -11.5Q174 -9 143 -3Q112 3 84 11.5Q56 20 36 32V196Q49 188 71 178Q93 168 121 159Q149 150 183 144Q217 138 254 138Q296 138 324.5 144.5Q353 151 369.5 162Q386 173 393 189Q400 205 400 224Q400 245 395 260Q390 275 378 284.5Q366 294 346.5 300Q327 306 299 310Q228 319 178 335.5Q128 352 96.5 378.5Q65 405 50.5 444Q36 483 36 538Q36 589 52 630.5Q68 672 102 702Q136 732 189.5 748Q243 764 317 764Q394 764 448.5 752.5Q503 741 529 727V572Q514 579 491.5 586.5Q469 594 442.5 599.5Q416 605 386.5 608.5Q357 612 329 612Q266 612 233 593Q200 574 200 538Q200 518 205.5 504Q211 490 224 481Q237 472 257.5 466Q278 460 307 456Z" glyph-name="Scircumflex" horiz-adv-x="595" unicode="&#348;" /><glyph d="M199 -250 213 -51H391L330 -250ZM307 456Q369 447 417 434.5Q465 422 497.5 398.5Q530 375 547 337Q564 299 564 239Q564 169 543 121Q522 73 483.5 43Q445 13 390.5 -0.5Q336 -14 270 -14Q240 -14 207 -11.5Q174 -9 143 -3Q112 3 84 11.5Q56 20 36 32V196Q49 188 71 178Q93 168 121 159Q149 150 183 144Q217 138 254 138Q296 138 324.5 144.5Q353 151 369.5 162Q386 173 393 189Q400 205 400 224Q400 245 395 260Q390 275 378 284.5Q366 294 346.5 300Q327 306 299 310Q228 319 178 335.5Q128 352 96.5 378.5Q65 405 50.5 444Q36 483 36 538Q36 589 52 630.5Q68 672 102 702Q136 732 189.5 748Q243 764 317 764Q394 764 448.5 752.5Q503 741 529 727V572Q514 579 491.5 586.5Q469 594 442.5 599.5Q416 605 386.5 608.5Q357 612 329 612Q266 612 233 593Q200 574 200 538Q200 518 205.5 504Q211 490 224 481Q237 472 257.5 466Q278 460 307 456Z" glyph-name="Scommaaccent" horiz-adv-x="595" unicode="&#536;" /><glyph d="M195 -150Q195 -110 222 -82.5Q249 -55 290 -55Q330 -55 357.5 -82.5Q385 -110 385 -150Q385 -191 357.5 -218Q330 -245 290 -245Q249 -245 222 -218Q195 -191 195 -150ZM307 456Q369 447 417 434.5Q465 422 497.5 398.5Q530 375 547 337Q564 299 564 239Q564 169 543 121Q522 73 483.5 43Q445 13 390.5 -0.5Q336 -14 270 -14Q240 -14 207 -11.5Q174 -9 143 -3Q112 3 84 11.5Q56 20 36 32V196Q49 188 71 178Q93 168 121 159Q149 150 183 144Q217 138 254 138Q296 138 324.5 144.5Q353 151 369.5 162Q386 173 393 189Q400 205 400 224Q400 245 395 260Q390 275 378 284.5Q366 294 346.5 300Q327 306 299 310Q228 319 178 335.5Q128 352 96.5 378.5Q65 405 50.5 444Q36 483 36 538Q36 589 52 630.5Q68 672 102 702Q136 732 189.5 748Q243 764 317 764Q394 764 448.5 752.5Q503 741 529 727V572Q514 579 491.5 586.5Q469 594 442.5 599.5Q416 605 386.5 608.5Q357 612 329 612Q266 612 233 593Q200 574 200 538Q200 518 205.5 504Q211 490 224 481Q237 472 257.5 466Q278 460 307 456Z" glyph-name="Sdotbelow" horiz-adv-x="595" unicode="&#7778;" /><glyph d="M356 604V0H196V604H15V750H537V604Z" glyph-name="T" horiz-adv-x="552" unicode="T" /><glyph d="M356 604V447H457V327H356V0H196V327H95V447H196V604H15V750H537V604Z" glyph-name="Tbar" horiz-adv-x="555" unicode="&#358;" /><glyph d="M474 910 351 790H201L78 910H211L276 865L341 910ZM356 604V0H196V604H15V750H537V604Z" glyph-name="Tcaron" horiz-adv-x="555" unicode="&#356;" /><glyph d="M356 604V0H196V604H15V750H537V604ZM228 -38Q280 -42 313 -52.5Q346 -63 364.5 -77.5Q383 -92 389.5 -109.5Q396 -127 396 -145Q396 -174 386 -193.5Q376 -213 358.5 -226Q341 -239 317.5 -244.5Q294 -250 268 -250Q236 -250 208.5 -244Q181 -238 168 -231V-140Q182 -145 205.5 -150Q229 -155 255 -155Q272 -155 282.5 -150Q293 -145 293 -132Q293 -127 290.5 -121.5Q288 -116 280.5 -111Q273 -106 259 -101.5Q245 -97 222 -94Z" glyph-name="Tcedilla" horiz-adv-x="555" unicode="&#57377;" /><glyph d="M172 -250 186 -51H364L303 -250ZM356 604V0H196V604H15V750H537V604Z" glyph-name="Tcommaaccent" horiz-adv-x="555" unicode="&#354;" /><glyph d="M181 -150Q181 -110 208 -82.5Q235 -55 276 -55Q316 -55 343.5 -82.5Q371 -110 371 -150Q371 -191 343.5 -218Q316 -245 276 -245Q235 -245 208 -218Q181 -191 181 -150ZM356 604V0H196V604H15V750H537V604Z" glyph-name="Tdotbelow" horiz-adv-x="555" unicode="&#7788;" /><glyph d="M206 0H46V750H206V620H300Q375 620 426.5 599.5Q478 579 509.5 545.5Q541 512 555 467.5Q569 423 569 375Q569 326 555 281.5Q541 237 509.5 203.5Q478 170 426.5 150Q375 130 300 130H206ZM206 274H301Q331 274 349.5 284Q368 294 378.5 309Q389 324 392.5 341.5Q396 359 396 374Q396 389 392.5 406.5Q389 424 378.5 439Q368 454 349.5 464Q331 474 301 474H206Z" glyph-name="Thorn" horiz-adv-x="590" unicode="&#222;" /><glyph d="M320 -14Q291 -14 259.5 -9.5Q228 -5 197 5.5Q166 16 137.5 34Q109 52 88 80Q67 108 54 146.5Q41 185 41 237V750H201V245Q201 209 211.5 186.5Q222 164 239.5 151.5Q257 139 278 135Q299 131 320 131Q341 131 362 135Q383 139 400.5 151.5Q418 164 428.5 186.5Q439 209 439 245V750H599V237Q599 186 586 147Q573 108 551.5 80Q530 52 502 34Q474 16 443 5.5Q412 -5 380 -9.5Q348 -14 320 -14Z" glyph-name="U" horiz-adv-x="640" unicode="U" /><glyph d="M254 790 304 910H474L374 790ZM320 -14Q291 -14 259.5 -9.5Q228 -5 197 5.5Q166 16 137.5 34Q109 52 88 80Q67 108 54 146.5Q41 185 41 237V750H201V245Q201 209 211.5 186.5Q222 164 239.5 151.5Q257 139 278 135Q299 131 320 131Q341 131 362 135Q383 139 400.5 151.5Q418 164 428.5 186.5Q439 209 439 245V750H599V237Q599 186 586 147Q573 108 551.5 80Q530 52 502 34Q474 16 443 5.5Q412 -5 380 -9.5Q348 -14 320 -14Z" glyph-name="Uacute" horiz-adv-x="640" unicode="&#218;" /><glyph d="M319 870Q357 870 368 878.5Q379 887 379 910H507Q507 875 497.5 849Q488 823 465.5 806.5Q443 790 407 782Q371 774 319 774Q266 774 230.5 782Q195 790 172.5 806.5Q150 823 140.5 849Q131 875 131 910H259Q259 887 270 878.5Q281 870 319 870ZM320 -14Q291 -14 259.5 -9.5Q228 -5 197 5.5Q166 16 137.5 34Q109 52 88 80Q67 108 54 146.5Q41 185 41 237V750H201V245Q201 209 211.5 186.5Q222 164 239.5 151.5Q257 139 278 135Q299 131 320 131Q341 131 362 135Q383 139 400.5 151.5Q418 164 428.5 186.5Q439 209 439 245V750H599V237Q599 186 586 147Q573 108 551.5 80Q530 52 502 34Q474 16 443 5.5Q412 -5 380 -9.5Q348 -14 320 -14Z" glyph-name="Ubreve" horiz-adv-x="640" unicode="&#364;" /><glyph d="M517 910 394 790H244L121 910H254L319 865L384 910ZM320 -14Q291 -14 259.5 -9.5Q228 -5 197 5.5Q166 16 137.5 34Q109 52 88 80Q67 108 54 146.5Q41 185 41 237V750H201V245Q201 209 211.5 186.5Q222 164 239.5 151.5Q257 139 278 135Q299 131 320 131Q341 131 362 135Q383 139 400.5 151.5Q418 164 428.5 186.5Q439 209 439 245V750H599V237Q599 186 586 147Q573 108 551.5 80Q530 52 502 34Q474 16 443 5.5Q412 -5 380 -9.5Q348 -14 320 -14Z" glyph-name="Ucaron" horiz-adv-x="640" unicode="&#467;" /><glyph d="M121 790 244 910H394L517 790H384L319 835L254 790ZM320 -14Q291 -14 259.5 -9.5Q228 -5 197 5.5Q166 16 137.5 34Q109 52 88 80Q67 108 54 146.5Q41 185 41 237V750H201V245Q201 209 211.5 186.5Q222 164 239.5 151.5Q257 139 278 135Q299 131 320 131Q341 131 362 135Q383 139 400.5 151.5Q418 164 428.5 186.5Q439 209 439 245V750H599V237Q599 186 586 147Q573 108 551.5 80Q530 52 502 34Q474 16 443 5.5Q412 -5 380 -9.5Q348 -14 320 -14Z" glyph-name="Ucircumflex" horiz-adv-x="640" unicode="&#219;" /><glyph d="M104 860Q104 900 131 927.5Q158 955 199 955Q239 955 266.5 927.5Q294 900 294 860Q294 819 266.5 792Q239 765 199 765Q158 765 131 792Q104 819 104 860ZM344 860Q344 900 371 927.5Q398 955 439 955Q479 955 506.5 927.5Q534 900 534 860Q534 819 506.5 792Q479 765 439 765Q398 765 371 792Q344 819 344 860ZM320 -14Q291 -14 259.5 -9.5Q228 -5 197 5.5Q166 16 137.5 34Q109 52 88 80Q67 108 54 146.5Q41 185 41 237V750H201V245Q201 209 211.5 186.5Q222 164 239.5 151.5Q257 139 278 135Q299 131 320 131Q341 131 362 135Q383 139 400.5 151.5Q418 164 428.5 186.5Q439 209 439 245V750H599V237Q599 186 586 147Q573 108 551.5 80Q530 52 502 34Q474 16 443 5.5Q412 -5 380 -9.5Q348 -14 320 -14Z" glyph-name="Udieresis" horiz-adv-x="640" unicode="&#220;" /><glyph d="M224 -150Q224 -110 251 -82.5Q278 -55 319 -55Q359 -55 386.5 -82.5Q414 -110 414 -150Q414 -191 386.5 -218Q359 -245 319 -245Q278 -245 251 -218Q224 -191 224 -150ZM320 -14Q291 -14 259.5 -9.5Q228 -5 197 5.5Q166 16 137.5 34Q109 52 88 80Q67 108 54 146.5Q41 185 41 237V750H201V245Q201 209 211.5 186.5Q222 164 239.5 151.5Q257 139 278 135Q299 131 320 131Q341 131 362 135Q383 139 400.5 151.5Q418 164 428.5 186.5Q439 209 439 245V750H599V237Q599 186 586 147Q573 108 551.5 80Q530 52 502 34Q474 16 443 5.5Q412 -5 380 -9.5Q348 -14 320 -14Z" glyph-name="Udotbelow" horiz-adv-x="640" unicode="&#7908;" /><glyph d="M365 790 265 910H435L485 790ZM175 790 75 910H245L295 790ZM320 -14Q291 -14 259.5 -9.5Q228 -5 197 5.5Q166 16 137.5 34Q109 52 88 80Q67 108 54 146.5Q41 185 41 237V750H201V245Q201 209 211.5 186.5Q222 164 239.5 151.5Q257 139 278 135Q299 131 320 131Q341 131 362 135Q383 139 400.5 151.5Q418 164 428.5 186.5Q439 209 439 245V750H599V237Q599 186 586 147Q573 108 551.5 80Q530 52 502 34Q474 16 443 5.5Q412 -5 380 -9.5Q348 -14 320 -14Z" glyph-name="Udoublegrave" horiz-adv-x="640" unicode="&#57378;" /><glyph d="M265 790 165 910H335L385 790ZM320 -14Q291 -14 259.5 -9.5Q228 -5 197 5.5Q166 16 137.5 34Q109 52 88 80Q67 108 54 146.5Q41 185 41 237V750H201V245Q201 209 211.5 186.5Q222 164 239.5 151.5Q257 139 278 135Q299 131 320 131Q341 131 362 135Q383 139 400.5 151.5Q418 164 428.5 186.5Q439 209 439 245V750H599V237Q599 186 586 147Q573 108 551.5 80Q530 52 502 34Q474 16 443 5.5Q412 -5 380 -9.5Q348 -14 320 -14Z" glyph-name="Ugrave" horiz-adv-x="640" unicode="&#217;" /><glyph d="M154 790 204 910H374L274 790ZM344 790 394 910H564L464 790ZM320 -14Q291 -14 259.5 -9.5Q228 -5 197 5.5Q166 16 137.5 34Q109 52 88 80Q67 108 54 146.5Q41 185 41 237V750H201V245Q201 209 211.5 186.5Q222 164 239.5 151.5Q257 139 278 135Q299 131 320 131Q341 131 362 135Q383 139 400.5 151.5Q418 164 428.5 186.5Q439 209 439 245V750H599V237Q599 186 586 147Q573 108 551.5 80Q530 52 502 34Q474 16 443 5.5Q412 -5 380 -9.5Q348 -14 320 -14Z" glyph-name="Uhungarumlaut" horiz-adv-x="640" unicode="&#368;" /><glyph d="M319 830Q281 830 270 821.5Q259 813 259 790H131Q131 825 140.5 851Q150 877 172.5 893.5Q195 910 230.5 918Q266 926 319 926Q371 926 407 918Q443 910 465.5 893.5Q488 877 497.5 851Q507 825 507 790H379Q379 813 368 821.5Q357 830 319 830ZM320 -14Q291 -14 259.5 -9.5Q228 -5 197 5.5Q166 16 137.5 34Q109 52 88 80Q67 108 54 146.5Q41 185 41 237V750H201V245Q201 209 211.5 186.5Q222 164 239.5 151.5Q257 139 278 135Q299 131 320 131Q341 131 362 135Q383 139 400.5 151.5Q418 164 428.5 186.5Q439 209 439 245V750H599V237Q599 186 586 147Q573 108 551.5 80Q530 52 502 34Q474 16 443 5.5Q412 -5 380 -9.5Q348 -14 320 -14Z" glyph-name="Uinvertedbreve" horiz-adv-x="640" unicode="&#534;" /><glyph d="M475 790H163V910H475ZM320 -14Q291 -14 259.5 -9.5Q228 -5 197 5.5Q166 16 137.5 34Q109 52 88 80Q67 108 54 146.5Q41 185 41 237V750H201V245Q201 209 211.5 186.5Q222 164 239.5 151.5Q257 139 278 135Q299 131 320 131Q341 131 362 135Q383 139 400.5 151.5Q418 164 428.5 186.5Q439 209 439 245V750H599V237Q599 186 586 147Q573 108 551.5 80Q530 52 502 34Q474 16 443 5.5Q412 -5 380 -9.5Q348 -14 320 -14Z" glyph-name="Umacron" horiz-adv-x="640" unicode="&#362;" /><glyph d="M475 -210H163V-90H475ZM320 -14Q291 -14 259.5 -9.5Q228 -5 197 5.5Q166 16 137.5 34Q109 52 88 80Q67 108 54 146.5Q41 185 41 237V750H201V245Q201 209 211.5 186.5Q222 164 239.5 151.5Q257 139 278 135Q299 131 320 131Q341 131 362 135Q383 139 400.5 151.5Q418 164 428.5 186.5Q439 209 439 245V750H599V237Q599 186 586 147Q573 108 551.5 80Q530 52 502 34Q474 16 443 5.5Q412 -5 380 -9.5Q348 -14 320 -14Z" glyph-name="Umacronbelow" horiz-adv-x="640" unicode="&#57379;" /><glyph d="M208 -127Q208 -88 225.5 -59.5Q243 -31 270 -11Q230 -7 189 7.5Q148 22 115 50.5Q82 79 61.5 124.5Q41 170 41 237V750H201V245Q201 209 211.5 186.5Q222 164 239.5 151.5Q257 139 278 135Q299 131 320 131Q341 131 362 135Q383 139 400.5 151.5Q418 164 428.5 186.5Q439 209 439 245V750H599V237Q599 180 583.5 139Q568 98 543 69.5Q518 41 485 24Q452 7 418 -2Q398 -8 381.5 -20.5Q365 -33 353 -47.5Q341 -62 334.5 -78Q328 -94 328 -107Q328 -129 344.5 -141Q361 -153 387 -153Q412 -153 429.5 -148.5Q447 -144 455 -141V-231Q444 -236 422 -243Q400 -250 355 -250Q327 -250 300.5 -243Q274 -236 253.5 -221Q233 -206 220.5 -182.5Q208 -159 208 -127Z" glyph-name="Uogonek" horiz-adv-x="640" unicode="&#370;" /><glyph d="M425 860Q425 806 396 785.5Q367 765 319 765Q271 765 242 785.5Q213 806 213 860Q213 914 242 934.5Q271 955 319 955Q367 955 396 934.5Q425 914 425 860ZM297 860Q297 849 319 849Q341 849 341 860Q341 871 319 871Q297 871 297 860ZM320 -14Q291 -14 259.5 -9.5Q228 -5 197 5.5Q166 16 137.5 34Q109 52 88 80Q67 108 54 146.5Q41 185 41 237V750H201V245Q201 209 211.5 186.5Q222 164 239.5 151.5Q257 139 278 135Q299 131 320 131Q341 131 362 135Q383 139 400.5 151.5Q418 164 428.5 186.5Q439 209 439 245V750H599V237Q599 186 586 147Q573 108 551.5 80Q530 52 502 34Q474 16 443 5.5Q412 -5 380 -9.5Q348 -14 320 -14Z" glyph-name="Uring" horiz-adv-x="640" unicode="&#366;" /><glyph d="M104 790Q104 935 234 935Q266 935 289.5 925.5Q313 916 332 904.5Q351 893 368 883.5Q385 874 403 874Q426 874 436.5 884.5Q447 895 447 910H534Q534 765 404 765Q372 765 348.5 774.5Q325 784 306 795.5Q287 807 270 816.5Q253 826 235 826Q212 826 201.5 815.5Q191 805 191 790ZM320 -14Q291 -14 259.5 -9.5Q228 -5 197 5.5Q166 16 137.5 34Q109 52 88 80Q67 108 54 146.5Q41 185 41 237V750H201V245Q201 209 211.5 186.5Q222 164 239.5 151.5Q257 139 278 135Q299 131 320 131Q341 131 362 135Q383 139 400.5 151.5Q418 164 428.5 186.5Q439 209 439 245V750H599V237Q599 186 586 147Q573 108 551.5 80Q530 52 502 34Q474 16 443 5.5Q412 -5 380 -9.5Q348 -14 320 -14Z" glyph-name="Utilde" horiz-adv-x="640" unicode="&#360;" /><glyph d="M620 750 412 -4H228L20 750H190L320 179L450 750Z" glyph-name="V" horiz-adv-x="640" unicode="V" /><glyph d="M550 750 633 227 694 750H865L749 -4H541L445 559L349 -4H141L25 750H196L257 227L340 750Z" glyph-name="W" horiz-adv-x="890" unicode="W" /><glyph d="M383 790 433 910H603L503 790ZM550 750 633 227 694 750H865L749 -4H541L445 559L349 -4H141L25 750H196L257 227L340 750Z" glyph-name="Wacute" horiz-adv-x="890" unicode="&#7810;" /><glyph d="M247 790 370 910H520L643 790H510L445 835L380 790ZM550 750 633 227 694 750H865L749 -4H541L445 559L349 -4H141L25 750H196L257 227L340 750Z" glyph-name="Wcircumflex" horiz-adv-x="890" unicode="&#372;" /><glyph d="M230 860Q230 900 257 927.5Q284 955 325 955Q365 955 392.5 927.5Q420 900 420 860Q420 819 392.5 792Q365 765 325 765Q284 765 257 792Q230 819 230 860ZM470 860Q470 900 497 927.5Q524 955 565 955Q605 955 632.5 927.5Q660 900 660 860Q660 819 632.5 792Q605 765 565 765Q524 765 497 792Q470 819 470 860ZM550 750 633 227 694 750H865L749 -4H541L445 559L349 -4H141L25 750H196L257 227L340 750Z" glyph-name="Wdieresis" horiz-adv-x="890" unicode="&#7812;" /><glyph d="M388 790 288 910H458L508 790ZM550 750 633 227 694 750H865L749 -4H541L445 559L349 -4H141L25 750H196L257 227L340 750Z" glyph-name="Wgrave" horiz-adv-x="890" unicode="&#7808;" /><glyph d="M338 269 207 0H19L226 390L32 750H216L338 482L460 750H644L450 390L657 0H469Z" glyph-name="X" horiz-adv-x="678" unicode="X" /><glyph d="M409 291V0H247V291L9 750H192L328 437L464 750H647Z" glyph-name="Y" horiz-adv-x="656" unicode="Y" /><glyph d="M263 790 313 910H483L383 790ZM409 291V0H247V291L9 750H192L328 437L464 750H647Z" glyph-name="Yacute" horiz-adv-x="656" unicode="&#221;" /><glyph d="M130 790 253 910H403L526 790H393L328 835L263 790ZM409 291V0H247V291L9 750H192L328 437L464 750H647Z" glyph-name="Ycircumflex" horiz-adv-x="656" unicode="&#374;" /><glyph d="M113 860Q113 900 140 927.5Q167 955 208 955Q248 955 275.5 927.5Q303 900 303 860Q303 819 275.5 792Q248 765 208 765Q167 765 140 792Q113 819 113 860ZM353 860Q353 900 380 927.5Q407 955 448 955Q488 955 515.5 927.5Q543 900 543 860Q543 819 515.5 792Q488 765 448 765Q407 765 380 792Q353 819 353 860ZM409 291V0H247V291L9 750H192L328 437L464 750H647Z" glyph-name="Ydieresis" horiz-adv-x="656" unicode="&#376;" /><glyph d="M274 790 174 910H344L394 790ZM409 291V0H247V291L9 750H192L328 437L464 750H647Z" glyph-name="Ygrave" horiz-adv-x="656" unicode="&#7922;" /><glyph d="M484 790H172V910H484ZM409 291V0H247V291L9 750H192L328 437L464 750H647Z" glyph-name="Ymacron" horiz-adv-x="656" unicode="&#57380;" /><glyph d="M113 790Q113 935 243 935Q275 935 298.5 925.5Q322 916 341 904.5Q360 893 377 883.5Q394 874 412 874Q435 874 445.5 884.5Q456 895 456 910H543Q543 765 413 765Q381 765 357.5 774.5Q334 784 315 795.5Q296 807 279 816.5Q262 826 244 826Q221 826 210.5 815.5Q200 805 200 790ZM409 291V0H247V291L9 750H192L328 437L464 750H647Z" glyph-name="Ytilde" horiz-adv-x="656" unicode="&#7928;" /><glyph d="M30 0V106L365 596L60 593V750H584V644L249 154L599 157V0Z" glyph-name="Z" horiz-adv-x="629" unicode="Z" /><glyph d="M255 790 305 910H475L375 790ZM30 0V106L365 596L60 593V750H584V644L249 154L599 157V0Z" glyph-name="Zacute" horiz-adv-x="630" unicode="&#377;" /><glyph d="M518 910 395 790H245L122 910H255L320 865L385 910ZM30 0V106L365 596L60 593V750H584V644L249 154L599 157V0Z" glyph-name="Zcaron" horiz-adv-x="630" unicode="&#142;" /><glyph d="M225 860Q225 900 252 927.5Q279 955 320 955Q360 955 387.5 927.5Q415 900 415 860Q415 819 387.5 792Q360 765 320 765Q279 765 252 792Q225 819 225 860ZM30 0V106L365 596L60 593V750H584V644L249 154L599 157V0Z" glyph-name="Zdotaccent" horiz-adv-x="630" unicode="&#379;" /><glyph d="M303 350Q303 367 289.5 376Q276 385 244 385Q220 385 195.5 381.5Q171 378 147 373Q123 368 101.5 361Q80 354 64 347V481Q77 487 96.5 492.5Q116 498 140 503Q164 508 190.5 511Q217 514 244 514Q311 514 353 500Q395 486 418.5 461.5Q442 437 450 402Q458 367 458 325V0H362L340 38Q313 14 275.5 0Q238 -14 193 -14Q145 -14 112.5 0.5Q80 15 60 37.5Q40 60 31.5 88.5Q23 117 23 145Q23 196 40 226.5Q57 257 84 274Q111 291 144.5 298.5Q178 306 212 309L303 318ZM236 222Q202 217 187.5 200.5Q173 184 173 155Q173 127 189 111.5Q205 96 231 96Q253 96 272 102Q291 108 303 120V231Z" glyph-name="a" horiz-adv-x="498" unicode="a" /><glyph d="M344 363Q334 369 323 373Q313 377 300.5 380.5Q288 384 273 384Q245 384 227.5 375Q210 366 200 349Q190 332 186.5 307Q183 282 183 250Q183 218 186.5 193Q190 168 200 151Q210 134 227.5 125Q245 116 273 116Q288 116 300.5 119Q313 122 323 126Q334 130 344 137ZM504 0H408L381 40Q355 17 317 1.5Q279 -14 219 -14Q121 -14 73 49Q25 112 25 250Q25 388 73 451Q121 514 219 514Q279 514 317 498.5Q355 483 381 460L408 500H504Z" glyph-name="a.school" horiz-adv-x="549" unicode="&#57418;" /><glyph d="M376 0 356 80H210L190 0H5L180 508H386L561 0ZM238 194H328L283 380Z" glyph-name="a.small" horiz-adv-x="566" unicode="&#57452;" /><glyph d="M10 413Q10 458 35.5 476Q61 494 109 498L150 502Q150 507 145.5 510.5Q141 514 121 514Q95 514 70.5 508Q46 502 27 494L25 581Q43 589 76 594.5Q109 600 143 600Q178 600 199.5 593.5Q221 587 233 575Q245 563 249.5 545.5Q254 528 254 506V341H174L166 354Q156 346 139.5 339Q123 332 94 332Q49 332 29.5 353Q10 374 10 413ZM128 447Q106 444 106 425Q106 414 111.5 410Q117 406 125 406Q131 406 139 408Q147 410 151 413V449Z" glyph-name="a.superior" horiz-adv-x="271" unicode="&#57657;" /><glyph d="M185 550 250 750H410L305 550ZM303 350Q303 367 289.5 376Q276 385 244 385Q220 385 195.5 381.5Q171 378 147 373Q123 368 101.5 361Q80 354 64 347V481Q77 487 96.5 492.5Q116 498 140 503Q164 508 190.5 511Q217 514 244 514Q311 514 353 500Q395 486 418.5 461.5Q442 437 450 402Q458 367 458 325V0H362L340 38Q313 14 275.5 0Q238 -14 193 -14Q145 -14 112.5 0.5Q80 15 60 37.5Q40 60 31.5 88.5Q23 117 23 145Q23 196 40 226.5Q57 257 84 274Q111 291 144.5 298.5Q178 306 212 309L303 318ZM236 222Q202 217 187.5 200.5Q173 184 173 155Q173 127 189 111.5Q205 96 231 96Q253 96 272 102Q291 108 303 120V231Z" glyph-name="aacute" horiz-adv-x="498" unicode="&#225;" /><glyph d="M344 363Q334 369 323 373Q313 377 300.5 380.5Q288 384 273 384Q245 384 227.5 375Q210 366 200 349Q190 332 186.5 307Q183 282 183 250Q183 218 186.5 193Q190 168 200 151Q210 134 227.5 125Q245 116 273 116Q288 116 300.5 119Q313 122 323 126Q334 130 344 137ZM504 0H408L381 40Q355 17 317 1.5Q279 -14 219 -14Q121 -14 73 49Q25 112 25 250Q25 388 73 451Q121 514 219 514Q279 514 317 498.5Q355 483 381 460L408 500H504ZM205 550 270 750H430L325 550Z" glyph-name="aacute.school" horiz-adv-x="549" unicode="&#57419;" /><glyph d="M223 550 288 750H448L343 550ZM376 0 356 80H210L190 0H5L180 508H386L561 0ZM238 194H328L283 380Z" glyph-name="aacute.small" horiz-adv-x="566" unicode="&#57478;" /><glyph d="M250 664Q271 664 286.5 667.5Q302 671 311.5 680.5Q321 690 325.5 707Q330 724 330 750H448Q448 692 435.5 653.5Q423 615 398 592Q373 569 336 559.5Q299 550 250 550Q201 550 164 559.5Q127 569 102 592Q77 615 64.5 653.5Q52 692 52 750H170Q170 724 174.5 707Q179 690 188.5 680.5Q198 671 213.5 667.5Q229 664 250 664ZM303 350Q303 367 289.5 376Q276 385 244 385Q220 385 195.5 381.5Q171 378 147 373Q123 368 101.5 361Q80 354 64 347V481Q77 487 96.5 492.5Q116 498 140 503Q164 508 190.5 511Q217 514 244 514Q311 514 353 500Q395 486 418.5 461.5Q442 437 450 402Q458 367 458 325V0H362L340 38Q313 14 275.5 0Q238 -14 193 -14Q145 -14 112.5 0.5Q80 15 60 37.5Q40 60 31.5 88.5Q23 117 23 145Q23 196 40 226.5Q57 257 84 274Q111 291 144.5 298.5Q178 306 212 309L303 318ZM236 222Q202 217 187.5 200.5Q173 184 173 155Q173 127 189 111.5Q205 96 231 96Q253 96 272 102Q291 108 303 120V231Z" glyph-name="abreve" horiz-adv-x="498" unicode="&#259;" /><glyph d="M344 363Q334 369 323 373Q313 377 300.5 380.5Q288 384 273 384Q245 384 227.5 375Q210 366 200 349Q190 332 186.5 307Q183 282 183 250Q183 218 186.5 193Q190 168 200 151Q210 134 227.5 125Q245 116 273 116Q288 116 300.5 119Q313 122 323 126Q334 130 344 137ZM504 0H408L381 40Q355 17 317 1.5Q279 -14 219 -14Q121 -14 73 49Q25 112 25 250Q25 388 73 451Q121 514 219 514Q279 514 317 498.5Q355 483 381 460L408 500H504ZM270 664Q291 664 306.5 667.5Q322 671 331.5 680.5Q341 690 345.5 707Q350 724 350 750H468Q468 692 455.5 653.5Q443 615 418 592Q393 569 356 559.5Q319 550 270 550Q221 550 184 559.5Q147 569 122 592Q97 615 84.5 653.5Q72 692 72 750H190Q190 724 194.5 707Q199 690 208.5 680.5Q218 671 233.5 667.5Q249 664 270 664Z" glyph-name="abreve.school" horiz-adv-x="549" unicode="&#57427;" /><glyph d="M283 664Q304 664 319.5 667.5Q335 671 344.5 680.5Q354 690 358.5 707Q363 724 363 750H481Q481 692 468.5 653.5Q456 615 431 592Q406 569 369 559.5Q332 550 283 550Q234 550 197 559.5Q160 569 135 592Q110 615 97.5 653.5Q85 692 85 750H203Q203 724 207.5 707Q212 690 221.5 680.5Q231 671 246.5 667.5Q262 664 283 664ZM376 0 356 80H210L190 0H5L180 508H386L561 0ZM238 194H328L283 380Z" glyph-name="abreve.small" horiz-adv-x="566" unicode="&#57486;" /><glyph d="M458 750 325 550H175L42 750H165L250 655L335 750ZM303 350Q303 367 289.5 376Q276 385 244 385Q220 385 195.5 381.5Q171 378 147 373Q123 368 101.5 361Q80 354 64 347V481Q77 487 96.5 492.5Q116 498 140 503Q164 508 190.5 511Q217 514 244 514Q311 514 353 500Q395 486 418.5 461.5Q442 437 450 402Q458 367 458 325V0H362L340 38Q313 14 275.5 0Q238 -14 193 -14Q145 -14 112.5 0.5Q80 15 60 37.5Q40 60 31.5 88.5Q23 117 23 145Q23 196 40 226.5Q57 257 84 274Q111 291 144.5 298.5Q178 306 212 309L303 318ZM236 222Q202 217 187.5 200.5Q173 184 173 155Q173 127 189 111.5Q205 96 231 96Q253 96 272 102Q291 108 303 120V231Z" glyph-name="acaron" horiz-adv-x="498" unicode="&#462;" /><glyph d="M344 363Q334 369 323 373Q313 377 300.5 380.5Q288 384 273 384Q245 384 227.5 375Q210 366 200 349Q190 332 186.5 307Q183 282 183 250Q183 218 186.5 193Q190 168 200 151Q210 134 227.5 125Q245 116 273 116Q288 116 300.5 119Q313 122 323 126Q334 130 344 137ZM504 0H408L381 40Q355 17 317 1.5Q279 -14 219 -14Q121 -14 73 49Q25 112 25 250Q25 388 73 451Q121 514 219 514Q279 514 317 498.5Q355 483 381 460L408 500H504ZM478 750 345 550H195L62 750H185L270 655L355 750Z" glyph-name="acaron.school" horiz-adv-x="549" unicode="&#57425;" /><glyph d="M491 750 358 550H208L75 750H198L283 655L368 750ZM376 0 356 80H210L190 0H5L180 508H386L561 0ZM238 194H328L283 380Z" glyph-name="acaron.small" horiz-adv-x="566" unicode="&#57484;" /><glyph d="M42 550 175 750H325L458 550H335L250 645L165 550ZM303 350Q303 367 289.5 376Q276 385 244 385Q220 385 195.5 381.5Q171 378 147 373Q123 368 101.5 361Q80 354 64 347V481Q77 487 96.5 492.5Q116 498 140 503Q164 508 190.5 511Q217 514 244 514Q311 514 353 500Q395 486 418.5 461.5Q442 437 450 402Q458 367 458 325V0H362L340 38Q313 14 275.5 0Q238 -14 193 -14Q145 -14 112.5 0.5Q80 15 60 37.5Q40 60 31.5 88.5Q23 117 23 145Q23 196 40 226.5Q57 257 84 274Q111 291 144.5 298.5Q178 306 212 309L303 318ZM236 222Q202 217 187.5 200.5Q173 184 173 155Q173 127 189 111.5Q205 96 231 96Q253 96 272 102Q291 108 303 120V231Z" glyph-name="acircumflex" horiz-adv-x="498" unicode="&#226;" /><glyph d="M344 363Q334 369 323 373Q313 377 300.5 380.5Q288 384 273 384Q245 384 227.5 375Q210 366 200 349Q190 332 186.5 307Q183 282 183 250Q183 218 186.5 193Q190 168 200 151Q210 134 227.5 125Q245 116 273 116Q288 116 300.5 119Q313 122 323 126Q334 130 344 137ZM504 0H408L381 40Q355 17 317 1.5Q279 -14 219 -14Q121 -14 73 49Q25 112 25 250Q25 388 73 451Q121 514 219 514Q279 514 317 498.5Q355 483 381 460L408 500H504ZM62 550 195 750H345L478 550H355L270 645L185 550Z" glyph-name="acircumflex.school" horiz-adv-x="549" unicode="&#57421;" /><glyph d="M76 550 209 750H359L492 550H369L284 645L199 550ZM376 0 356 80H210L190 0H5L180 508H386L561 0ZM238 194H328L283 380Z" glyph-name="acircumflex.small" horiz-adv-x="566" unicode="&#57480;" /><glyph d="M185 550 250 750H410L305 550Z" glyph-name="acute" horiz-adv-x="500" unicode="&#180;" /><glyph d="M185 790 235 910H405L305 790Z" glyph-name="acute.cap" horiz-adv-x="500" unicode="&#57703;" /><glyph d="M35 645Q35 685 62 712.5Q89 740 130 740Q170 740 197.5 712.5Q225 685 225 645Q225 604 197.5 577Q170 550 130 550Q89 550 62 577Q35 604 35 645ZM275 645Q275 685 302 712.5Q329 740 370 740Q410 740 437.5 712.5Q465 685 465 645Q465 604 437.5 577Q410 550 370 550Q329 550 302 577Q275 604 275 645ZM303 350Q303 367 289.5 376Q276 385 244 385Q220 385 195.5 381.5Q171 378 147 373Q123 368 101.5 361Q80 354 64 347V481Q77 487 96.5 492.5Q116 498 140 503Q164 508 190.5 511Q217 514 244 514Q311 514 353 500Q395 486 418.5 461.5Q442 437 450 402Q458 367 458 325V0H362L340 38Q313 14 275.5 0Q238 -14 193 -14Q145 -14 112.5 0.5Q80 15 60 37.5Q40 60 31.5 88.5Q23 117 23 145Q23 196 40 226.5Q57 257 84 274Q111 291 144.5 298.5Q178 306 212 309L303 318ZM236 222Q202 217 187.5 200.5Q173 184 173 155Q173 127 189 111.5Q205 96 231 96Q253 96 272 102Q291 108 303 120V231Z" glyph-name="adieresis" horiz-adv-x="498" unicode="&#228;" /><glyph d="M55 645Q55 685 82 712.5Q109 740 150 740Q190 740 217.5 712.5Q245 685 245 645Q245 604 217.5 577Q190 550 150 550Q109 550 82 577Q55 604 55 645ZM295 645Q295 685 322 712.5Q349 740 390 740Q430 740 457.5 712.5Q485 685 485 645Q485 604 457.5 577Q430 550 390 550Q349 550 322 577Q295 604 295 645ZM344 363Q334 369 323 373Q313 377 300.5 380.5Q288 384 273 384Q245 384 227.5 375Q210 366 200 349Q190 332 186.5 307Q183 282 183 250Q183 218 186.5 193Q190 168 200 151Q210 134 227.5 125Q245 116 273 116Q288 116 300.5 119Q313 122 323 126Q334 130 344 137ZM504 0H408L381 40Q355 17 317 1.5Q279 -14 219 -14Q121 -14 73 49Q25 112 25 250Q25 388 73 451Q121 514 219 514Q279 514 317 498.5Q355 483 381 460L408 500H504Z" glyph-name="adieresis.school" horiz-adv-x="549" unicode="&#57422;" /><glyph d="M68 645Q68 685 95 712.5Q122 740 163 740Q203 740 230.5 712.5Q258 685 258 645Q258 604 230.5 577Q203 550 163 550Q122 550 95 577Q68 604 68 645ZM308 645Q308 685 335 712.5Q362 740 403 740Q443 740 470.5 712.5Q498 685 498 645Q498 604 470.5 577Q443 550 403 550Q362 550 335 577Q308 604 308 645ZM376 0 356 80H210L190 0H5L180 508H386L561 0ZM238 194H328L283 380Z" glyph-name="adieresis.small" horiz-adv-x="566" unicode="&#57481;" /><glyph d="M35 625Q35 665 62 692.5Q89 720 130 720Q170 720 197.5 692.5Q225 665 225 625Q225 584 197.5 557Q170 530 130 530Q89 530 62 557Q35 584 35 625ZM275 625Q275 665 302 692.5Q329 720 370 720Q410 720 437.5 692.5Q465 665 465 625Q465 584 437.5 557Q410 530 370 530Q329 530 302 557Q275 584 275 625ZM406 735H94V855H406ZM303 350Q303 367 289.5 376Q276 385 244 385Q220 385 195.5 381.5Q171 378 147 373Q123 368 101.5 361Q80 354 64 347V481Q77 487 96.5 492.5Q116 498 140 503Q164 508 190.5 511Q217 514 244 514Q311 514 353 500Q395 486 418.5 461.5Q442 437 450 402Q458 367 458 325V0H362L340 38Q313 14 275.5 0Q238 -14 193 -14Q145 -14 112.5 0.5Q80 15 60 37.5Q40 60 31.5 88.5Q23 117 23 145Q23 196 40 226.5Q57 257 84 274Q111 291 144.5 298.5Q178 306 212 309L303 318ZM236 222Q202 217 187.5 200.5Q173 184 173 155Q173 127 189 111.5Q205 96 231 96Q253 96 272 102Q291 108 303 120V231Z" glyph-name="adieresismacron" horiz-adv-x="498" unicode="&#479;" /><glyph d="M55 625Q55 665 82 692.5Q109 720 150 720Q190 720 217.5 692.5Q245 665 245 625Q245 584 217.5 557Q190 530 150 530Q109 530 82 557Q55 584 55 625ZM295 625Q295 665 322 692.5Q349 720 390 720Q430 720 457.5 692.5Q485 665 485 625Q485 584 457.5 557Q430 530 390 530Q349 530 322 557Q295 584 295 625ZM426 735H114V855H426ZM344 363Q334 369 323 373Q313 377 300.5 380.5Q288 384 273 384Q245 384 227.5 375Q210 366 200 349Q190 332 186.5 307Q183 282 183 250Q183 218 186.5 193Q190 168 200 151Q210 134 227.5 125Q245 116 273 116Q288 116 300.5 119Q313 122 323 126Q334 130 344 137ZM504 0H408L381 40Q355 17 317 1.5Q279 -14 219 -14Q121 -14 73 49Q25 112 25 250Q25 388 73 451Q121 514 219 514Q279 514 317 498.5Q355 483 381 460L408 500H504Z" glyph-name="adieresismacron.school" horiz-adv-x="549" unicode="&#57432;" /><glyph d="M68 625Q68 665 95 692.5Q122 720 163 720Q203 720 230.5 692.5Q258 665 258 625Q258 584 230.5 557Q203 530 163 530Q122 530 95 557Q68 584 68 625ZM308 625Q308 665 335 692.5Q362 720 403 720Q443 720 470.5 692.5Q498 665 498 625Q498 584 470.5 557Q443 530 403 530Q362 530 335 557Q308 584 308 625ZM439 735H127V855H439ZM376 0 356 80H210L190 0H5L180 508H386L561 0ZM238 194H328L283 380Z" glyph-name="adieresismacron.small" horiz-adv-x="566" unicode="&#57491;" /><glyph d="M155 645Q155 685 182 712.5Q209 740 250 740Q290 740 317.5 712.5Q345 685 345 645Q345 604 317.5 577Q290 550 250 550Q209 550 182 577Q155 604 155 645ZM303 350Q303 367 289.5 376Q276 385 244 385Q220 385 195.5 381.5Q171 378 147 373Q123 368 101.5 361Q80 354 64 347V481Q77 487 96.5 492.5Q116 498 140 503Q164 508 190.5 511Q217 514 244 514Q311 514 353 500Q395 486 418.5 461.5Q442 437 450 402Q458 367 458 325V0H362L340 38Q313 14 275.5 0Q238 -14 193 -14Q145 -14 112.5 0.5Q80 15 60 37.5Q40 60 31.5 88.5Q23 117 23 145Q23 196 40 226.5Q57 257 84 274Q111 291 144.5 298.5Q178 306 212 309L303 318ZM236 222Q202 217 187.5 200.5Q173 184 173 155Q173 127 189 111.5Q205 96 231 96Q253 96 272 102Q291 108 303 120V231Z" glyph-name="adotabove" horiz-adv-x="498" unicode="&#57382;" /><glyph d="M175 645Q175 685 202 712.5Q229 740 270 740Q310 740 337.5 712.5Q365 685 365 645Q365 604 337.5 577Q310 550 270 550Q229 550 202 577Q175 604 175 645ZM344 363Q334 369 323 373Q313 377 300.5 380.5Q288 384 273 384Q245 384 227.5 375Q210 366 200 349Q190 332 186.5 307Q183 282 183 250Q183 218 186.5 193Q190 168 200 151Q210 134 227.5 125Q245 116 273 116Q288 116 300.5 119Q313 122 323 126Q334 130 344 137ZM504 0H408L381 40Q355 17 317 1.5Q279 -14 219 -14Q121 -14 73 49Q25 112 25 250Q25 388 73 451Q121 514 219 514Q279 514 317 498.5Q355 483 381 460L408 500H504Z" glyph-name="adotabove.school" horiz-adv-x="549" unicode="&#57430;" /><glyph d="M188 645Q188 685 215 712.5Q242 740 283 740Q323 740 350.5 712.5Q378 685 378 645Q378 604 350.5 577Q323 550 283 550Q242 550 215 577Q188 604 188 645ZM376 0 356 80H210L190 0H5L180 508H386L561 0ZM238 194H328L283 380Z" glyph-name="adotabove.small" horiz-adv-x="566" unicode="&#57489;" /><glyph d="M286 550 181 750H341L406 550ZM106 550 1 750H161L226 550ZM303 350Q303 367 289.5 376Q276 385 244 385Q220 385 195.5 381.5Q171 378 147 373Q123 368 101.5 361Q80 354 64 347V481Q77 487 96.5 492.5Q116 498 140 503Q164 508 190.5 511Q217 514 244 514Q311 514 353 500Q395 486 418.5 461.5Q442 437 450 402Q458 367 458 325V0H362L340 38Q313 14 275.5 0Q238 -14 193 -14Q145 -14 112.5 0.5Q80 15 60 37.5Q40 60 31.5 88.5Q23 117 23 145Q23 196 40 226.5Q57 257 84 274Q111 291 144.5 298.5Q178 306 212 309L303 318ZM236 222Q202 217 187.5 200.5Q173 184 173 155Q173 127 189 111.5Q205 96 231 96Q253 96 272 102Q291 108 303 120V231Z" glyph-name="adoublegrave" horiz-adv-x="498" unicode="&#57381;" /><glyph d="M344 363Q334 369 323 373Q313 377 300.5 380.5Q288 384 273 384Q245 384 227.5 375Q210 366 200 349Q190 332 186.5 307Q183 282 183 250Q183 218 186.5 193Q190 168 200 151Q210 134 227.5 125Q245 116 273 116Q288 116 300.5 119Q313 122 323 126Q334 130 344 137ZM504 0H408L381 40Q355 17 317 1.5Q279 -14 219 -14Q121 -14 73 49Q25 112 25 250Q25 388 73 451Q121 514 219 514Q279 514 317 498.5Q355 483 381 460L408 500H504ZM306 550 201 750H361L426 550ZM126 550 21 750H181L246 550Z" glyph-name="adoublegrave.school" horiz-adv-x="549" unicode="&#57429;" /><glyph d="M319 550 214 750H374L439 550ZM139 550 34 750H194L259 550ZM376 0 356 80H210L190 0H5L180 508H386L561 0ZM238 194H328L283 380Z" glyph-name="adoublegrave.small" horiz-adv-x="566" unicode="&#57488;" /><glyph d="M318 129Q314 142 310 164Q306 186 304 202H235Q206 202 189.5 189Q173 176 173 148Q173 129 187.5 112.5Q202 96 231 96Q260 96 281 105.5Q302 115 318 129ZM303 350Q303 367 289.5 376Q276 385 244 385Q220 385 195.5 381.5Q171 378 147 373Q123 368 101.5 361Q80 354 64 347V481Q77 487 96.5 492.5Q116 498 140 503Q164 508 190.5 511Q217 514 244 514Q295 514 331.5 504Q368 494 393 477Q446 514 536 514Q616 514 661.5 487.5Q707 461 729 417Q751 373 754 317Q757 261 752 202H460Q457 153 483 133Q509 113 568 113Q625 113 666.5 122.5Q708 132 735 146V21Q691 3 641.5 -5.5Q592 -14 547 -14Q430 -14 371 42Q329 8 281.5 -3Q234 -14 193 -14Q145 -14 112.5 0.5Q80 15 60 37.5Q40 60 31.5 88.5Q23 117 23 145Q23 194 40 224.5Q57 255 84.5 272Q112 289 146.5 294.5Q181 300 216 300H303ZM538 394Q497 394 478.5 371Q460 348 460 300H602Q609 341 596.5 367.5Q584 394 538 394Z" glyph-name="ae" horiz-adv-x="786" unicode="&#230;" /><glyph d="M703 187H506L517 132H731V0H376L362 80H209L181 0H0L225 500H731V368H469L480 313H703ZM248 194H339L309 371Z" glyph-name="ae.small" horiz-adv-x="770" unicode="&#57494;" /><glyph d="M330 550 395 750H555L450 550ZM318 129Q314 142 310 164Q306 186 304 202H235Q206 202 189.5 189Q173 176 173 148Q173 129 187.5 112.5Q202 96 231 96Q260 96 281 105.5Q302 115 318 129ZM303 350Q303 367 289.5 376Q276 385 244 385Q220 385 195.5 381.5Q171 378 147 373Q123 368 101.5 361Q80 354 64 347V481Q77 487 96.5 492.5Q116 498 140 503Q164 508 190.5 511Q217 514 244 514Q295 514 331.5 504Q368 494 393 477Q446 514 536 514Q616 514 661.5 487.5Q707 461 729 417Q751 373 754 317Q757 261 752 202H460Q457 153 483 133Q509 113 568 113Q625 113 666.5 122.5Q708 132 735 146V21Q691 3 641.5 -5.5Q592 -14 547 -14Q430 -14 371 42Q329 8 281.5 -3Q234 -14 193 -14Q145 -14 112.5 0.5Q80 15 60 37.5Q40 60 31.5 88.5Q23 117 23 145Q23 194 40 224.5Q57 255 84.5 272Q112 289 146.5 294.5Q181 300 216 300H303ZM538 394Q497 394 478.5 371Q460 348 460 300H602Q609 341 596.5 367.5Q584 394 538 394Z" glyph-name="aeacute" horiz-adv-x="786" unicode="&#509;" /><glyph d="M299 550 364 750H524L419 550ZM703 187H506L517 132H731V0H376L362 80H209L181 0H0L225 500H731V368H469L480 313H703ZM248 194H339L309 371Z" glyph-name="aeacute.small" horiz-adv-x="770" unicode="&#57495;" /><glyph d="M551 585H239V705H551ZM318 129Q314 142 310 164Q306 186 304 202H235Q206 202 189.5 189Q173 176 173 148Q173 129 187.5 112.5Q202 96 231 96Q260 96 281 105.5Q302 115 318 129ZM303 350Q303 367 289.5 376Q276 385 244 385Q220 385 195.5 381.5Q171 378 147 373Q123 368 101.5 361Q80 354 64 347V481Q77 487 96.5 492.5Q116 498 140 503Q164 508 190.5 511Q217 514 244 514Q295 514 331.5 504Q368 494 393 477Q446 514 536 514Q616 514 661.5 487.5Q707 461 729 417Q751 373 754 317Q757 261 752 202H460Q457 153 483 133Q509 113 568 113Q625 113 666.5 122.5Q708 132 735 146V21Q691 3 641.5 -5.5Q592 -14 547 -14Q430 -14 371 42Q329 8 281.5 -3Q234 -14 193 -14Q145 -14 112.5 0.5Q80 15 60 37.5Q40 60 31.5 88.5Q23 117 23 145Q23 194 40 224.5Q57 255 84.5 272Q112 289 146.5 294.5Q181 300 216 300H303ZM538 394Q497 394 478.5 371Q460 348 460 300H602Q609 341 596.5 367.5Q584 394 538 394Z" glyph-name="aemacron" horiz-adv-x="786" unicode="&#483;" /><glyph d="M520 585H208V705H520ZM703 187H506L517 132H731V0H376L362 80H209L181 0H0L225 500H731V368H469L480 313H703ZM248 194H339L309 371Z" glyph-name="aemacron.small" horiz-adv-x="770" unicode="&#57496;" /><glyph d="M1455 250H45V388H1455Z" glyph-name="afii00208" horiz-adv-x="1500" unicode="&#8213;" /><glyph d="M195 550 90 750H250L315 550ZM303 350Q303 367 289.5 376Q276 385 244 385Q220 385 195.5 381.5Q171 378 147 373Q123 368 101.5 361Q80 354 64 347V481Q77 487 96.5 492.5Q116 498 140 503Q164 508 190.5 511Q217 514 244 514Q311 514 353 500Q395 486 418.5 461.5Q442 437 450 402Q458 367 458 325V0H362L340 38Q313 14 275.5 0Q238 -14 193 -14Q145 -14 112.5 0.5Q80 15 60 37.5Q40 60 31.5 88.5Q23 117 23 145Q23 196 40 226.5Q57 257 84 274Q111 291 144.5 298.5Q178 306 212 309L303 318ZM236 222Q202 217 187.5 200.5Q173 184 173 155Q173 127 189 111.5Q205 96 231 96Q253 96 272 102Q291 108 303 120V231Z" glyph-name="agrave" horiz-adv-x="498" unicode="&#224;" /><glyph d="M344 363Q334 369 323 373Q313 377 300.5 380.5Q288 384 273 384Q245 384 227.5 375Q210 366 200 349Q190 332 186.5 307Q183 282 183 250Q183 218 186.5 193Q190 168 200 151Q210 134 227.5 125Q245 116 273 116Q288 116 300.5 119Q313 122 323 126Q334 130 344 137ZM504 0H408L381 40Q355 17 317 1.5Q279 -14 219 -14Q121 -14 73 49Q25 112 25 250Q25 388 73 451Q121 514 219 514Q279 514 317 498.5Q355 483 381 460L408 500H504ZM215 550 110 750H270L335 550Z" glyph-name="agrave.school" horiz-adv-x="549" unicode="&#57420;" /><glyph d="M219 550 114 750H274L339 550ZM376 0 356 80H210L190 0H5L180 508H386L561 0ZM238 194H328L283 380Z" glyph-name="agrave.small" horiz-adv-x="566" unicode="&#57479;" /><glyph d="M250 636Q229 636 213.5 632.5Q198 629 188.5 619.5Q179 610 174.5 593Q170 576 170 550H52Q52 608 64.5 646.5Q77 685 102 708Q127 731 164 740.5Q201 750 250 750Q299 750 336 740.5Q373 731 398 708Q423 685 435.5 646.5Q448 608 448 550H330Q330 576 325.5 593Q321 610 311.5 619.5Q302 629 286.5 632.5Q271 636 250 636ZM303 350Q303 367 289.5 376Q276 385 244 385Q220 385 195.5 381.5Q171 378 147 373Q123 368 101.5 361Q80 354 64 347V481Q77 487 96.5 492.5Q116 498 140 503Q164 508 190.5 511Q217 514 244 514Q311 514 353 500Q395 486 418.5 461.5Q442 437 450 402Q458 367 458 325V0H362L340 38Q313 14 275.5 0Q238 -14 193 -14Q145 -14 112.5 0.5Q80 15 60 37.5Q40 60 31.5 88.5Q23 117 23 145Q23 196 40 226.5Q57 257 84 274Q111 291 144.5 298.5Q178 306 212 309L303 318ZM236 222Q202 217 187.5 200.5Q173 184 173 155Q173 127 189 111.5Q205 96 231 96Q253 96 272 102Q291 108 303 120V231Z" glyph-name="ainvertedbreve" horiz-adv-x="498" unicode="&#515;" /><glyph d="M344 363Q334 369 323 373Q313 377 300.5 380.5Q288 384 273 384Q245 384 227.5 375Q210 366 200 349Q190 332 186.5 307Q183 282 183 250Q183 218 186.5 193Q190 168 200 151Q210 134 227.5 125Q245 116 273 116Q288 116 300.5 119Q313 122 323 126Q334 130 344 137ZM504 0H408L381 40Q355 17 317 1.5Q279 -14 219 -14Q121 -14 73 49Q25 112 25 250Q25 388 73 451Q121 514 219 514Q279 514 317 498.5Q355 483 381 460L408 500H504ZM270 636Q249 636 233.5 632.5Q218 629 208.5 619.5Q199 610 194.5 593Q190 576 190 550H72Q72 608 84.5 646.5Q97 685 122 708Q147 731 184 740.5Q221 750 270 750Q319 750 356 740.5Q393 731 418 708Q443 685 455.5 646.5Q468 608 468 550H350Q350 576 345.5 593Q341 610 331.5 619.5Q322 629 306.5 632.5Q291 636 270 636Z" glyph-name="ainvertedbreve.school" horiz-adv-x="549" unicode="&#57428;" /><glyph d="M283 636Q262 636 246.5 632.5Q231 629 221.5 619.5Q212 610 207.5 593Q203 576 203 550H85Q85 608 97.5 646.5Q110 685 135 708Q160 731 197 740.5Q234 750 283 750Q332 750 369 740.5Q406 731 431 708Q456 685 468.5 646.5Q481 608 481 550H363Q363 576 358.5 593Q354 610 344.5 619.5Q335 629 319.5 632.5Q304 636 283 636ZM376 0 356 80H210L190 0H5L180 508H386L561 0ZM238 194H328L283 380Z" glyph-name="ainvertedbreve.small" horiz-adv-x="566" unicode="&#57487;" /><glyph d="M211 -38Q263 -42 296 -52.5Q329 -63 347.5 -77.5Q366 -92 372.5 -109.5Q379 -127 379 -145Q379 -174 369 -193.5Q359 -213 341.5 -226Q324 -239 300.5 -244.5Q277 -250 251 -250Q219 -250 191.5 -244Q164 -238 151 -231V-140Q165 -145 188.5 -150Q212 -155 238 -155Q255 -155 265.5 -150Q276 -145 276 -132Q276 -127 273.5 -121.5Q271 -116 263.5 -111Q256 -106 242 -101.5Q228 -97 205 -94Z" glyph-name="altcedilla" horiz-adv-x="500" unicode="&#57702;" /><glyph d="M406 585H94V705H406ZM303 350Q303 367 289.5 376Q276 385 244 385Q220 385 195.5 381.5Q171 378 147 373Q123 368 101.5 361Q80 354 64 347V481Q77 487 96.5 492.5Q116 498 140 503Q164 508 190.5 511Q217 514 244 514Q311 514 353 500Q395 486 418.5 461.5Q442 437 450 402Q458 367 458 325V0H362L340 38Q313 14 275.5 0Q238 -14 193 -14Q145 -14 112.5 0.5Q80 15 60 37.5Q40 60 31.5 88.5Q23 117 23 145Q23 196 40 226.5Q57 257 84 274Q111 291 144.5 298.5Q178 306 212 309L303 318ZM236 222Q202 217 187.5 200.5Q173 184 173 155Q173 127 189 111.5Q205 96 231 96Q253 96 272 102Q291 108 303 120V231Z" glyph-name="amacron" horiz-adv-x="498" unicode="&#257;" /><glyph d="M426 585H114V705H426ZM344 363Q334 369 323 373Q313 377 300.5 380.5Q288 384 273 384Q245 384 227.5 375Q210 366 200 349Q190 332 186.5 307Q183 282 183 250Q183 218 186.5 193Q190 168 200 151Q210 134 227.5 125Q245 116 273 116Q288 116 300.5 119Q313 122 323 126Q334 130 344 137ZM504 0H408L381 40Q355 17 317 1.5Q279 -14 219 -14Q121 -14 73 49Q25 112 25 250Q25 388 73 451Q121 514 219 514Q279 514 317 498.5Q355 483 381 460L408 500H504Z" glyph-name="amacron.school" horiz-adv-x="549" unicode="&#57426;" /><glyph d="M439 585H127V705H439ZM376 0 356 80H210L190 0H5L180 508H386L561 0ZM238 194H328L283 380Z" glyph-name="amacron.small" horiz-adv-x="566" unicode="&#57485;" /><glyph d="M33 203Q33 287 62.5 338Q92 389 150 424Q122 492 122 559Q122 593 132.5 629Q143 665 167 695Q191 725 230.5 744.5Q270 764 328 764Q385 764 422.5 749.5Q460 735 482.5 709.5Q505 684 514 649.5Q523 615 523 575Q523 538 513 509Q503 480 483 456Q463 432 434 411.5Q405 391 368 372Q395 337 428 303.5Q461 270 499 239Q532 288 548.5 355Q565 422 565 500H727Q727 391 700.5 304.5Q674 218 628 154Q685 124 743 109L684 -28Q604 2 520 49Q425 -14 307 -14Q174 -14 103.5 42.5Q33 99 33 203ZM311 136Q345 136 377 145Q333 180 295 217Q257 254 225 296Q195 266 195 227Q195 179 228.5 157.5Q262 136 311 136ZM284 561Q284 531 298 492Q331 507 351.5 525Q372 543 372 573Q372 594 363 604Q354 614 330 614Q304 614 294 601Q284 588 284 561Z" glyph-name="ampersand" horiz-adv-x="765" unicode="&amp;" /><glyph d="M692 313Q692 274 681 228.5Q670 183 644 139Q662 135 682 133.5Q702 132 723 132V-18Q666 -18 615 -6Q564 6 516 24Q481 7 434 -3.5Q387 -14 333 -14Q263 -14 207.5 -0.5Q152 13 113 43Q74 73 53.5 121.5Q33 170 33 241Q33 316 65 374Q97 432 160 459Q155 482 153.5 504.5Q152 527 152 550Q152 586 162 624Q172 662 196.5 693Q221 724 261.5 744Q302 764 362 764Q416 764 453 751Q490 738 512 716.5Q534 695 543.5 666Q553 637 553 605Q553 566 545.5 538.5Q538 511 533 500H387Q392 513 397 533Q402 553 402 570Q402 594 392.5 604Q383 614 363 614Q334 614 324 595.5Q314 577 314 550Q314 517 324 472Q334 427 355.5 379Q377 331 411 284.5Q445 238 494 202Q530 248 530 313Q530 327 529 339Q528 351 526 359Q524 369 523 375H684Q686 369 688 359Q690 351 691 339Q692 327 692 313ZM341 135Q301 172 268.5 213Q236 254 213 301Q202 290 198.5 275Q195 260 195 243Q195 192 224.5 163.5Q254 135 326 135Z" glyph-name="ampersand.alt" horiz-adv-x="755" unicode="&#57696;" /><glyph d="M295 500Q305 465 324.5 430Q344 395 370.5 361.5Q397 328 430 297Q463 266 499 239Q532 288 548.5 355Q565 422 565 500H727Q727 391 700.5 304.5Q674 218 628 154Q685 124 743 109L684 -28Q604 2 520 49Q425 -14 307 -14Q174 -14 103.5 42.5Q33 99 33 203Q33 287 62.5 338Q92 389 150 424Q142 443 136.5 461.5Q131 480 127 500ZM311 136Q345 136 377 145Q333 180 295 217Q257 254 225 296Q195 266 195 227Q195 179 228.5 157.5Q262 136 311 136Z" glyph-name="ampersand.small" horiz-adv-x="765" unicode="&#57697;" /><glyph d="M193 300 327 -200H172L40 300L172 800H327Z" glyph-name="anglebracketleft" horiz-adv-x="360" unicode="&#12296;" /><glyph d="M193 375 327 -125H172L40 375L172 875H327Z" glyph-name="anglebracketleft.cap" horiz-adv-x="360" unicode="&#57742;" /><glyph d="M33 800H188L320 300L188 -200H33L167 300Z" glyph-name="anglebracketright" horiz-adv-x="360" unicode="&#12297;" /><glyph d="M33 875H188L320 375L188 -125H33L167 375Z" glyph-name="anglebracketright.cap" horiz-adv-x="360" unicode="&#57743;" /><glyph d="M190 0H5L180 508H386L561 0H376L283 380Z" glyph-name="anocross.small" horiz-adv-x="566" unicode="&#57493;" /><glyph d="M303 350Q303 367 289.5 376Q276 385 244 385Q220 385 195.5 381.5Q171 378 147 373Q123 368 101.5 361Q80 354 64 347V481Q77 487 96.5 492.5Q116 498 140 503Q164 508 190.5 511Q217 514 244 514Q311 514 353 500Q395 486 418.5 461.5Q442 437 450 402Q458 367 458 325V0Q431 -6 410 -17.5Q389 -29 374.5 -43Q360 -57 352.5 -72.5Q345 -88 345 -102Q345 -128 361.5 -140.5Q378 -153 404 -153Q429 -153 446.5 -148.5Q464 -144 472 -141V-231Q461 -236 439 -243Q417 -250 372 -250Q344 -250 317.5 -243Q291 -236 270.5 -221Q250 -206 237.5 -182.5Q225 -159 225 -127Q225 -98 235.5 -75Q246 -52 263.5 -34Q281 -16 303.5 -3Q326 10 350 20L340 38Q313 14 275.5 0Q238 -14 193 -14Q145 -14 112.5 0.5Q80 15 60 37.5Q40 60 31.5 88.5Q23 117 23 145Q23 196 40 226.5Q57 257 84 274Q111 291 144.5 298.5Q178 306 212 309L303 318ZM236 222Q202 217 187.5 200.5Q173 184 173 155Q173 127 189 111.5Q205 96 231 96Q253 96 272 102Q291 108 303 120V231Z" glyph-name="aogonek" horiz-adv-x="498" unicode="&#261;" /><glyph d="M504 0Q477 -6 456 -17.5Q435 -29 420.5 -43Q406 -57 398.5 -72.5Q391 -88 391 -102Q391 -128 407.5 -140.5Q424 -153 450 -153Q475 -153 492.5 -148.5Q510 -144 518 -141V-231Q507 -236 485 -243Q463 -250 418 -250Q390 -250 363.5 -243Q337 -236 316.5 -221Q296 -206 283.5 -182.5Q271 -159 271 -127Q271 -98 281.5 -75Q292 -52 309.5 -34.5Q327 -17 349 -3.5Q371 10 395 19L381 40Q355 17 317 1.5Q279 -14 219 -14Q121 -14 73 49Q25 112 25 250Q25 388 73 451Q121 514 219 514Q279 514 317 498.5Q355 483 381 460L408 500H504ZM344 363Q334 369 323 373Q313 377 300.5 380.5Q288 384 273 384Q245 384 227.5 375Q210 366 200 349Q190 332 186.5 307Q183 282 183 250Q183 218 186.5 193Q190 168 200 151Q210 134 227.5 125Q245 116 273 116Q288 116 300.5 119Q313 122 323 126Q334 130 344 137Z" glyph-name="aogonek.school" horiz-adv-x="549" unicode="&#57433;" /><glyph d="M561 0Q534 -6 513 -17.5Q492 -29 477.5 -43Q463 -57 455.5 -72.5Q448 -88 448 -102Q448 -128 464.5 -140.5Q481 -153 507 -153Q532 -153 549.5 -148.5Q567 -144 575 -141V-231Q564 -236 542 -243Q520 -250 475 -250Q447 -250 420.5 -243Q394 -236 373.5 -221Q353 -206 340.5 -182.5Q328 -159 328 -127Q328 -92 343 -66.5Q358 -41 381 -21L356 80H210L190 0H5L180 508H386ZM238 194H328L283 380Z" glyph-name="aogonek.small" horiz-adv-x="566" unicode="&#57492;" /><glyph d="M550 161Q537 149 507.5 138Q478 127 439 127Q396 127 361 138Q326 149 293 162Q260 175 227 186Q194 197 156 197Q138 197 121 193Q104 189 90 183.5Q76 178 65.5 171.5Q55 165 50 160V314Q63 326 92.5 337Q122 348 161 348Q204 348 239 337Q274 326 307 313Q340 300 373 289Q406 278 444 278Q462 278 479 282Q496 286 510 291.5Q524 297 534.5 303.5Q545 310 550 315ZM550 368Q537 356 507.5 345Q478 334 439 334Q396 334 361 345Q326 356 293 369Q260 382 227 393Q194 404 156 404Q138 404 121 400Q104 396 90 390.5Q76 385 65.5 378.5Q55 372 50 367V521Q63 533 92.5 544Q122 555 161 555Q204 555 239 544Q274 533 307 520Q340 507 373 496Q406 485 444 485Q462 485 479 489Q496 493 510 498.5Q524 504 534.5 510.5Q545 517 550 522Z" glyph-name="approxequal" horiz-adv-x="600" unicode="&#8776;" /><glyph d="M356 650Q356 596 327 570.5Q298 545 250 545Q202 545 173 570.5Q144 596 144 650Q144 704 173 729.5Q202 755 250 755Q298 755 327 729.5Q356 704 356 650ZM228 650Q228 638 233.5 633.5Q239 629 250 629Q261 629 266.5 633.5Q272 638 272 650Q272 662 266.5 666.5Q261 671 250 671Q239 671 233.5 666.5Q228 662 228 650ZM303 350Q303 367 289.5 376Q276 385 244 385Q220 385 195.5 381.5Q171 378 147 373Q123 368 101.5 361Q80 354 64 347V481Q77 487 96.5 492.5Q116 498 140 503Q164 508 190.5 511Q217 514 244 514Q311 514 353 500Q395 486 418.5 461.5Q442 437 450 402Q458 367 458 325V0H362L340 38Q313 14 275.5 0Q238 -14 193 -14Q145 -14 112.5 0.5Q80 15 60 37.5Q40 60 31.5 88.5Q23 117 23 145Q23 196 40 226.5Q57 257 84 274Q111 291 144.5 298.5Q178 306 212 309L303 318ZM236 222Q202 217 187.5 200.5Q173 184 173 155Q173 127 189 111.5Q205 96 231 96Q253 96 272 102Q291 108 303 120V231Z" glyph-name="aring" horiz-adv-x="498" unicode="&#229;" /><glyph d="M376 650Q376 596 347 570.5Q318 545 270 545Q222 545 193 570.5Q164 596 164 650Q164 704 193 729.5Q222 755 270 755Q318 755 347 729.5Q376 704 376 650ZM248 650Q248 638 253.5 633.5Q259 629 270 629Q281 629 286.5 633.5Q292 638 292 650Q292 662 286.5 666.5Q281 671 270 671Q259 671 253.5 666.5Q248 662 248 650ZM344 363Q334 369 323 373Q313 377 300.5 380.5Q288 384 273 384Q245 384 227.5 375Q210 366 200 349Q190 332 186.5 307Q183 282 183 250Q183 218 186.5 193Q190 168 200 151Q210 134 227.5 125Q245 116 273 116Q288 116 300.5 119Q313 122 323 126Q334 130 344 137ZM504 0H408L381 40Q355 17 317 1.5Q279 -14 219 -14Q121 -14 73 49Q25 112 25 250Q25 388 73 451Q121 514 219 514Q279 514 317 498.5Q355 483 381 460L408 500H504Z" glyph-name="aring.school" horiz-adv-x="549" unicode="&#57424;" /><glyph d="M389 650Q389 596 360 570.5Q331 545 283 545Q235 545 206 570.5Q177 596 177 650Q177 704 206 729.5Q235 755 283 755Q331 755 360 729.5Q389 704 389 650ZM261 650Q261 638 266.5 633.5Q272 629 283 629Q294 629 299.5 633.5Q305 638 305 650Q305 662 299.5 666.5Q294 671 283 671Q272 671 266.5 666.5Q261 662 261 650ZM376 0 356 80H210L190 0H5L180 508H386L561 0ZM238 194H328L283 380Z" glyph-name="aring.small" horiz-adv-x="566" unicode="&#57483;" /><glyph d="M356 650Q356 596 327 570.5Q298 545 250 545Q202 545 173 570.5Q144 596 144 650Q144 670 148 685L187 825H357L297 747Q324 737 340 713Q356 689 356 650ZM228 650Q228 638 233.5 633.5Q239 629 250 629Q261 629 266.5 633.5Q272 638 272 650Q272 662 266.5 666.5Q261 671 250 671Q239 671 233.5 666.5Q228 662 228 650ZM303 350Q303 367 289.5 376Q276 385 244 385Q220 385 195.5 381.5Q171 378 147 373Q123 368 101.5 361Q80 354 64 347V481Q77 487 96.5 492.5Q116 498 140 503Q164 508 190.5 511Q217 514 244 514Q311 514 353 500Q395 486 418.5 461.5Q442 437 450 402Q458 367 458 325V0H362L340 38Q313 14 275.5 0Q238 -14 193 -14Q145 -14 112.5 0.5Q80 15 60 37.5Q40 60 31.5 88.5Q23 117 23 145Q23 196 40 226.5Q57 257 84 274Q111 291 144.5 298.5Q178 306 212 309L303 318ZM236 222Q202 217 187.5 200.5Q173 184 173 155Q173 127 189 111.5Q205 96 231 96Q253 96 272 102Q291 108 303 120V231Z" glyph-name="aringacute" horiz-adv-x="498" unicode="&#507;" /><glyph d="M504 0H408L381 40Q355 17 317 1.5Q279 -14 219 -14Q121 -14 73 49Q25 112 25 250Q25 388 73 451Q121 514 219 514Q279 514 317 498.5Q355 483 381 460L408 500H504ZM376 650Q376 596 347 570.5Q318 545 270 545Q222 545 193 570.5Q164 596 164 650Q164 670 168 685L207 825H377L317 747Q344 737 360 713Q376 689 376 650ZM344 363Q334 369 323 373Q313 377 300.5 380.5Q288 384 273 384Q245 384 227.5 375Q210 366 200 349Q190 332 186.5 307Q183 282 183 250Q183 218 186.5 193Q190 168 200 151Q210 134 227.5 125Q245 116 273 116Q288 116 300.5 119Q313 122 323 126Q334 130 344 137ZM248 650Q248 638 253.5 633.5Q259 629 270 629Q281 629 286.5 633.5Q292 638 292 650Q292 662 286.5 666.5Q281 671 270 671Q259 671 253.5 666.5Q248 662 248 650Z" glyph-name="aringacute.school" horiz-adv-x="549" unicode="&#57431;" /><glyph d="M389 650Q389 596 360 570.5Q331 545 283 545Q235 545 206 570.5Q177 596 177 650Q177 670 181 685L220 825H390L330 747Q357 737 373 713Q389 689 389 650ZM261 650Q261 638 266.5 633.5Q272 629 283 629Q294 629 299.5 633.5Q305 638 305 650Q305 662 299.5 666.5Q294 671 283 671Q272 671 266.5 666.5Q261 662 261 650ZM376 0 356 80H210L190 0H5L180 508H386L561 0ZM238 194H328L283 380Z" glyph-name="aringacute.small" horiz-adv-x="566" unicode="&#57490;" /><glyph d="M790 348 435 -8H395L40 348V568L337 270V750H493V270L790 568Z" glyph-name="arrowdown" horiz-adv-x="830" unicode="&#8595;" /><glyph d="M393 0 38 355V395L393 750H613L315 453H795V297H315L613 0Z" glyph-name="arrowleft" horiz-adv-x="830" unicode="&#8592;" /><glyph d="M437 750 792 395V355L437 0H217L515 297H35V453H515L217 750Z" glyph-name="arrowright" horiz-adv-x="830" unicode="&#8594;" /><glyph d="M40 403 395 758H435L790 403V183L493 481V0H337V481L40 183Z" glyph-name="arrowup" horiz-adv-x="830" unicode="&#8593;" /><glyph d="M22 375 179 750H321L478 375H318L250 580L182 375Z" glyph-name="asciicircum" horiz-adv-x="500" unicode="^" /><glyph d="M455 246Q444 235 420 226.5Q396 218 364 218Q329 218 300 228Q271 238 244 250Q217 262 190 272Q163 282 132 282Q103 282 78 271.5Q53 261 45 251V392Q56 403 80 411.5Q104 420 136 420Q171 420 200 410Q229 400 256 388Q283 376 310 366Q337 356 368 356Q397 356 422 366.5Q447 377 455 387Z" glyph-name="asciitilde" horiz-adv-x="500" unicode="~" /><glyph d="M396 750 378 609 507 670 566 487 429 461 525 357 369 244 300 369 231 244 75 357 171 461 34 487 93 670 222 609 204 750Z" glyph-name="asterisk" horiz-adv-x="600" unicode="*" /><glyph d="M653 50 643 86Q633 74 615 64.5Q597 55 576 47.5Q555 40 534 36Q513 32 498 32Q397 32 338.5 85.5Q280 139 280 250Q280 361 338.5 414.5Q397 468 498 468Q513 468 534 464Q555 460 576 452.5Q597 445 615 435.5Q633 426 643 414L653 450H759V145Q797 145 818.5 162.5Q840 180 850.5 205.5Q861 231 863.5 260Q866 289 866 312Q866 436 787 493.5Q708 551 536 551Q362 551 279 478.5Q196 406 196 250Q196 94 279 21.5Q362 -51 536 -51Q573 -51 619.5 -47.5Q666 -44 711 -37.5Q756 -31 794.5 -22Q833 -13 856 -3V-103Q830 -112 791 -120.5Q752 -129 708 -135Q664 -141 619 -144.5Q574 -148 536 -148Q316 -148 203 -46.5Q90 55 90 250Q90 445 203 546.5Q316 648 536 648Q972 648 972 312Q972 264 960.5 217.5Q949 171 923 133.5Q897 96 854.5 73Q812 50 749 50ZM599 318Q588 324 577 328Q567 332 554.5 335.5Q542 339 528 339Q484 339 461 320.5Q438 302 438 250Q438 199 461 180Q484 161 528 161Q542 161 554.5 164Q567 167 577 171Q588 175 599 182Z" glyph-name="at" horiz-adv-x="1062" unicode="@" /><glyph d="M653 125 643 161Q633 149 616 139.5Q599 130 579.5 122.5Q560 115 540 111Q520 107 503 107Q391 107 335.5 171.5Q280 236 280 375Q280 514 335.5 578.5Q391 643 503 643Q520 643 540 639Q560 635 579.5 627.5Q599 620 616 610.5Q633 601 643 589L653 625H759V220Q797 220 826 237.5Q855 255 875 286.5Q895 318 905.5 363Q916 408 916 463Q916 532 900 593Q884 654 841.5 699Q799 744 725 770Q651 796 536 796Q459 796 400 779Q341 762 298 732.5Q255 703 225.5 663Q196 623 178.5 576Q161 529 153.5 478Q146 427 146 375Q146 323 153.5 272Q161 221 178.5 174Q196 127 225.5 87Q255 47 298 17.5Q341 -12 400 -29Q459 -46 536 -46Q636 -46 713 -29.5Q790 -13 836 7V-98Q784 -117 710.5 -130Q637 -143 536 -143Q439 -143 364.5 -122.5Q290 -102 235 -66Q180 -30 142.5 19Q105 68 82.5 125.5Q60 183 50 246.5Q40 310 40 375Q40 440 50 503.5Q60 567 82.5 624.5Q105 682 142.5 731Q180 780 235 816Q290 852 364.5 872.5Q439 893 536 893Q681 893 775 859.5Q869 826 924 767.5Q979 709 1000.5 630.5Q1022 552 1022 463Q1022 386 1004.5 324Q987 262 953 217.5Q919 173 870.5 149Q822 125 759 125ZM599 493Q589 499 578 503Q568 507 555.5 510.5Q543 514 528 514Q480 514 459 477Q438 440 438 375Q438 311 459 273.5Q480 236 528 236Q543 236 555.5 239Q568 242 578 246Q589 250 599 257Z" glyph-name="at.cap" horiz-adv-x="1062" unicode="&#57746;" /><glyph d="M35 573Q35 661 67.5 700.5Q100 740 165 740Q201 740 224 727.5Q247 715 264 699.5Q281 684 296 671.5Q311 659 329 659Q360 659 369 676.5Q378 694 378 717H465Q465 629 432 589.5Q399 550 335 550Q299 550 276 562.5Q253 575 235.5 590.5Q218 606 203.5 618.5Q189 631 171 631Q140 631 131 613.5Q122 596 122 573ZM303 350Q303 367 289.5 376Q276 385 244 385Q220 385 195.5 381.5Q171 378 147 373Q123 368 101.5 361Q80 354 64 347V481Q77 487 96.5 492.5Q116 498 140 503Q164 508 190.5 511Q217 514 244 514Q311 514 353 500Q395 486 418.5 461.5Q442 437 450 402Q458 367 458 325V0H362L340 38Q313 14 275.5 0Q238 -14 193 -14Q145 -14 112.5 0.5Q80 15 60 37.5Q40 60 31.5 88.5Q23 117 23 145Q23 196 40 226.5Q57 257 84 274Q111 291 144.5 298.5Q178 306 212 309L303 318ZM236 222Q202 217 187.5 200.5Q173 184 173 155Q173 127 189 111.5Q205 96 231 96Q253 96 272 102Q291 108 303 120V231Z" glyph-name="atilde" horiz-adv-x="498" unicode="&#227;" /><glyph d="M55 573Q55 661 87.5 700.5Q120 740 185 740Q221 740 244 727.5Q267 715 284 699.5Q301 684 316 671.5Q331 659 349 659Q380 659 389 676.5Q398 694 398 717H485Q485 629 452 589.5Q419 550 355 550Q319 550 296 562.5Q273 575 255.5 590.5Q238 606 223.5 618.5Q209 631 191 631Q160 631 151 613.5Q142 596 142 573ZM344 363Q334 369 323 373Q313 377 300.5 380.5Q288 384 273 384Q245 384 227.5 375Q210 366 200 349Q190 332 186.5 307Q183 282 183 250Q183 218 186.5 193Q190 168 200 151Q210 134 227.5 125Q245 116 273 116Q288 116 300.5 119Q313 122 323 126Q334 130 344 137ZM504 0H408L381 40Q355 17 317 1.5Q279 -14 219 -14Q121 -14 73 49Q25 112 25 250Q25 388 73 451Q121 514 219 514Q279 514 317 498.5Q355 483 381 460L408 500H504Z" glyph-name="atilde.school" horiz-adv-x="549" unicode="&#57423;" /><glyph d="M68 573Q68 661 100.5 700.5Q133 740 198 740Q234 740 257 727.5Q280 715 297 699.5Q314 684 329 671.5Q344 659 362 659Q393 659 402 676.5Q411 694 411 717H498Q498 629 465 589.5Q432 550 368 550Q332 550 309 562.5Q286 575 268.5 590.5Q251 606 236.5 618.5Q222 631 204 631Q173 631 164 613.5Q155 596 155 573ZM376 0 356 80H210L190 0H5L180 508H386L561 0ZM238 194H328L283 380Z" glyph-name="atilde.small" horiz-adv-x="566" unicode="&#57482;" /><glyph d="M45 0V750H205V482Q228 496 258 505Q288 514 330 514Q427 514 475.5 451Q524 388 524 250Q524 112 475.5 49Q427 -14 330 -14Q270 -14 232 1.5Q194 17 168 40L141 0ZM205 137Q214 130 225 126Q235 122 248 119Q261 116 276 116Q304 116 321.5 125Q339 134 349 151Q359 168 362.5 193Q366 218 366 250Q366 282 362.5 307Q359 332 349 349Q339 366 321.5 375Q304 384 276 384Q261 384 248 380.5Q235 377 225 373Q214 369 205 363Z" glyph-name="b" horiz-adv-x="549" unicode="b" /><glyph d="M55 500H309Q358 500 392 490.5Q426 481 447.5 463.5Q469 446 478.5 421Q488 396 488 365Q488 334 476 311Q464 288 451 280Q479 268 493.5 236Q508 204 508 169Q508 133 498.5 102Q489 71 467 48.5Q445 26 410 13Q375 0 323 0H55ZM341 164Q341 190 331.5 199.5Q322 209 304 209H213V120H304Q341 120 341 164ZM326 338Q326 361 316.5 370.5Q307 380 289 380H213V295H290Q307 295 316.5 305Q326 315 326 338Z" glyph-name="b.small" horiz-adv-x="530" unicode="&#57453;" /><glyph d="M132 590Q144 595 156.5 597.5Q169 600 183 600Q232 600 257.5 570.5Q283 541 283 466Q283 391 257.5 361.5Q232 332 183 332Q162 332 143 338Q124 344 106 354L98 341H19V716H132ZM170 466Q170 497 165.5 506.5Q161 516 150 516Q140 516 132 512V420Q135 418 140 416.5Q145 415 150 415Q161 415 165.5 424.5Q170 434 170 466Z" glyph-name="b.superior" horiz-adv-x="288" unicode="&#57658;" /><glyph d="M345 -200 0 800H163L508 -200Z" glyph-name="backslash" horiz-adv-x="508" unicode="\" /><glyph d="M57 -200V800H216V-200Z" glyph-name="bar" horiz-adv-x="273" unicode="|" /><glyph d="M340 -14Q251 -14 193.5 14.5Q136 43 102 94.5Q68 146 54.5 217.5Q41 289 41 375Q41 461 54.5 532.5Q68 604 102 655.5Q136 707 193.5 735.5Q251 764 340 764Q428 764 486 735.5Q544 707 578 655.5Q612 604 625.5 532.5Q639 461 639 375Q639 289 625.5 217.5Q612 146 578 94.5Q544 43 486 14.5Q428 -14 340 -14ZM340 131Q407 131 439 176.5Q471 222 476 327H204Q209 222 240.5 176.5Q272 131 340 131ZM340 619Q277 619 245 579Q213 539 205 447H474Q466 539 434.5 579Q403 619 340 619Z" glyph-name="barredO" horiz-adv-x="680" unicode="&#57373;" /><glyph d="M260 -14Q191 -14 145.5 5.5Q100 25 73 59.5Q46 94 35.5 142.5Q25 191 25 250Q25 308 35.5 357Q46 406 73 440.5Q100 475 145.5 494.5Q191 514 260 514Q329 514 374.5 494.5Q420 475 447 440.5Q474 406 484.5 357Q495 308 495 250Q495 191 484.5 142.5Q474 94 447 59.5Q420 25 374.5 5.5Q329 -14 260 -14ZM260 114Q293 114 311.5 133Q330 152 332 200H187Q189 152 207.5 133Q226 114 260 114ZM260 386Q226 386 207.5 366.5Q189 347 187 300H332Q330 347 311.5 366.5Q293 386 260 386Z" glyph-name="barredo" horiz-adv-x="520" unicode="&#57409;" /><glyph d="M305 -14Q169 -14 104.5 50.5Q40 115 40 250Q40 385 104.5 449.5Q169 514 305 514Q441 514 505.5 449.5Q570 385 570 250Q570 115 505.5 50.5Q441 -14 305 -14ZM305 121Q346 121 372.5 137.5Q399 154 401 191H208Q210 154 236.5 137.5Q263 121 305 121ZM305 379Q264 379 237.5 362.5Q211 346 209 311H401Q399 346 372.5 362.5Q346 379 305 379Z" glyph-name="barredo.small" horiz-adv-x="610" unicode="&#57596;" /><glyph d="M66 375Q66 456 96.5 526.5Q127 597 180 650Q233 703 303.5 733.5Q374 764 455 764Q536 764 606.5 733.5Q677 703 730 650Q783 597 813.5 526.5Q844 456 844 375Q844 294 813.5 223.5Q783 153 730 100Q677 47 606.5 16.5Q536 -14 455 -14Q374 -14 303.5 16.5Q233 47 180 100Q127 153 96.5 223.5Q66 294 66 375Z" glyph-name="blackcircle" horiz-adv-x="910" unicode="&#9679;" /><glyph d="M80 0V500H580V0Z" glyph-name="blacksmallsquare" horiz-adv-x="660" unicode="&#9642;" /><glyph d="M80 0V750H830V0Z" glyph-name="blacksquare" horiz-adv-x="910" unicode="&#57869;" /><glyph d="M203 300Q225 289 235 268Q245 247 243 224L226 -15Q223 -54 268 -54H292V-200H198Q172 -200 148.5 -194Q125 -188 108 -174.5Q91 -161 82 -140.5Q73 -120 75 -91L92 188Q95 227 55 227H30V373H55Q95 373 92 412L75 691Q73 720 82 740.5Q91 761 108 774.5Q125 788 148.5 794Q172 800 198 800H292V654H268Q223 654 226 615L243 376Q245 353 235 332Q225 311 203 300Z" glyph-name="braceleft" horiz-adv-x="330" unicode="{" /><glyph d="M203 375Q225 364 235 343Q245 322 243 299L226 60Q223 21 268 21H292V-125H198Q172 -125 148.5 -119Q125 -113 108 -99.5Q91 -86 82 -65.5Q73 -45 75 -16L92 263Q95 302 55 302H30V448H55Q95 448 92 487L75 766Q73 795 82 815.5Q91 836 108 849.5Q125 863 148.5 869Q172 875 198 875H292V729H268Q223 729 226 690L243 451Q245 428 235 407Q225 386 203 375Z" glyph-name="braceleft.cap" horiz-adv-x="330" unicode="&#57740;" /><glyph d="M127 300Q105 311 95 332Q85 353 87 376L104 615Q107 654 62 654H38V800H132Q158 800 181.5 794Q205 788 222 774.5Q239 761 248 740.5Q257 720 255 691L238 412Q235 373 275 373H300V227H275Q235 227 238 188L255 -91Q257 -120 248 -140.5Q239 -161 222 -174.5Q205 -188 181.5 -194Q158 -200 132 -200H38V-54H62Q107 -54 104 -15L87 224Q85 247 95 268Q105 289 127 300Z" glyph-name="braceright" horiz-adv-x="330" unicode="}" /><glyph d="M127 375Q105 386 95 407Q85 428 87 451L104 690Q107 729 62 729H38V875H132Q158 875 181.5 869Q205 863 222 849.5Q239 836 248 815.5Q257 795 255 766L238 487Q235 448 275 448H300V302H275Q235 302 238 263L255 -16Q257 -45 248 -65.5Q239 -86 222 -99.5Q205 -113 181.5 -119Q158 -125 132 -125H38V21H62Q107 21 104 60L87 299Q85 322 95 343Q105 364 127 375Z" glyph-name="braceright.cap" horiz-adv-x="330" unicode="&#57741;" /><glyph d="M208 -54H272V-200H57V800H272V654H208Z" glyph-name="bracketleft" horiz-adv-x="310" unicode="[" /><glyph d="M208 21H272V-125H57V875H272V729H208Z" glyph-name="bracketleft.cap" horiz-adv-x="310" unicode="&#57738;" /><glyph d="M102 654H38V800H253V-200H38V-54H102Z" glyph-name="bracketright" horiz-adv-x="310" unicode="]" /><glyph d="M102 729H38V875H253V-125H38V21H102Z" glyph-name="bracketright.cap" horiz-adv-x="310" unicode="&#57739;" /><glyph d="M250 664Q271 664 286.5 667.5Q302 671 311.5 680.5Q321 690 325.5 707Q330 724 330 750H448Q448 692 435.5 653.5Q423 615 398 592Q373 569 336 559.5Q299 550 250 550Q201 550 164 559.5Q127 569 102 592Q77 615 64.5 653.5Q52 692 52 750H170Q170 724 174.5 707Q179 690 188.5 680.5Q198 671 213.5 667.5Q229 664 250 664Z" glyph-name="breve" horiz-adv-x="500" unicode="&#728;" /><glyph d="M250 870Q288 870 299 878.5Q310 887 310 910H438Q438 875 428.5 849Q419 823 396.5 806.5Q374 790 338 782Q302 774 250 774Q197 774 161.5 782Q126 790 103.5 806.5Q81 823 71.5 849Q62 875 62 910H190Q190 887 201 878.5Q212 870 250 870Z" glyph-name="breve.cap" horiz-adv-x="500" unicode="&#57711;" /><glyph d="M57 -200V275H216V-200ZM57 325V800H216V325Z" glyph-name="brokenbar" horiz-adv-x="285" unicode="&#166;" /><glyph d="M65 375Q65 403 75.5 427.5Q86 452 104.5 470.5Q123 489 147.5 499.5Q172 510 200 510Q228 510 252.5 499.5Q277 489 295.5 470.5Q314 452 324.5 427.5Q335 403 335 375Q335 347 324.5 322.5Q314 298 295.5 279.5Q277 261 252.5 250.5Q228 240 200 240Q172 240 147.5 250.5Q123 261 104.5 279.5Q86 298 75.5 322.5Q65 347 65 375Z" glyph-name="bullet" horiz-adv-x="400" unicode="&#8226;" /><glyph d="M50 750H62L359 544Q354 538 353 534L50 678ZM788 750H800V678L509 540L502 552ZM50 655 350 530 344 520 50 589ZM800 655V589L521 523Q518 526 514 534L513 535ZM188 750 368 559 362 549 100 750ZM50 510V569L340 515Q335 507 330 503ZM662 750H750L498 557L491 568ZM800 569V510L536 503L524 517ZM317 496Q312 488 307 483.5Q302 479 296 476L50 430V490ZM800 490V430L568 474L542 496ZM800 410V345L624 418Q616 431 606 441Q596 451 584 461ZM272 750 379 574 371 563 212 750ZM578 750H638L487 574L479 587ZM50 410 264 461Q238 451 213 443.5Q188 436 166 422Q144 408 127.5 393.5Q111 379 98 365L50 345ZM337 750 393 590 383 579 290 750ZM800 321V300Q775 306 747 315Q719 324 695 336Q671 348 653.5 362.5Q636 377 633 394Q631 398 631 401ZM513 750H560L475 593L464 609ZM392 750 410 605 397 594 351 750ZM458 750H499L459 617L453 626Q445 624 441 622ZM405 750H444L433 619Q428 617 424.5 614.5Q421 612 416 610ZM71 331Q62 322 56.5 315Q51 308 50 303V321Z" glyph-name="bullseye" horiz-adv-x="850" unicode="&#63743;" /><glyph d="M183 250Q183 179 213.5 151.5Q244 124 294 124Q327 124 353.5 130Q380 136 405 147V11Q380 -1 350 -7.5Q320 -14 278 -14Q209 -14 160.5 3.5Q112 21 82 54.5Q52 88 38.5 137Q25 186 25 250Q25 314 38.5 363Q52 412 82 445.5Q112 479 160.5 496.5Q209 514 278 514Q320 514 350 507.5Q380 501 405 489V353Q380 364 353.5 370Q327 376 294 376Q244 376 213.5 348.5Q183 321 183 250Z" glyph-name="c" horiz-adv-x="440" unicode="c" /><glyph d="M40 250Q40 385 102.5 449.5Q165 514 287 514Q339 514 381.5 505.5Q424 497 451 486V344Q430 352 396.5 361Q363 370 321 370Q264 370 231 342.5Q198 315 198 250Q198 185 231 157.5Q264 130 321 130Q363 130 396.5 139Q430 148 451 156V14Q424 3 381.5 -5.5Q339 -14 287 -14Q165 -14 102.5 50.5Q40 115 40 250Z" glyph-name="c.small" horiz-adv-x="492" unicode="&#57454;" /><glyph d="M5 466Q5 531 33.5 565.5Q62 600 131 600Q177 600 201 592L198 502Q193 504 183.5 505.5Q174 507 160 507Q137 507 126.5 498Q116 489 116 466Q116 443 126.5 433.5Q137 424 160 424Q174 424 183.5 426Q193 428 198 430L201 340Q177 332 131 332Q62 332 33.5 366Q5 400 5 466Z" glyph-name="c.superior" horiz-adv-x="211" unicode="&#57659;" /><glyph d="M183 250Q183 179 213.5 151.5Q244 124 294 124Q327 124 353.5 130Q380 136 405 147V11Q380 -1 350 -7.5Q320 -14 278 -14Q209 -14 160.5 3.5Q112 21 82 54.5Q52 88 38.5 137Q25 186 25 250Q25 314 38.5 363Q52 412 82 445.5Q112 479 160.5 496.5Q209 514 278 514Q320 514 350 507.5Q380 501 405 489V353Q380 364 353.5 370Q327 376 294 376Q244 376 213.5 348.5Q183 321 183 250ZM180 550 245 750H405L300 550Z" glyph-name="cacute" horiz-adv-x="440" unicode="&#263;" /><glyph d="M41 250Q41 385 103.5 449.5Q166 514 288 514Q340 514 382.5 505.5Q425 497 452 486V344Q431 352 397.5 361Q364 370 322 370Q265 370 232 342.5Q199 315 199 250Q199 185 232 157.5Q265 130 322 130Q364 130 397.5 139Q431 148 452 156V14Q425 3 382.5 -5.5Q340 -14 288 -14Q166 -14 103.5 50.5Q41 115 41 250ZM205 550 270 750H430L325 550Z" glyph-name="cacute.small" horiz-adv-x="493" unicode="&#57497;" /><glyph d="M458 750 325 550H175L42 750H165L250 655L335 750Z" glyph-name="caron" horiz-adv-x="500" unicode="&#711;" /><glyph d="M448 910 325 790H175L52 910H185L250 865L315 910Z" glyph-name="caron.cap" horiz-adv-x="500" unicode="&#57709;" /><glyph d="M404 750 356 550H290L306 750Z" glyph-name="caronSlovak" horiz-adv-x="500" unicode="&#57698;" /><glyph d="M183 250Q183 179 213.5 151.5Q244 124 294 124Q327 124 353.5 130Q380 136 405 147V11Q380 -1 350 -7.5Q320 -14 278 -14Q209 -14 160.5 3.5Q112 21 82 54.5Q52 88 38.5 137Q25 186 25 250Q25 314 38.5 363Q52 412 82 445.5Q112 479 160.5 496.5Q209 514 278 514Q320 514 350 507.5Q380 501 405 489V353Q380 364 353.5 370Q327 376 294 376Q244 376 213.5 348.5Q183 321 183 250ZM453 750 320 550H170L37 750H160L245 655L330 750Z" glyph-name="ccaron" horiz-adv-x="440" unicode="&#269;" /><glyph d="M41 250Q41 385 103.5 449.5Q166 514 288 514Q340 514 382.5 505.5Q425 497 452 486V344Q431 352 397.5 361Q364 370 322 370Q265 370 232 342.5Q199 315 199 250Q199 185 232 157.5Q265 130 322 130Q364 130 397.5 139Q431 148 452 156V14Q425 3 382.5 -5.5Q340 -14 288 -14Q166 -14 103.5 50.5Q41 115 41 250ZM478 750 345 550H195L62 750H185L270 655L355 750Z" glyph-name="ccaron.small" horiz-adv-x="493" unicode="&#57499;" /><glyph d="M384 -145Q384 -174 374 -193.5Q364 -213 346.5 -226Q329 -239 305.5 -244.5Q282 -250 256 -250Q224 -250 196.5 -244Q169 -238 156 -231V-140Q170 -145 193.5 -150Q217 -155 243 -155Q260 -155 270.5 -150Q281 -145 281 -132Q281 -127 278.5 -121.5Q276 -116 268.5 -111Q261 -106 247 -101.5Q233 -97 210 -94L219 -10Q113 4 69 70.5Q25 137 25 250Q25 314 38.5 363Q52 412 82 445.5Q112 479 160.5 496.5Q209 514 278 514Q320 514 350 507.5Q380 501 405 489V353Q380 364 353.5 370Q327 376 294 376Q244 376 213.5 348.5Q183 321 183 250Q183 179 213.5 151.5Q244 124 294 124Q327 124 353.5 130Q380 136 405 147V11Q382 0 354.5 -6Q327 -12 291 -14L294 -57Q340 -68 362 -89Q384 -110 384 -145Z" glyph-name="ccedilla" horiz-adv-x="440" unicode="&#231;" /><glyph d="M234 -10Q138 3 89.5 67Q41 131 41 250Q41 385 103.5 449.5Q166 514 288 514Q340 514 382.5 505.5Q425 497 452 486V344Q431 352 397.5 361Q364 370 322 370Q265 370 232 342.5Q199 315 199 250Q199 185 232 157.5Q265 130 322 130Q364 130 397.5 139Q431 148 452 156V14Q427 3 389.5 -4.5Q352 -12 306 -14L309 -57Q355 -68 377 -89Q399 -110 399 -145Q399 -174 389 -193.5Q379 -213 361.5 -226Q344 -239 320.5 -244.5Q297 -250 271 -250Q239 -250 211.5 -244Q184 -238 171 -231V-140Q185 -145 208.5 -150Q232 -155 258 -155Q275 -155 285.5 -150Q296 -145 296 -132Q296 -127 293.5 -121.5Q291 -116 283.5 -111Q276 -106 262 -101.5Q248 -97 225 -94Z" glyph-name="ccedilla.small" horiz-adv-x="493" unicode="&#57501;" /><glyph d="M183 250Q183 179 213.5 151.5Q244 124 294 124Q327 124 353.5 130Q380 136 405 147V11Q380 -1 350 -7.5Q320 -14 278 -14Q209 -14 160.5 3.5Q112 21 82 54.5Q52 88 38.5 137Q25 186 25 250Q25 314 38.5 363Q52 412 82 445.5Q112 479 160.5 496.5Q209 514 278 514Q320 514 350 507.5Q380 501 405 489V353Q380 364 353.5 370Q327 376 294 376Q244 376 213.5 348.5Q183 321 183 250ZM37 550 170 750H320L453 550H330L245 645L160 550Z" glyph-name="ccircumflex" horiz-adv-x="440" unicode="&#265;" /><glyph d="M41 250Q41 385 103.5 449.5Q166 514 288 514Q340 514 382.5 505.5Q425 497 452 486V344Q431 352 397.5 361Q364 370 322 370Q265 370 232 342.5Q199 315 199 250Q199 185 232 157.5Q265 130 322 130Q364 130 397.5 139Q431 148 452 156V14Q425 3 382.5 -5.5Q340 -14 288 -14Q166 -14 103.5 50.5Q41 115 41 250ZM62 550 195 750H345L478 550H355L270 645L185 550Z" glyph-name="ccircumflex.small" horiz-adv-x="493" unicode="&#57498;" /><glyph d="M150 645Q150 685 177 712.5Q204 740 245 740Q285 740 312.5 712.5Q340 685 340 645Q340 604 312.5 577Q285 550 245 550Q204 550 177 577Q150 604 150 645ZM183 250Q183 179 213.5 151.5Q244 124 294 124Q327 124 353.5 130Q380 136 405 147V11Q380 -1 350 -7.5Q320 -14 278 -14Q209 -14 160.5 3.5Q112 21 82 54.5Q52 88 38.5 137Q25 186 25 250Q25 314 38.5 363Q52 412 82 445.5Q112 479 160.5 496.5Q209 514 278 514Q320 514 350 507.5Q380 501 405 489V353Q380 364 353.5 370Q327 376 294 376Q244 376 213.5 348.5Q183 321 183 250Z" glyph-name="cdotaccent" horiz-adv-x="440" unicode="&#267;" /><glyph d="M175 645Q175 685 202 712.5Q229 740 270 740Q310 740 337.5 712.5Q365 685 365 645Q365 604 337.5 577Q310 550 270 550Q229 550 202 577Q175 604 175 645ZM41 250Q41 385 103.5 449.5Q166 514 288 514Q340 514 382.5 505.5Q425 497 452 486V344Q431 352 397.5 361Q364 370 322 370Q265 370 232 342.5Q199 315 199 250Q199 185 232 157.5Q265 130 322 130Q364 130 397.5 139Q431 148 452 156V14Q425 3 382.5 -5.5Q340 -14 288 -14Q166 -14 103.5 50.5Q41 115 41 250Z" glyph-name="cdotaccent.small" horiz-adv-x="493" unicode="&#57500;" /><glyph d="M379 -145Q379 -174 369 -193.5Q359 -213 341.5 -226Q324 -239 300.5 -244.5Q277 -250 251 -250Q219 -250 191.5 -244Q164 -238 151 -231V-140Q165 -145 188.5 -150Q212 -155 238 -155Q255 -155 265.5 -150Q276 -145 276 -132Q276 -127 273.5 -121.5Q271 -116 263.5 -111Q256 -106 242 -101.5Q228 -97 205 -94L215 0H285L289 -57Q335 -68 357 -89Q379 -110 379 -145Z" glyph-name="cedilla" horiz-adv-x="500" unicode="&#184;" /><glyph d="M122 -62 167 70Q40 123 40 313Q40 445 99.5 509.5Q159 574 277 577L315 687H432L390 567Q408 563 423.5 558.5Q439 554 451 549V407Q430 415 396.5 424Q363 433 321 433Q264 433 231 405.5Q198 378 198 313Q198 248 231 220.5Q264 193 321 193Q363 193 396.5 202Q430 211 451 219V77Q424 66 381.5 57.5Q339 49 287 49H277L239 -62Z" glyph-name="cent" horiz-adv-x="492" unicode="&#162;" /><glyph d="M122 0 167 132Q40 185 40 375Q40 507 99.5 571.5Q159 636 277 639L315 750H432L390 629Q408 625 423.5 620.5Q439 616 451 611V469Q430 477 396.5 486Q363 495 321 495Q264 495 231 467.5Q198 440 198 375Q198 310 231 282.5Q264 255 321 255Q363 255 396.5 264Q430 273 451 281V139Q424 128 381.5 119.5Q339 111 287 111H277L239 0Z" glyph-name="cent.LP" horiz-adv-x="492" unicode="&#57751;" /><glyph d="M122 -124 167 7Q40 60 40 250Q40 382 99.5 446.5Q159 511 277 514L315 625H432L390 504Q408 500 423.5 495.5Q439 491 451 486V344Q430 352 396.5 361Q363 370 321 370Q264 370 231 342.5Q198 315 198 250Q198 185 231 157.5Q264 130 321 130Q363 130 396.5 139Q430 148 451 156V14Q424 3 381.5 -5.5Q339 -14 287 -14H277L239 -124Z" glyph-name="cent.OP" horiz-adv-x="492" unicode="&#57791;" /><glyph d="M51 250Q51 305 71.5 353Q92 401 128 437Q164 473 212 493.5Q260 514 315 514Q370 514 418 493.5Q466 473 502 437Q538 401 558.5 353Q579 305 579 250Q579 195 558.5 147Q538 99 502 63Q466 27 418 6.5Q370 -14 315 -14Q260 -14 212 6.5Q164 27 128 63Q92 99 71.5 147Q51 195 51 250Z" glyph-name="circle" horiz-adv-x="630" unicode="&#9675;" /><glyph d="M42 550 175 750H325L458 550H335L250 645L165 550Z" glyph-name="circumflex" horiz-adv-x="500" unicode="&#710;" /><glyph d="M52 790 175 910H325L448 790H315L250 835L185 790Z" glyph-name="circumflex.cap" horiz-adv-x="500" unicode="&#57705;" /><glyph d="M25 375Q25 415 52 442.5Q79 470 120 470Q160 470 187.5 442.5Q215 415 215 375Q215 334 187.5 307Q160 280 120 280Q79 280 52 307Q25 334 25 375ZM25 81Q25 121 52 148.5Q79 176 120 176Q160 176 187.5 148.5Q215 121 215 81Q215 40 187.5 13Q160 -14 120 -14Q79 -14 52 13Q25 40 25 81Z" glyph-name="colon" horiz-adv-x="240" unicode=":" /><glyph d="M4 -125 35 150H205L113 -125Z" glyph-name="comma" horiz-adv-x="240" unicode="," /><glyph d="M341 750 317 550H159L220 750Z" glyph-name="commaabovecmb" horiz-adv-x="500" unicode="&#787;" /><glyph d="M159 -250 183 -50H341L280 -250Z" glyph-name="commaaccent" horiz-adv-x="500" unicode="&#57701;" /><glyph d="M340 -14Q272 -14 211 3.5Q150 21 104 60Q58 99 31 161Q4 223 4 312Q4 402 31 464Q58 526 104 565Q150 604 211 621.5Q272 639 340 639Q409 639 470.5 621.5Q532 604 578 565Q624 526 651 464Q678 402 678 312Q678 223 651 161Q624 99 578 60Q532 21 470.5 3.5Q409 -14 340 -14ZM342 63Q394 63 440.5 76.5Q487 90 522 119.5Q557 149 577.5 196.5Q598 244 598 312Q598 380 577.5 427.5Q557 475 522 505Q487 535 440.5 548.5Q394 562 342 562Q289 562 242 548.5Q195 535 160 505Q125 475 104.5 427.5Q84 380 84 312Q84 244 104.5 196.5Q125 149 160 119.5Q195 90 242 76.5Q289 63 342 63ZM161 313Q161 414 208 462.5Q255 511 347 511Q385 511 417.5 504.5Q450 498 470 490V383Q454 390 429 396.5Q404 403 372 403Q330 403 305 382Q280 361 280 313Q280 264 305 243.5Q330 223 372 223Q404 223 429 229.5Q454 236 470 242V136Q450 128 417.5 121.5Q385 115 347 115Q255 115 208 163.5Q161 212 161 313Z" glyph-name="copyright" horiz-adv-x="680" unicode="&#169;" /><glyph d="M238 475Q261 475 278 478Q295 481 306 484V375Q268 363 204 363Q106 363 63 416Q20 469 20 564Q20 659 63 711.5Q106 764 204 764Q268 764 306 752V643Q295 646 278 649Q261 652 238 652Q193 652 173 629Q153 606 153 564Q153 522 173 498.5Q193 475 238 475Z" glyph-name="cordinal" horiz-adv-x="336" unicode="&#57417;" /><glyph d="M36 562Q36 661 84 712.5Q132 764 239 764Q274 764 305 760.5Q336 757 354 751V636Q346 639 319.5 643.5Q293 648 270 648Q225 648 202 629Q179 610 179 562Q179 514 202 495.5Q225 477 270 477Q281 477 294 478.5Q307 480 319 482Q331 484 340.5 486Q350 488 354 489V373Q336 368 305 364.5Q274 361 239 361Q132 361 84 412.5Q36 464 36 562Z" glyph-name="cordinal.small" horiz-adv-x="395" unicode="&#57656;" /><glyph d="M696 375Q696 287 662 222L766 118L650 2L543 109Q509 93 477 85Q445 77 400 77Q355 77 323 85Q291 93 257 109L150 2L34 118L138 222Q104 288 104 375Q104 462 138 528L34 632L150 748L257 641Q291 657 323 665Q355 673 400 673Q445 673 477 665Q509 657 543 641L650 748L766 632L662 528Q696 463 696 375ZM512 375Q512 449 483.5 479.5Q455 510 400 510Q345 510 316.5 479.5Q288 449 288 375Q288 301 316.5 270.5Q345 240 400 240Q455 240 483.5 270.5Q512 301 512 375Z" glyph-name="currency" horiz-adv-x="800" unicode="&#164;" /><glyph d="M408 0 381 40Q355 17 317 1.5Q279 -14 219 -14Q121 -14 73 49Q25 112 25 250Q25 388 73 451Q121 514 219 514Q261 514 291 505Q321 496 344 482V750H504V0ZM344 363Q334 369 323 373Q313 377 300.5 380.5Q288 384 273 384Q245 384 227.5 375Q210 366 200 349Q190 332 186.5 307Q183 282 183 250Q183 218 186.5 193Q190 168 200 151Q210 134 227.5 125Q245 116 273 116Q288 116 300.5 119Q313 122 323 126Q334 130 344 137Z" glyph-name="d" horiz-adv-x="549" unicode="d" /><glyph d="M55 0V500H276Q342 500 388.5 482.5Q435 465 464.5 432.5Q494 400 508 353.5Q522 307 522 250Q522 193 508 146.5Q494 100 464.5 67.5Q435 35 388.5 17.5Q342 0 276 0ZM272 140Q325 140 344.5 171.5Q364 203 364 250Q364 273 359.5 293Q355 313 344.5 328Q334 343 316.5 351.5Q299 360 272 360H213V140Z" glyph-name="d.small" horiz-adv-x="558" unicode="&#57455;" /><glyph d="M155 716H269V341H189L181 354Q163 344 144 338Q125 332 105 332Q56 332 30.5 361.5Q5 391 5 466Q5 541 30.5 570.5Q56 600 105 600Q118 600 130.5 597.5Q143 595 155 590ZM117 466Q117 434 121.5 424.5Q126 415 137 415Q143 415 148 416.5Q153 418 155 420V512Q149 516 137 516Q126 516 121.5 506.5Q117 497 117 466Z" glyph-name="d.superior" horiz-adv-x="288" unicode="&#57660;" /><glyph d="M279 636 393 652V470L278 485L304 284H104L130 485L15 470V653L129 636L113 750H295Z" glyph-name="dagger" horiz-adv-x="408" unicode="&#8224;" /><glyph d="M287 421 295 354 393 368V186L278 201L304 0H104L130 201L15 186V369L113 354L120 421L113 485L15 470V653L129 636L113 750H295L279 636L393 652V470L295 485Z" glyph-name="daggerdbl" horiz-adv-x="408" unicode="&#8225;" /><glyph d="M658 750 610 550H544L560 750ZM408 0 381 40Q355 17 317 1.5Q279 -14 219 -14Q121 -14 73 49Q25 112 25 250Q25 388 73 451Q121 514 219 514Q261 514 291 505Q321 496 344 482V750H504V0ZM344 363Q334 369 323 373Q313 377 300.5 380.5Q288 384 273 384Q245 384 227.5 375Q210 366 200 349Q190 332 186.5 307Q183 282 183 250Q183 218 186.5 193Q190 168 200 151Q210 134 227.5 125Q245 116 273 116Q288 116 300.5 119Q313 122 323 126Q334 130 344 137Z" glyph-name="dcaron" horiz-adv-x="549" unicode="&#271;" /><glyph d="M55 0V500H276Q342 500 388.5 482.5Q435 465 464.5 432.5Q494 400 508 353.5Q522 307 522 250Q522 193 508 146.5Q494 100 464.5 67.5Q435 35 388.5 17.5Q342 0 276 0ZM272 140Q325 140 344.5 171.5Q364 203 364 250Q364 273 359.5 293Q355 313 344.5 328Q334 343 316.5 351.5Q299 360 272 360H213V140ZM478 750 345 550H195L62 750H185L270 655L355 750Z" glyph-name="dcaron.small" horiz-adv-x="558" unicode="&#57502;" /><glyph d="M408 0 381 40Q355 17 317 1.5Q279 -14 219 -14Q121 -14 73 49Q25 112 25 250Q25 388 73 451Q121 514 219 514Q261 514 291 505Q321 496 344 482V750H504V0ZM344 363Q334 369 323 373Q313 377 300.5 380.5Q288 384 273 384Q245 384 227.5 375Q210 366 200 349Q190 332 186.5 307Q183 282 183 250Q183 218 186.5 193Q190 168 200 151Q210 134 227.5 125Q245 116 273 116Q288 116 300.5 119Q313 122 323 126Q334 130 344 137ZM231 -38Q283 -42 316 -52.5Q349 -63 367.5 -77.5Q386 -92 392.5 -109.5Q399 -127 399 -145Q399 -174 389 -193.5Q379 -213 361.5 -226Q344 -239 320.5 -244.5Q297 -250 271 -250Q239 -250 211.5 -244Q184 -238 171 -231V-140Q185 -145 208.5 -150Q232 -155 258 -155Q275 -155 285.5 -150Q296 -145 296 -132Q296 -127 293.5 -121.5Q291 -116 283.5 -111Q276 -106 262 -101.5Q248 -97 225 -94Z" glyph-name="dcedilla" horiz-adv-x="549" unicode="&#7697;" /><glyph d="M55 0V500H276Q342 500 388.5 482.5Q435 465 464.5 432.5Q494 400 508 353.5Q522 307 522 250Q522 193 508 146.5Q494 100 464.5 67.5Q435 35 388.5 17.5Q342 0 276 0ZM272 140Q325 140 344.5 171.5Q364 203 364 250Q364 273 359.5 293Q355 313 344.5 328Q334 343 316.5 351.5Q299 360 272 360H213V140ZM221 -38Q273 -42 306 -52.5Q339 -63 357.5 -77.5Q376 -92 382.5 -109.5Q389 -127 389 -145Q389 -174 379 -193.5Q369 -213 351.5 -226Q334 -239 310.5 -244.5Q287 -250 261 -250Q229 -250 201.5 -244Q174 -238 161 -231V-140Q175 -145 198.5 -150Q222 -155 248 -155Q265 -155 275.5 -150Q286 -145 286 -132Q286 -127 283.5 -121.5Q281 -116 273.5 -111Q266 -106 252 -101.5Q238 -97 215 -94Z" glyph-name="dcedilla.small" horiz-adv-x="558" unicode="&#57503;" /><glyph d="M408 0 381 40Q355 17 317 1.5Q279 -14 219 -14Q121 -14 73 49Q25 112 25 250Q25 388 73 451Q121 514 219 514Q261 514 291 505Q321 496 344 482V550H242V670H344V750H504V670H584V550H504V0ZM344 363Q334 369 323 373Q313 377 300.5 380.5Q288 384 273 384Q245 384 227.5 375Q210 366 200 349Q190 332 186.5 307Q183 282 183 250Q183 218 186.5 193Q190 168 200 151Q210 134 227.5 125Q245 116 273 116Q288 116 300.5 119Q313 122 323 126Q334 130 344 137Z" glyph-name="dcroat" horiz-adv-x="549" unicode="&#273;" /><glyph d="M25 311H93V500H314Q380 500 426.5 482.5Q473 465 502.5 432.5Q532 400 546 353.5Q560 307 560 250Q560 193 546 146.5Q532 100 502.5 67.5Q473 35 426.5 17.5Q380 0 314 0H93V191H25ZM310 140Q363 140 382.5 171.5Q402 203 402 250Q402 273 397.5 293Q393 313 382.5 328Q372 343 354.5 351.5Q337 360 310 360H251V311H334V191H251V140Z" glyph-name="dcroat.small" horiz-adv-x="596" unicode="&#57505;" /><glyph d="M175 -150Q175 -110 202 -82.5Q229 -55 270 -55Q310 -55 337.5 -82.5Q365 -110 365 -150Q365 -191 337.5 -218Q310 -245 270 -245Q229 -245 202 -218Q175 -191 175 -150ZM408 0 381 40Q355 17 317 1.5Q279 -14 219 -14Q121 -14 73 49Q25 112 25 250Q25 388 73 451Q121 514 219 514Q261 514 291 505Q321 496 344 482V750H504V0ZM344 363Q334 369 323 373Q313 377 300.5 380.5Q288 384 273 384Q245 384 227.5 375Q210 366 200 349Q190 332 186.5 307Q183 282 183 250Q183 218 186.5 193Q190 168 200 151Q210 134 227.5 125Q245 116 273 116Q288 116 300.5 119Q313 122 323 126Q334 130 344 137Z" glyph-name="ddotbelow" horiz-adv-x="549" unicode="&#7693;" /><glyph d="M175 -150Q175 -110 202 -82.5Q229 -55 270 -55Q310 -55 337.5 -82.5Q365 -110 365 -150Q365 -191 337.5 -218Q310 -245 270 -245Q229 -245 202 -218Q175 -191 175 -150ZM55 0V500H276Q342 500 388.5 482.5Q435 465 464.5 432.5Q494 400 508 353.5Q522 307 522 250Q522 193 508 146.5Q494 100 464.5 67.5Q435 35 388.5 17.5Q342 0 276 0ZM272 140Q325 140 344.5 171.5Q364 203 364 250Q364 273 359.5 293Q355 313 344.5 328Q334 343 316.5 351.5Q299 360 272 360H213V140Z" glyph-name="ddotbelow.small" horiz-adv-x="558" unicode="&#57504;" /><glyph d="M379 608Q379 452 212 452Q45 452 45 608Q45 764 212 764Q379 764 379 608ZM172 608Q172 593 180.5 583Q189 573 212 573Q235 573 243.5 583Q252 593 252 608Q252 623 243.5 633Q235 643 212 643Q189 643 180.5 633Q172 623 172 608Z" glyph-name="degree" horiz-adv-x="424" unicode="&#176;" /><glyph d="M35 645Q35 685 62 712.5Q89 740 130 740Q170 740 197.5 712.5Q225 685 225 645Q225 604 197.5 577Q170 550 130 550Q89 550 62 577Q35 604 35 645ZM275 645Q275 685 302 712.5Q329 740 370 740Q410 740 437.5 712.5Q465 685 465 645Q465 604 437.5 577Q410 550 370 550Q329 550 302 577Q275 604 275 645Z" glyph-name="dieresis" horiz-adv-x="500" unicode="&#168;" /><glyph d="M35 850Q35 890 59 912.5Q83 935 130 935Q175 935 200 912.5Q225 890 225 850Q225 809 200 787Q175 765 130 765Q83 765 59 787Q35 809 35 850ZM275 850Q275 890 299 912.5Q323 935 370 935Q415 935 440 912.5Q465 890 465 850Q465 809 440 787Q415 765 370 765Q323 765 299 787Q275 809 275 850Z" glyph-name="dieresis.cap" horiz-adv-x="500" unicode="&#57706;" /><glyph d="M205 542Q205 582 232 609.5Q259 637 300 637Q340 637 367.5 609.5Q395 582 395 542Q395 501 367.5 474Q340 447 300 447Q259 447 232 474Q205 501 205 542ZM50 265V417H550V265ZM395 140Q395 100 368 72.5Q341 45 300 45Q260 45 232.5 72.5Q205 100 205 140Q205 181 232.5 208Q260 235 300 235Q341 235 368 208Q395 181 395 140Z" glyph-name="divide" horiz-adv-x="600" unicode="&#247;" /><glyph d="M355 665Q355 705 382 732.5Q409 760 450 760Q490 760 517.5 732.5Q545 705 545 665Q545 624 517.5 597Q490 570 450 570Q409 570 382 597Q355 624 355 665ZM545 81Q545 41 518 13.5Q491 -14 450 -14Q410 -14 382.5 13.5Q355 41 355 81Q355 122 382.5 149Q410 176 450 176Q491 176 518 149Q545 122 545 81ZM75 451H825V299H75Z" glyph-name="divide.cap" horiz-adv-x="900" unicode="&#57874;" /><glyph d="M77 -62 119 60Q98 64 79.5 69Q61 74 49 80V224Q87 210 137.5 199.5Q188 189 233 189Q272 189 288 196.5Q304 204 304 218Q304 235 288 241Q272 247 239 250Q181 256 143.5 265.5Q106 275 83.5 292.5Q61 310 52 337.5Q43 365 43 407Q43 490 95 533Q147 576 258 576L296 687H413L370 564Q391 559 409.5 554.5Q428 550 441 544V400Q403 415 353 425Q303 435 257 435Q198 435 198 407Q198 390 213.5 385.5Q229 381 263 378Q323 372 361.5 363Q400 354 422.5 337Q445 320 453.5 291.5Q462 263 462 217Q462 181 450 150Q438 119 411 96.5Q384 74 340 61Q296 48 232 48L194 -62Z" glyph-name="dollar" horiz-adv-x="500" unicode="$" /><glyph d="M77 0 119 122Q98 126 79.5 131Q61 136 49 142V286Q87 272 137.5 261.5Q188 251 233 251Q272 251 288 258.5Q304 266 304 280Q304 297 288 303Q272 309 239 312Q181 318 143.5 327.5Q106 337 83.5 354.5Q61 372 52 399.5Q43 427 43 469Q43 552 95 595Q147 638 258 638L296 750H413L370 626Q391 621 409.5 616.5Q428 612 441 606V462Q403 477 353 487Q303 497 257 497Q198 497 198 469Q198 452 213.5 447.5Q229 443 263 440Q323 434 361.5 425Q400 416 422.5 399Q445 382 453.5 353.5Q462 325 462 279Q462 243 450 212Q438 181 411 158.5Q384 136 340 123Q296 110 232 110L194 0Z" glyph-name="dollar.LP" horiz-adv-x="500" unicode="&#57750;" /><glyph d="M77 -124 119 -2Q98 2 79.5 7Q61 12 49 18V162Q87 148 137.5 137.5Q188 127 233 127Q272 127 288 134.5Q304 142 304 156Q304 173 288 179Q272 185 239 188Q181 194 143.5 203.5Q106 213 83.5 230.5Q61 248 52 275.5Q43 303 43 345Q43 428 95 471Q147 514 258 514L296 625H413L370 502Q391 497 409.5 492.5Q428 488 441 482V338Q403 353 353 363Q303 373 257 373Q198 373 198 345Q198 328 213.5 323.5Q229 319 263 316Q323 310 361.5 301Q400 292 422.5 275Q445 258 453.5 229.5Q462 201 462 155Q462 119 450 88Q438 57 411 34.5Q384 12 340 -1Q296 -14 232 -14L194 -124Z" glyph-name="dollar.OP" horiz-adv-x="500" unicode="&#57790;" /><glyph d="M155 645Q155 685 182 712.5Q209 740 250 740Q290 740 317.5 712.5Q345 685 345 645Q345 604 317.5 577Q290 550 250 550Q209 550 182 577Q155 604 155 645Z" glyph-name="dotaccent" horiz-adv-x="500" unicode="&#729;" /><glyph d="M155 850Q155 890 179 912.5Q203 935 250 935Q295 935 320 912.5Q345 890 345 850Q345 809 320 787Q295 765 250 765Q203 765 179 787Q155 809 155 850Z" glyph-name="dotaccent.cap" horiz-adv-x="500" unicode="&#57715;" /><glyph d="M250 -4Q243 -5 236 -6Q230 -7 221.5 -7.5Q213 -8 204 -8Q172 -8 144 0.5Q116 9 95 26Q74 43 62 70Q50 97 50 133V500H209V155Q209 141 217.5 133Q226 125 250 125Z" glyph-name="dotlessi" horiz-adv-x="275" unicode="&#305;" /><glyph d="M-43 -130Q-11 -130 9 -123.5Q29 -117 40.5 -105.5Q52 -94 56 -78.5Q60 -63 60 -46V500H219V-62Q219 -116 196 -154.5Q173 -193 136 -217Q99 -241 52 -252.5Q5 -264 -43 -264Z" glyph-name="dotlessj" horiz-adv-x="270" unicode="&#567;" /><glyph d="M57 -200V800H216V-200ZM266 -200V800H425V-200Z" glyph-name="doublebar" horiz-adv-x="482" unicode="&#57726;" /><glyph d="M286 550 181 750H341L406 550ZM106 550 1 750H161L226 550Z" glyph-name="doublegrave" horiz-adv-x="500" unicode="&#57700;" /><glyph d="M296 790 196 910H366L416 790ZM106 790 6 910H176L226 790Z" glyph-name="doublegrave.cap" horiz-adv-x="500" unicode="&#57714;" /><glyph d="M183 197Q180 148 206 130.5Q232 113 291 113Q348 113 389.5 122.5Q431 132 458 146V21Q414 3 364.5 -5.5Q315 -14 270 -14Q145 -14 85 50Q25 114 25 250Q25 386 83.5 450Q142 514 259 514Q339 514 384.5 486.5Q430 459 452 414.5Q474 370 477 313Q480 256 475 197ZM261 394Q220 394 201.5 368.5Q183 343 183 295H325Q328 316 327 334Q326 352 319 365.5Q312 379 298 386.5Q284 394 261 394Z" glyph-name="e" horiz-adv-x="509" unicode="e" /><glyph d="M424 187H213V132H452V0H55V500H452V368H213V313H424Z" glyph-name="e.small" horiz-adv-x="500" unicode="&#57456;" /><glyph d="M251 350Q227 339 195 335.5Q163 332 140 332Q63 332 34 365Q5 398 5 466Q5 535 34 567.5Q63 600 135 600Q172 600 196 590Q220 580 233.5 563.5Q247 547 252 524.5Q257 502 257 477Q257 469 257 458.5Q257 448 255 438H111Q111 427 118.5 422Q126 417 152 417Q175 417 200.5 420Q226 423 248 429ZM136 521Q124 521 117.5 515Q111 509 109 489H155Q157 509 151 515Q145 521 136 521Z" glyph-name="e.superior" horiz-adv-x="262" unicode="&#57661;" /><glyph d="M194 550 259 750H419L314 550ZM183 197Q180 148 206 130.5Q232 113 291 113Q348 113 389.5 122.5Q431 132 458 146V21Q414 3 364.5 -5.5Q315 -14 270 -14Q145 -14 85 50Q25 114 25 250Q25 386 83.5 450Q142 514 259 514Q339 514 384.5 486.5Q430 459 452 414.5Q474 370 477 313Q480 256 475 197ZM261 394Q220 394 201.5 368.5Q183 343 183 295H325Q328 316 327 334Q326 352 319 365.5Q312 379 298 386.5Q284 394 261 394Z" glyph-name="eacute" horiz-adv-x="509" unicode="&#233;" /><glyph d="M192 550 257 750H417L312 550ZM424 187H213V132H452V0H55V500H452V368H213V313H424Z" glyph-name="eacute.small" horiz-adv-x="500" unicode="&#57506;" /><glyph d="M164 -150Q164 -110 191 -82.5Q218 -55 259 -55Q299 -55 326.5 -82.5Q354 -110 354 -150Q354 -191 326.5 -218Q299 -245 259 -245Q218 -245 191 -218Q164 -191 164 -150ZM194 550 259 750H419L314 550ZM183 197Q180 148 206 130.5Q232 113 291 113Q348 113 389.5 122.5Q431 132 458 146V21Q414 3 364.5 -5.5Q315 -14 270 -14Q145 -14 85 50Q25 114 25 250Q25 386 83.5 450Q142 514 259 514Q339 514 384.5 486.5Q430 459 452 414.5Q474 370 477 313Q480 256 475 197ZM261 394Q220 394 201.5 368.5Q183 343 183 295H325Q328 316 327 334Q326 352 319 365.5Q312 379 298 386.5Q284 394 261 394Z" glyph-name="eacutedotbelow" horiz-adv-x="509" unicode="&#57384;" /><glyph d="M162 -150Q162 -110 189 -82.5Q216 -55 257 -55Q297 -55 324.5 -82.5Q352 -110 352 -150Q352 -191 324.5 -218Q297 -245 257 -245Q216 -245 189 -218Q162 -191 162 -150ZM192 550 257 750H417L312 550ZM424 187H213V132H452V0H55V500H452V368H213V313H424Z" glyph-name="eacutedotbelow.small" horiz-adv-x="500" unicode="&#57516;" /><glyph d="M259 664Q280 664 295.5 667.5Q311 671 320.5 680.5Q330 690 334.5 707Q339 724 339 750H457Q457 692 444.5 653.5Q432 615 407 592Q382 569 345 559.5Q308 550 259 550Q210 550 173 559.5Q136 569 111 592Q86 615 73.5 653.5Q61 692 61 750H179Q179 724 183.5 707Q188 690 197.5 680.5Q207 671 222.5 667.5Q238 664 259 664ZM183 197Q180 148 206 130.5Q232 113 291 113Q348 113 389.5 122.5Q431 132 458 146V21Q414 3 364.5 -5.5Q315 -14 270 -14Q145 -14 85 50Q25 114 25 250Q25 386 83.5 450Q142 514 259 514Q339 514 384.5 486.5Q430 459 452 414.5Q474 370 477 313Q480 256 475 197ZM261 394Q220 394 201.5 368.5Q183 343 183 295H325Q328 316 327 334Q326 352 319 365.5Q312 379 298 386.5Q284 394 261 394Z" glyph-name="ebreve" horiz-adv-x="509" unicode="&#277;" /><glyph d="M257 664Q278 664 293.5 667.5Q309 671 318.5 680.5Q328 690 332.5 707Q337 724 337 750H455Q455 692 442.5 653.5Q430 615 405 592Q380 569 343 559.5Q306 550 257 550Q208 550 171 559.5Q134 569 109 592Q84 615 71.5 653.5Q59 692 59 750H177Q177 724 181.5 707Q186 690 195.5 680.5Q205 671 220.5 667.5Q236 664 257 664ZM424 187H213V132H452V0H55V500H452V368H213V313H424Z" glyph-name="ebreve.small" horiz-adv-x="500" unicode="&#57512;" /><glyph d="M467 750 334 550H184L51 750H174L259 655L344 750ZM183 197Q180 148 206 130.5Q232 113 291 113Q348 113 389.5 122.5Q431 132 458 146V21Q414 3 364.5 -5.5Q315 -14 270 -14Q145 -14 85 50Q25 114 25 250Q25 386 83.5 450Q142 514 259 514Q339 514 384.5 486.5Q430 459 452 414.5Q474 370 477 313Q480 256 475 197ZM261 394Q220 394 201.5 368.5Q183 343 183 295H325Q328 316 327 334Q326 352 319 365.5Q312 379 298 386.5Q284 394 261 394Z" glyph-name="ecaron" horiz-adv-x="509" unicode="&#283;" /><glyph d="M465 750 332 550H182L49 750H172L257 655L342 750ZM424 187H213V132H452V0H55V500H452V368H213V313H424Z" glyph-name="ecaron.small" horiz-adv-x="500" unicode="&#57510;" /><glyph d="M51 550 184 750H334L467 550H344L259 645L174 550ZM183 197Q180 148 206 130.5Q232 113 291 113Q348 113 389.5 122.5Q431 132 458 146V21Q414 3 364.5 -5.5Q315 -14 270 -14Q145 -14 85 50Q25 114 25 250Q25 386 83.5 450Q142 514 259 514Q339 514 384.5 486.5Q430 459 452 414.5Q474 370 477 313Q480 256 475 197ZM261 394Q220 394 201.5 368.5Q183 343 183 295H325Q328 316 327 334Q326 352 319 365.5Q312 379 298 386.5Q284 394 261 394Z" glyph-name="ecircumflex" horiz-adv-x="509" unicode="&#234;" /><glyph d="M49 550 182 750H332L465 550H342L257 645L172 550ZM424 187H213V132H452V0H55V500H452V368H213V313H424Z" glyph-name="ecircumflex.small" horiz-adv-x="500" unicode="&#57508;" /><glyph d="M44 645Q44 685 71 712.5Q98 740 139 740Q179 740 206.5 712.5Q234 685 234 645Q234 604 206.5 577Q179 550 139 550Q98 550 71 577Q44 604 44 645ZM284 645Q284 685 311 712.5Q338 740 379 740Q419 740 446.5 712.5Q474 685 474 645Q474 604 446.5 577Q419 550 379 550Q338 550 311 577Q284 604 284 645ZM183 197Q180 148 206 130.5Q232 113 291 113Q348 113 389.5 122.5Q431 132 458 146V21Q414 3 364.5 -5.5Q315 -14 270 -14Q145 -14 85 50Q25 114 25 250Q25 386 83.5 450Q142 514 259 514Q339 514 384.5 486.5Q430 459 452 414.5Q474 370 477 313Q480 256 475 197ZM261 394Q220 394 201.5 368.5Q183 343 183 295H325Q328 316 327 334Q326 352 319 365.5Q312 379 298 386.5Q284 394 261 394Z" glyph-name="edieresis" horiz-adv-x="509" unicode="&#235;" /><glyph d="M42 645Q42 685 69 712.5Q96 740 137 740Q177 740 204.5 712.5Q232 685 232 645Q232 604 204.5 577Q177 550 137 550Q96 550 69 577Q42 604 42 645ZM282 645Q282 685 309 712.5Q336 740 377 740Q417 740 444.5 712.5Q472 685 472 645Q472 604 444.5 577Q417 550 377 550Q336 550 309 577Q282 604 282 645ZM424 187H213V132H452V0H55V500H452V368H213V313H424Z" glyph-name="edieresis.small" horiz-adv-x="500" unicode="&#57509;" /><glyph d="M164 645Q164 685 191 712.5Q218 740 259 740Q299 740 326.5 712.5Q354 685 354 645Q354 604 326.5 577Q299 550 259 550Q218 550 191 577Q164 604 164 645ZM183 197Q180 148 206 130.5Q232 113 291 113Q348 113 389.5 122.5Q431 132 458 146V21Q414 3 364.5 -5.5Q315 -14 270 -14Q145 -14 85 50Q25 114 25 250Q25 386 83.5 450Q142 514 259 514Q339 514 384.5 486.5Q430 459 452 414.5Q474 370 477 313Q480 256 475 197ZM261 394Q220 394 201.5 368.5Q183 343 183 295H325Q328 316 327 334Q326 352 319 365.5Q312 379 298 386.5Q284 394 261 394Z" glyph-name="edotaccent" horiz-adv-x="509" unicode="&#279;" /><glyph d="M162 645Q162 685 189 712.5Q216 740 257 740Q297 740 324.5 712.5Q352 685 352 645Q352 604 324.5 577Q297 550 257 550Q216 550 189 577Q162 604 162 645ZM424 187H213V132H452V0H55V500H452V368H213V313H424Z" glyph-name="edotaccent.small" horiz-adv-x="500" unicode="&#57515;" /><glyph d="M294 550 189 750H349L414 550ZM114 550 9 750H169L234 550ZM183 197Q180 148 206 130.5Q232 113 291 113Q348 113 389.5 122.5Q431 132 458 146V21Q414 3 364.5 -5.5Q315 -14 270 -14Q145 -14 85 50Q25 114 25 250Q25 386 83.5 450Q142 514 259 514Q339 514 384.5 486.5Q430 459 452 414.5Q474 370 477 313Q480 256 475 197ZM261 394Q220 394 201.5 368.5Q183 343 183 295H325Q328 316 327 334Q326 352 319 365.5Q312 379 298 386.5Q284 394 261 394Z" glyph-name="edoublegrave" horiz-adv-x="509" unicode="&#57383;" /><glyph d="M292 550 187 750H347L412 550ZM112 550 7 750H167L232 550ZM424 187H213V132H452V0H55V500H452V368H213V313H424Z" glyph-name="edoublegrave.small" horiz-adv-x="500" unicode="&#57514;" /><glyph d="M204 550 99 750H259L324 550ZM183 197Q180 148 206 130.5Q232 113 291 113Q348 113 389.5 122.5Q431 132 458 146V21Q414 3 364.5 -5.5Q315 -14 270 -14Q145 -14 85 50Q25 114 25 250Q25 386 83.5 450Q142 514 259 514Q339 514 384.5 486.5Q430 459 452 414.5Q474 370 477 313Q480 256 475 197ZM261 394Q220 394 201.5 368.5Q183 343 183 295H325Q328 316 327 334Q326 352 319 365.5Q312 379 298 386.5Q284 394 261 394Z" glyph-name="egrave" horiz-adv-x="509" unicode="&#232;" /><glyph d="M202 550 97 750H257L322 550ZM424 187H213V132H452V0H55V500H452V368H213V313H424Z" glyph-name="egrave.small" horiz-adv-x="500" unicode="&#57507;" /><glyph d="M164 -150Q164 -110 191 -82.5Q218 -55 259 -55Q299 -55 326.5 -82.5Q354 -110 354 -150Q354 -191 326.5 -218Q299 -245 259 -245Q218 -245 191 -218Q164 -191 164 -150ZM204 550 99 750H259L324 550ZM183 197Q180 148 206 130.5Q232 113 291 113Q348 113 389.5 122.5Q431 132 458 146V21Q414 3 364.5 -5.5Q315 -14 270 -14Q145 -14 85 50Q25 114 25 250Q25 386 83.5 450Q142 514 259 514Q339 514 384.5 486.5Q430 459 452 414.5Q474 370 477 313Q480 256 475 197ZM261 394Q220 394 201.5 368.5Q183 343 183 295H325Q328 316 327 334Q326 352 319 365.5Q312 379 298 386.5Q284 394 261 394Z" glyph-name="egravedotbelow" horiz-adv-x="509" unicode="&#57385;" /><glyph d="M162 -150Q162 -110 189 -82.5Q216 -55 257 -55Q297 -55 324.5 -82.5Q352 -110 352 -150Q352 -191 324.5 -218Q297 -245 257 -245Q216 -245 189 -218Q162 -191 162 -150ZM202 550 97 750H257L322 550ZM424 187H213V132H452V0H55V500H452V368H213V313H424Z" glyph-name="egravedotbelow.small" horiz-adv-x="500" unicode="&#57517;" /><glyph d="M300 451Q341 451 363 476Q385 501 385 541Q385 584 360 606Q335 628 300 628Q265 628 240 606Q215 584 215 541Q215 501 237 476Q259 451 300 451ZM300 123Q333 123 355 131.5Q377 140 390.5 154Q404 168 409.5 185Q415 202 415 220Q415 268 387.5 296.5Q360 325 300 325Q240 325 212.5 296.5Q185 268 185 220Q185 202 190.5 185Q196 168 209.5 154Q223 140 245 131.5Q267 123 300 123ZM300 -14Q176 -14 105.5 43.5Q35 101 35 218Q35 254 45 283.5Q55 313 70.5 335.5Q86 358 104 373.5Q122 389 139 396Q125 404 110.5 417.5Q96 431 84.5 450.5Q73 470 65.5 495Q58 520 58 551Q58 653 116 708.5Q174 764 300 764Q426 764 484 708.5Q542 653 542 551Q542 520 534.5 495Q527 470 515.5 450.5Q504 431 489.5 417.5Q475 404 461 396Q477 389 495.5 373.5Q514 358 529.5 335.5Q545 313 555 283.5Q565 254 565 218Q565 101 494.5 43.5Q424 -14 300 -14Z" glyph-name="eight" horiz-adv-x="600" unicode="8" /><glyph d="M300 451Q341 451 363 476Q385 501 385 541Q385 584 360 606Q335 628 300 628Q265 628 240 606Q215 584 215 541Q215 501 237 476Q259 451 300 451ZM300 123Q333 123 355 131.5Q377 140 390.5 154Q404 168 409.5 185Q415 202 415 220Q415 268 387.5 296.5Q360 325 300 325Q240 325 212.5 296.5Q185 268 185 220Q185 202 190.5 185Q196 168 209.5 154Q223 140 245 131.5Q267 123 300 123ZM300 -14Q176 -14 105.5 43.5Q35 101 35 218Q35 254 45 283.5Q55 313 70.5 335.5Q86 358 104 373.5Q122 389 139 396Q125 404 110.5 417.5Q96 431 84.5 450.5Q73 470 65.5 495Q58 520 58 551Q58 653 116 708.5Q174 764 300 764Q426 764 484 708.5Q542 653 542 551Q542 520 534.5 495Q527 470 515.5 450.5Q504 431 489.5 417.5Q475 404 461 396Q477 389 495.5 373.5Q514 358 529.5 335.5Q545 313 555 283.5Q565 254 565 218Q565 101 494.5 43.5Q424 -14 300 -14Z" glyph-name="eight.LP" horiz-adv-x="600" unicode="&#57776;" /><glyph d="M300 451Q341 451 363 476Q385 501 385 541Q385 584 360 606Q335 628 300 628Q265 628 240 606Q215 584 215 541Q215 501 237 476Q259 451 300 451ZM300 123Q333 123 355 131.5Q377 140 390.5 154Q404 168 409.5 185Q415 202 415 220Q415 268 387.5 296.5Q360 325 300 325Q240 325 212.5 296.5Q185 268 185 220Q185 202 190.5 185Q196 168 209.5 154Q223 140 245 131.5Q267 123 300 123ZM300 -14Q176 -14 105.5 43.5Q35 101 35 218Q35 254 45 283.5Q55 313 70.5 335.5Q86 358 104 373.5Q122 389 139 396Q125 404 110.5 417.5Q96 431 84.5 450.5Q73 470 65.5 495Q58 520 58 551Q58 653 116 708.5Q174 764 300 764Q426 764 484 708.5Q542 653 542 551Q542 520 534.5 495Q527 470 515.5 450.5Q504 431 489.5 417.5Q475 404 461 396Q477 389 495.5 373.5Q514 358 529.5 335.5Q545 313 555 283.5Q565 254 565 218Q565 101 494.5 43.5Q424 -14 300 -14Z" glyph-name="eight.LT" horiz-adv-x="600" unicode="&#57786;" /><glyph d="M300 451Q341 451 363 476Q385 501 385 541Q385 584 360 606Q335 628 300 628Q265 628 240 606Q215 584 215 541Q215 501 237 476Q259 451 300 451ZM300 123Q333 123 355 131.5Q377 140 390.5 154Q404 168 409.5 185Q415 202 415 220Q415 268 387.5 296.5Q360 325 300 325Q240 325 212.5 296.5Q185 268 185 220Q185 202 190.5 185Q196 168 209.5 154Q223 140 245 131.5Q267 123 300 123ZM300 -14Q176 -14 105.5 43.5Q35 101 35 218Q35 254 45 283.5Q55 313 70.5 335.5Q86 358 104 373.5Q122 389 139 396Q125 404 110.5 417.5Q96 431 84.5 450.5Q73 470 65.5 495Q58 520 58 551Q58 653 116 708.5Q174 764 300 764Q426 764 484 708.5Q542 653 542 551Q542 520 534.5 495Q527 470 515.5 450.5Q504 431 489.5 417.5Q475 404 461 396Q477 389 495.5 373.5Q514 358 529.5 335.5Q545 313 555 283.5Q565 254 565 218Q565 101 494.5 43.5Q424 -14 300 -14Z" glyph-name="eight.OP" horiz-adv-x="600" unicode="&#57816;" /><glyph d="M300 451Q341 451 363 476Q385 501 385 541Q385 584 360 606Q335 628 300 628Q265 628 240 606Q215 584 215 541Q215 501 237 476Q259 451 300 451ZM300 123Q333 123 355 131.5Q377 140 390.5 154Q404 168 409.5 185Q415 202 415 220Q415 268 387.5 296.5Q360 325 300 325Q240 325 212.5 296.5Q185 268 185 220Q185 202 190.5 185Q196 168 209.5 154Q223 140 245 131.5Q267 123 300 123ZM300 -14Q176 -14 105.5 43.5Q35 101 35 218Q35 254 45 283.5Q55 313 70.5 335.5Q86 358 104 373.5Q122 389 139 396Q125 404 110.5 417.5Q96 431 84.5 450.5Q73 470 65.5 495Q58 520 58 551Q58 653 116 708.5Q174 764 300 764Q426 764 484 708.5Q542 653 542 551Q542 520 534.5 495Q527 470 515.5 450.5Q504 431 489.5 417.5Q475 404 461 396Q477 389 495.5 373.5Q514 358 529.5 335.5Q545 313 555 283.5Q565 254 565 218Q565 101 494.5 43.5Q424 -14 300 -14Z" glyph-name="eight.OT" horiz-adv-x="600" unicode="&#57826;" /><glyph d="M247 -14Q187 -14 146.5 -3Q106 8 81.5 29Q57 50 46 80Q35 110 35 147Q35 184 50.5 219.5Q66 255 106 269Q85 277 68.5 303Q52 329 52 364Q52 398 62 425.5Q72 453 95 472.5Q118 492 155.5 503Q193 514 247 514Q301 514 338 503Q375 492 398 472.5Q421 453 431 425.5Q441 398 441 364Q441 329 424 303Q407 277 386 269Q427 255 442.5 219.5Q458 184 458 147Q458 110 447.5 80Q437 50 412 29Q387 8 347 -3Q307 -14 247 -14ZM247 200Q218 200 206 188.5Q194 177 194 159Q194 144 205 131.5Q216 119 247 119Q278 119 289 131.5Q300 144 300 159Q300 177 288 188.5Q276 200 247 200ZM247 312Q272 312 282.5 322Q293 332 293 345Q293 357 283 367.5Q273 378 247 378Q221 378 211 367.5Q201 357 201 345Q201 332 212 322Q223 312 247 312Z" glyph-name="eight.XP" horiz-adv-x="493" unicode="&#57836;" /><glyph d="M300 119Q329 119 347 121.5Q365 124 375.5 129.5Q386 135 389.5 142.5Q393 150 393 159Q393 169 389.5 177Q386 185 376 190Q366 195 347.5 197.5Q329 200 300 200Q271 200 252.5 197.5Q234 195 224 190Q214 185 210.5 177Q207 169 207 159Q207 150 210.5 142.5Q214 135 224.5 129.5Q235 124 253 121.5Q271 119 300 119ZM300 312Q348 312 364.5 320Q381 328 381 345Q381 362 365 370Q349 378 300 378Q251 378 235 370Q219 362 219 345Q219 328 235.5 320Q252 312 300 312ZM300 -14Q166 -14 107.5 27.5Q49 69 49 147Q49 199 69.5 227Q90 255 131 269Q110 277 90.5 300.5Q71 324 71 374Q71 449 129 481.5Q187 514 300 514Q413 514 471 481.5Q529 449 529 374Q529 324 509.5 300.5Q490 277 469 269Q510 255 530.5 227Q551 199 551 147Q551 69 492.5 27.5Q434 -14 300 -14Z" glyph-name="eight.XT" horiz-adv-x="600" unicode="&#57846;" /><glyph d="M230 -136Q253 -136 261 -130.5Q269 -125 269 -114Q269 -102 261 -96Q253 -90 230 -90Q207 -90 199 -96Q191 -102 191 -114Q191 -125 199 -130.5Q207 -136 230 -136ZM230 13Q250 13 258 17.5Q266 22 266 31Q266 40 258 45Q250 50 230 50Q194 50 194 31Q194 13 230 13ZM230 -264Q129 -264 82 -232.5Q35 -201 35 -132Q35 -100 51.5 -69Q68 -38 101 -26Q80 -22 65 -1Q50 20 50 53Q50 173 230 173Q409 173 409 53Q409 20 394 -1Q379 -22 358 -26Q392 -38 408.5 -69Q425 -100 425 -132Q425 -201 378 -232.5Q331 -264 230 -264Z" glyph-name="eight.inf" horiz-adv-x="460" unicode="&#57856;" /><glyph d="M259 636Q238 636 222.5 632.5Q207 629 197.5 619.5Q188 610 183.5 593Q179 576 179 550H61Q61 608 73.5 646.5Q86 685 111 708Q136 731 173 740.5Q210 750 259 750Q308 750 345 740.5Q382 731 407 708Q432 685 444.5 646.5Q457 608 457 550H339Q339 576 334.5 593Q330 610 320.5 619.5Q311 629 295.5 632.5Q280 636 259 636ZM183 197Q180 148 206 130.5Q232 113 291 113Q348 113 389.5 122.5Q431 132 458 146V21Q414 3 364.5 -5.5Q315 -14 270 -14Q145 -14 85 50Q25 114 25 250Q25 386 83.5 450Q142 514 259 514Q339 514 384.5 486.5Q430 459 452 414.5Q474 370 477 313Q480 256 475 197ZM261 394Q220 394 201.5 368.5Q183 343 183 295H325Q328 316 327 334Q326 352 319 365.5Q312 379 298 386.5Q284 394 261 394Z" glyph-name="einvertedbreve" horiz-adv-x="509" unicode="&#519;" /><glyph d="M257 636Q236 636 220.5 632.5Q205 629 195.5 619.5Q186 610 181.5 593Q177 576 177 550H59Q59 608 71.5 646.5Q84 685 109 708Q134 731 171 740.5Q208 750 257 750Q306 750 343 740.5Q380 731 405 708Q430 685 442.5 646.5Q455 608 455 550H337Q337 576 332.5 593Q328 610 318.5 619.5Q309 629 293.5 632.5Q278 636 257 636ZM424 187H213V132H452V0H55V500H452V368H213V313H424Z" glyph-name="einvertedbreve.small" horiz-adv-x="500" unicode="&#57513;" /><glyph d="M75 81Q75 121 102 148.5Q129 176 170 176Q210 176 237.5 148.5Q265 121 265 81Q265 40 237.5 13Q210 -14 170 -14Q129 -14 102 13Q75 40 75 81ZM735 81Q735 121 762 148.5Q789 176 830 176Q870 176 897.5 148.5Q925 121 925 81Q925 40 897.5 13Q870 -14 830 -14Q789 -14 762 13Q735 40 735 81ZM405 81Q405 121 432 148.5Q459 176 500 176Q540 176 567.5 148.5Q595 121 595 81Q595 40 567.5 13Q540 -14 500 -14Q459 -14 432 13Q405 40 405 81Z" glyph-name="ellipsis" horiz-adv-x="1000" unicode="&#8230;" /><glyph d="M415 585H103V705H415ZM183 197Q180 148 206 130.5Q232 113 291 113Q348 113 389.5 122.5Q431 132 458 146V21Q414 3 364.5 -5.5Q315 -14 270 -14Q145 -14 85 50Q25 114 25 250Q25 386 83.5 450Q142 514 259 514Q339 514 384.5 486.5Q430 459 452 414.5Q474 370 477 313Q480 256 475 197ZM261 394Q220 394 201.5 368.5Q183 343 183 295H325Q328 316 327 334Q326 352 319 365.5Q312 379 298 386.5Q284 394 261 394Z" glyph-name="emacron" horiz-adv-x="509" unicode="&#275;" /><glyph d="M413 585H101V705H413ZM424 187H213V132H452V0H55V500H452V368H213V313H424Z" glyph-name="emacron.small" horiz-adv-x="500" unicode="&#57511;" /><glyph d="M955 250H45V388H955Z" glyph-name="emdash" horiz-adv-x="1000" unicode="&#8212;" /><glyph d="M955 306H45V444H955Z" glyph-name="emdash.cap" horiz-adv-x="1000" unicode="&#57734;" /><glyph glyph-name="emspace" horiz-adv-x="1000" unicode="&#8195;" /><glyph d="M455 250H45V388H455Z" glyph-name="endash" horiz-adv-x="500" unicode="&#8211;" /><glyph d="M455 306H45V444H455Z" glyph-name="endash.cap" horiz-adv-x="500" unicode="&#57732;" /><glyph d="M248 -130Q280 -130 300 -123.5Q320 -117 331 -105.5Q342 -94 346 -78.5Q350 -63 350 -46V322Q350 350 338 367Q326 384 294 384Q265 384 240.5 375Q216 366 205 358V0H45V500H141L161 464Q203 490 248 502Q293 514 335 514Q386 514 419.5 501Q453 488 473.5 465.5Q494 443 502 412.5Q510 382 510 346V-62Q510 -116 487 -154.5Q464 -193 427 -217Q390 -241 343 -252.5Q296 -264 248 -264Z" glyph-name="eng" horiz-adv-x="550" unicode="&#331;" /><glyph d="M283 -130Q315 -130 335 -123.5Q355 -117 366 -105.5Q377 -94 381 -78.5Q385 -63 385 -46V49L206 253L210 0H55V500H172L394 247L390 500H545V-62Q545 -116 522 -154.5Q499 -193 462 -217Q425 -241 378 -252.5Q331 -264 283 -264Z" glyph-name="eng.small" horiz-adv-x="600" unicode="&#57648;" /><glyph glyph-name="enspace" horiz-adv-x="500" unicode="&#8194;" /><glyph d="M458 21Q426 7 386 -1Q365 -7 348 -19.5Q331 -32 319 -47Q307 -62 300 -78Q293 -94 293 -107Q293 -129 309.5 -141Q326 -153 352 -153Q377 -153 394.5 -148.5Q412 -144 420 -141V-231Q409 -236 387 -243Q365 -250 320 -250Q292 -250 265.5 -243Q239 -236 218.5 -221Q198 -206 185.5 -182.5Q173 -159 173 -127Q173 -89 190.5 -60.5Q208 -32 234 -12Q128 -3 76.5 60.5Q25 124 25 250Q25 386 83.5 450Q142 514 259 514Q339 514 384.5 486.5Q430 459 452 414.5Q474 370 477 313Q480 256 475 197H183Q180 148 206 130.5Q232 113 291 113Q348 113 389.5 122.5Q431 132 458 146ZM261 394Q220 394 201.5 368.5Q183 343 183 295H325Q328 316 327 334Q326 352 319 365.5Q312 379 298 386.5Q284 394 261 394Z" glyph-name="eogonek" horiz-adv-x="509" unicode="&#281;" /><glyph d="M424 187H213V132H452V0Q425 -6 404 -17.5Q383 -29 368.5 -43Q354 -57 346.5 -72.5Q339 -88 339 -102Q339 -128 355.5 -140.5Q372 -153 398 -153Q423 -153 440.5 -148.5Q458 -144 466 -141V-231Q455 -236 433 -243Q411 -250 366 -250Q338 -250 311.5 -243Q285 -236 264.5 -221Q244 -206 231.5 -182.5Q219 -159 219 -127Q219 -82 243.5 -51Q268 -20 303 0H55V500H452V368H213V313H424Z" glyph-name="eogonek.small" horiz-adv-x="500" unicode="&#57518;" /><glyph d="M50 368V520H550V368ZM50 162V314H550V162Z" glyph-name="equal" horiz-adv-x="600" unicode="=" /><glyph d="M75 442V594H825V442ZM75 156V308H825V156Z" glyph-name="equal.cap" horiz-adv-x="900" unicode="&#57875;" /><glyph d="M40 -27V125H380V-27ZM40 -215V-63H380V-215Z" glyph-name="equal.inf" horiz-adv-x="420" unicode="&#57860;" /><glyph d="M732 191Q715 147 687 109.5Q659 72 618.5 44.5Q578 17 525 1.5Q472 -14 406 -14Q308 -14 240 19Q172 52 130 107Q88 162 69 231.5Q50 301 50 375Q50 448 69 518Q88 588 130 643Q172 698 240 731Q308 764 406 764Q504 764 572 731Q640 698 682 643Q724 588 743 518Q762 448 762 375V312H283V155Q306 132 337.5 124Q369 116 406 116Q451 116 484.5 133Q518 150 531 191ZM406 634Q369 634 337.5 626Q306 618 283 595V438H529V595Q505 618 474 626Q443 634 406 634Z" glyph-name="estimated" horiz-adv-x="812" unicode="&#8494;" /><glyph d="M495 250Q495 191 484.5 142.5Q474 94 447 59.5Q420 25 374.5 5.5Q329 -14 260 -14Q191 -14 145.5 5.5Q100 25 73 59.5Q46 94 35.5 142.5Q25 191 25 250Q25 308 36 357Q47 406 72.5 440.5Q98 475 139 494.5Q180 514 240 514Q259 514 275.5 511.5Q292 509 299 505Q288 528 274 547.5Q260 567 248 581L111 511V590L201 636Q159 676 116 704.5Q73 733 36 750H255Q271 740 288.5 728Q306 716 324 699L424 750V671L375 646Q399 616 420.5 578Q442 540 458.5 491Q475 442 485 382.5Q495 323 495 250ZM260 386Q218 386 201.5 355.5Q185 325 185 250Q185 175 201.5 144.5Q218 114 260 114Q302 114 318.5 144.5Q335 175 335 250Q335 325 318.5 355.5Q302 386 260 386Z" glyph-name="eth" horiz-adv-x="576" unicode="&#240;" /><glyph d="M25 311H93V500H314Q380 500 426.5 482.5Q473 465 502.5 432.5Q532 400 546 353.5Q560 307 560 250Q560 193 546 146.5Q532 100 502.5 67.5Q473 35 426.5 17.5Q380 0 314 0H93V191H25ZM310 140Q363 140 382.5 171.5Q402 203 402 250Q402 273 397.5 293Q393 313 382.5 328Q372 343 354.5 351.5Q337 360 310 360H251V311H334V191H251V140Z" glyph-name="eth.small" horiz-adv-x="596" unicode="&#57649;" /><glyph d="M62 210 26 750H214L178 210ZM25 81Q25 121 52 148.5Q79 176 120 176Q160 176 187.5 148.5Q215 121 215 81Q215 40 187.5 13Q160 -14 120 -14Q79 -14 52 13Q25 40 25 81Z" glyph-name="exclam" horiz-adv-x="240" unicode="!" /><glyph d="M178 290 214 -250H26L62 290ZM25 419Q25 460 52 487Q79 514 120 514Q160 514 187.5 487Q215 460 215 419Q215 379 187.5 351.5Q160 324 120 324Q79 324 52 351.5Q25 379 25 419Z" glyph-name="exclamdown" horiz-adv-x="240" unicode="&#161;" /><glyph d="M178 540 214 0H26L62 540ZM215 669Q215 629 188 601.5Q161 574 120 574Q80 574 52.5 601.5Q25 629 25 669Q25 710 52.5 737Q80 764 120 764Q161 764 188 737Q215 710 215 669Z" glyph-name="exclamdown.cap" horiz-adv-x="240" unicode="&#57716;" /><glyph d="M327 -11Q327 56 288.5 80Q250 104 173 104H107V209L251 359L30 357V500H447V384L294 219Q337 211 372 193.5Q407 176 431.5 148.5Q456 121 469 81.5Q482 42 482 -11Q482 -79 461 -126.5Q440 -174 402.5 -205Q365 -236 311.5 -250Q258 -264 194 -264Q142 -264 96.5 -255.5Q51 -247 25 -236V-98Q35 -102 51 -107Q67 -112 87.5 -116Q108 -120 131.5 -123Q155 -126 179 -126Q256 -126 291.5 -102Q327 -78 327 -11Z" glyph-name="ezh" horiz-adv-x="507" unicode="&#658;" /><glyph d="M373 -11Q373 22 361 43Q349 64 325.5 75Q302 86 266.5 90Q231 94 184 94H122V199L276 350L35 348V500H492V394L334 223Q433 206 482.5 150.5Q532 95 532 -11Q532 -146 449.5 -205Q367 -264 209 -264Q183 -264 156.5 -261.5Q130 -259 106 -254.5Q82 -250 61.5 -245Q41 -240 28 -234V-89Q43 -95 64 -100.5Q85 -106 109 -110.5Q133 -115 159 -117.5Q185 -120 209 -120Q300 -120 336.5 -95Q373 -70 373 -11Z" glyph-name="ezh.small" horiz-adv-x="560" unicode="&#57651;" /><glyph d="M327 -11Q327 56 288.5 80Q250 104 173 104H107V209L251 359L30 357V500H447V384L294 219Q337 211 372 193.5Q407 176 431.5 148.5Q456 121 469 81.5Q482 42 482 -11Q482 -79 461 -126.5Q440 -174 402.5 -205Q365 -236 311.5 -250Q258 -264 194 -264Q142 -264 96.5 -255.5Q51 -247 25 -236V-98Q35 -102 51 -107Q67 -112 87.5 -116Q108 -120 131.5 -123Q155 -126 179 -126Q256 -126 291.5 -102Q327 -78 327 -11ZM446 750 313 550H163L30 750H153L238 655L323 750Z" glyph-name="ezhcaron" horiz-adv-x="507" unicode="&#495;" /><glyph d="M373 -11Q373 22 361 43Q349 64 325.5 75Q302 86 266.5 90Q231 94 184 94H122V199L276 350L35 348V500H492V394L334 223Q433 206 482.5 150.5Q532 95 532 -11Q532 -146 449.5 -205Q367 -264 209 -264Q183 -264 156.5 -261.5Q130 -259 106 -254.5Q82 -250 61.5 -245Q41 -240 28 -234V-89Q43 -95 64 -100.5Q85 -106 109 -110.5Q133 -115 159 -117.5Q185 -120 209 -120Q300 -120 336.5 -95Q373 -70 373 -11ZM470 750 337 550H187L54 750H177L262 655L347 750Z" glyph-name="ezhcaron.small" horiz-adv-x="560" unicode="&#57652;" /><glyph d="M395 613Q384 618 365.5 624.5Q347 631 317 631Q291 631 271 617.5Q251 604 251 569V500H380V367H251V0H91V367H10V473L91 495V588Q91 677 141.5 720.5Q192 764 301 764Q309 764 321 763Q333 762 346 760Q359 758 372 754.5Q385 751 395 747Z" glyph-name="f" horiz-adv-x="390" unicode="f" /><glyph d="M414 179H213V0H54V500H442V368H213V305H414Z" glyph-name="f.small" horiz-adv-x="472" unicode="&#57457;" /><glyph d="M36 506H-3V578L36 588V630Q36 677 59 701Q82 725 136 725Q154 725 167 723.5Q180 722 189 720Q199 718 206 716L203 630Q199 631 194 632Q189 633 183 634Q177 635 170 635Q159 635 154 630Q149 625 149 617V591H203V506H149V341H36Z" glyph-name="f.superior" horiz-adv-x="206" unicode="&#57662;" /><glyph d="M445 0V630Q439 631 433.5 631Q428 631 422 631Q387 631 356 626.5Q325 622 302 610.5Q279 599 265 580.5Q251 562 251 534V500H379V367H251V0H91V367H10V473L91 495V534Q91 604 120 649Q149 694 195 719.5Q241 745 297 754.5Q353 764 407 764Q464 764 513.5 758.5Q563 753 605 742V482Q628 496 658 505Q688 514 730 514Q827 514 875.5 451Q924 388 924 250Q924 112 875.5 49Q827 -14 730 -14Q670 -14 632 1.5Q594 17 568 40L541 0ZM605 132Q614 125 625 121Q635 117 648 114Q661 111 676 111Q704 111 721.5 120.5Q739 130 749 148Q759 166 762.5 192Q766 218 766 250Q766 282 762.5 307.5Q759 333 749 351Q739 369 721.5 379Q704 389 676 389Q661 389 648 385.5Q635 382 625 378Q614 374 605 368Z" glyph-name="f_b" horiz-adv-x="949" unicode="&#57682;" /><glyph d="M594 -8Q562 -8 534 0.5Q506 9 485 26Q464 43 452 70Q440 97 440 133V367H251V0H91V367H10V473L91 495V588Q91 677 141.5 720.5Q192 764 301 764Q309 764 321 763Q333 762 346 760Q359 758 372 754.5Q385 751 395 747V613Q384 618 365.5 624.5Q347 631 317 631Q291 631 271 617.5Q251 604 251 569V500H599V155Q599 141 607.5 133Q616 125 640 125V-8Z" glyph-name="f_dotlessi" horiz-adv-x="665" unicode="&#57692;" /><glyph d="M805 0V630Q799 631 793.5 631Q788 631 782 631Q747 631 716 626.5Q685 622 662 610.5Q639 599 625 580.5Q611 562 611 534V500H739V367H611V0H451V367H251V0H91V367H10V473L91 495V534Q91 604 120 649Q149 694 195 719.5Q241 745 297 754.5Q353 764 407 764Q457 764 504 758.5Q551 753 607 742Q645 754 686 759Q727 764 767 764Q824 764 873.5 758.5Q923 753 965 742V482Q988 496 1018 505Q1048 514 1090 514Q1187 514 1235.5 451Q1284 388 1284 250Q1284 112 1235.5 49Q1187 -14 1090 -14Q1030 -14 992 1.5Q954 17 928 40L901 0ZM965 132Q974 125 985 121Q995 117 1008 114Q1021 111 1036 111Q1064 111 1081.5 120.5Q1099 130 1109 148Q1119 166 1122.5 192Q1126 218 1126 250Q1126 282 1122.5 307.5Q1119 333 1109 351Q1099 369 1081.5 379Q1064 389 1036 389Q1021 389 1008 385.5Q995 382 985 378Q974 374 965 368ZM451 534Q451 589 471 631Q460 632 447.5 632.5Q435 633 422 633Q387 633 356 628.5Q325 624 302 612.5Q279 601 265 582.5Q251 564 251 536V500H451Z" glyph-name="f_f_b" horiz-adv-x="1309" unicode="&#57683;" /><glyph d="M91 534Q91 604 120 649Q149 694 195 719.5Q241 745 297 754.5Q353 764 407 764Q481 764 558 751Q579 758 605 761Q631 764 661 764Q669 764 681 763Q693 762 706 760Q719 758 732 754.5Q745 751 755 747V613Q744 618 725.5 624.5Q707 631 677 631Q651 631 631 617.5Q611 604 611 569V500H959V155Q959 141 967.5 133Q976 125 1000 125V-4Q993 -5 986 -6Q980 -7 971.5 -7.5Q963 -8 954 -8Q922 -8 894 0.5Q866 9 845 26Q824 43 812 70Q800 97 800 133V367H611V0H451V367H251V0H91V367H10V473L91 495ZM451 588Q451 612 454 632Q446 633 438 633Q430 633 422 633Q387 633 356 628.5Q325 624 302 612.5Q279 601 265 582.5Q251 564 251 536V500H451Z" glyph-name="f_f_dotlessi" horiz-adv-x="1025" unicode="&#57693;" /><glyph d="M91 534Q91 604 120 649Q149 694 195 719.5Q241 745 297 754.5Q353 764 407 764Q457 764 504 758.5Q551 753 607 742Q645 754 686 759Q727 764 767 764Q824 764 873.5 758.5Q923 753 965 742V482Q991 496 1022 505Q1053 514 1095 514Q1146 514 1179.5 501Q1213 488 1233.5 465.5Q1254 443 1262 412.5Q1270 382 1270 346V0H1110V327Q1110 355 1098 372Q1086 389 1054 389Q1025 389 1000.5 380Q976 371 965 363V0H805V630Q799 631 793.5 631Q788 631 782 631Q747 631 716 626.5Q685 622 662 610.5Q639 599 625 580.5Q611 562 611 534V500H739V367H611V0H451V367H251V0H91V367H10V473L91 495ZM451 534Q451 589 471 631Q460 632 447.5 632.5Q435 633 422 633Q387 633 356 628.5Q325 624 302 612.5Q279 601 265 582.5Q251 564 251 536V500H451Z" glyph-name="f_f_h" horiz-adv-x="1310" unicode="&#57685;" /><glyph d="M697 -130Q729 -130 749 -123.5Q769 -117 780.5 -105.5Q792 -94 796 -78.5Q800 -63 800 -46V367H611V0H451V367H251V0H91V367H10V473L91 495V534Q91 604 120 649Q149 694 195 719.5Q241 745 297 754.5Q353 764 407 764Q456 764 503 758.5Q550 753 605 742Q642 754 682.5 759Q723 764 762 764Q819 764 866.5 758Q914 752 959 741V608Q938 613 918 617Q898 621 876.5 624Q855 627 831 629Q807 631 777 631Q742 631 712 626.5Q682 622 659.5 610.5Q637 599 624 580.5Q611 562 611 534V500H959V-62Q959 -116 936 -154.5Q913 -193 876 -217Q839 -241 792 -252.5Q745 -264 697 -264ZM451 534Q451 563 456 587Q461 611 470 631Q459 632 447 632.5Q435 633 422 633Q387 633 356 628.5Q325 624 302 612.5Q279 601 265 582.5Q251 564 251 536V500H451Z" glyph-name="f_f_j" horiz-adv-x="1025" unicode="&#57687;" /><glyph d="M91 534Q91 604 120 649Q149 694 195 719.5Q241 745 297 754.5Q353 764 407 764Q457 764 504 758.5Q551 753 607 742Q645 754 686 759Q727 764 767 764Q824 764 873.5 758.5Q923 753 965 742V340L1093 500H1293L1099 296L1308 0H1113L997 189L965 155V0H810V630Q803 631 796.5 631Q790 631 782 631Q747 631 716 626.5Q685 622 662 610.5Q639 599 625 580.5Q611 562 611 534V500H739V367H611V0H451V367H251V0H91V367H10V473L91 495ZM451 534Q451 589 471 631Q460 632 447.5 632.5Q435 633 422 633Q387 633 356 628.5Q325 624 302 612.5Q279 601 265 582.5Q251 564 251 536V500H451Z" glyph-name="f_f_k" horiz-adv-x="1310" unicode="&#57689;" /><glyph d="M91 534Q91 604 120 649Q149 694 195 719.5Q241 745 297 754.5Q353 764 407 764Q457 764 504 758.5Q551 753 607 742Q645 754 686 759Q727 764 767 764Q824 764 874 758Q924 752 969 741V500H1093V367H969V176Q969 147 983 131Q997 115 1035 115Q1051 115 1064.5 117Q1078 119 1084 121V-4Q1067 -9 1043 -11.5Q1019 -14 1002 -14Q897 -14 853 30Q809 74 809 163V367H611V0H451V367H251V0H91V367H10V473L91 495ZM451 534Q451 589 471 631Q460 632 447.5 632.5Q435 633 422 633Q387 633 356 628.5Q325 624 302 612.5Q279 601 265 582.5Q251 564 251 536V500H451ZM611 500H809V630Q802 631 795.5 631Q789 631 782 631Q747 631 716 626.5Q685 622 662 610.5Q639 599 625 580.5Q611 562 611 534Z" glyph-name="f_f_t" horiz-adv-x="1113" unicode="&#57691;" /><glyph d="M91 534Q91 604 120 649Q149 694 195 719.5Q241 745 297 754.5Q353 764 407 764Q464 764 513.5 758.5Q563 753 605 742V482Q631 496 662 505Q693 514 735 514Q786 514 819.5 501Q853 488 873.5 465.5Q894 443 902 412.5Q910 382 910 346V0H750V327Q750 355 738 372Q726 389 694 389Q665 389 640.5 380Q616 371 605 363V0H445V630Q439 631 433.5 631Q428 631 422 631Q387 631 356 626.5Q325 622 302 610.5Q279 599 265 580.5Q251 562 251 534V500H379V367H251V0H91V367H10V473L91 495Z" glyph-name="f_h" horiz-adv-x="950" unicode="&#57684;" /><glyph d="M91 534Q91 604 119.5 649Q148 694 192.5 719.5Q237 745 292.5 754.5Q348 764 402 764Q459 764 506.5 758Q554 752 599 741V608Q578 613 558 617Q538 621 516.5 624Q495 627 471 629Q447 631 417 631Q382 631 352 626.5Q322 622 299.5 610.5Q277 599 264 580.5Q251 562 251 534V500H599V-62Q599 -116 576 -154.5Q553 -193 516 -217Q479 -241 432 -252.5Q385 -264 337 -264V-130Q369 -130 389 -123.5Q409 -117 420.5 -105.5Q432 -94 436 -78.5Q440 -63 440 -46V367H251V0H91V367H10V473L91 495Z" glyph-name="f_j" horiz-adv-x="665" unicode="&#57686;" /><glyph d="M91 534Q91 604 120 649Q149 694 195 719.5Q241 745 297 754.5Q353 764 407 764Q464 764 513 758.5Q562 753 600 743V340L728 500H928L734 296L943 0H748L632 189L600 155V0H445V630Q439 631 433.5 631Q428 631 422 631Q387 631 356 626.5Q325 622 302 610.5Q279 599 265 580.5Q251 562 251 534V500H379V367H251V0H91V367H10V473L91 495Z" glyph-name="f_k" horiz-adv-x="945" unicode="&#57688;" /><glyph d="M91 534Q91 604 120 649Q149 694 195 719.5Q241 745 297 754.5Q353 764 407 764Q464 764 514 758Q564 752 609 741V500H733V367H609V176Q609 147 623 131Q637 115 675 115Q691 115 704.5 117Q718 119 724 121V-4Q707 -9 683 -11.5Q659 -14 642 -14Q537 -14 493 30Q449 74 449 163V367H251V0H91V367H10V473L91 495ZM251 500H449V630Q442 631 435.5 631Q429 631 422 631Q387 631 356 626.5Q325 622 302 610.5Q279 599 265 580.5Q251 562 251 534Z" glyph-name="f_t" horiz-adv-x="753" unicode="&#57690;" /><glyph d="M1084 -4Q1067 -9 1043 -11.5Q1019 -14 1002 -14Q897 -14 853 30Q809 74 809 163V367H609V176Q609 147 623 131Q637 115 675 115Q691 115 704.5 117Q718 119 724 121V-4Q707 -9 683 -11.5Q659 -14 642 -14Q537 -14 493 30Q449 74 449 163V367H251V0H91V367H10V473L91 495V534Q91 604 120 649Q149 694 195 719.5Q241 745 297 754.5Q353 764 407 764Q464 764 514 758Q564 752 609 741V500H809V598L969 641V500H1093V367H969V176Q969 147 983 131Q997 115 1035 115Q1051 115 1064.5 117Q1078 119 1084 121ZM251 500H449V630Q442 631 435.5 631Q429 631 422 631Q387 631 356 626.5Q325 622 302 610.5Q279 599 265 580.5Q251 562 251 534Z" glyph-name="f_t_t" horiz-adv-x="1113" unicode="&#57694;" /><glyph d="M755 613Q744 618 725.5 624.5Q707 631 677 631Q651 631 631 617.5Q611 604 611 569V500H740V367H611V0H451V367H251V0H91V367H10V473L91 495V534Q91 604 120 649Q149 694 195 719.5Q241 745 297 754.5Q353 764 407 764Q451 764 490.5 760.5Q530 757 563 752Q603 764 661 764Q669 764 681 763Q693 762 706 760Q719 758 732 754.5Q745 751 755 747ZM251 500H451V588Q451 611 454 632L422 633Q387 633 356 628.5Q325 624 302 612.5Q279 601 265 582.5Q251 564 251 536Z" glyph-name="ff" horiz-adv-x="750" unicode="&#64256;" /><glyph d="M1000 -4Q993 -5 986 -6Q980 -7 971.5 -7.5Q963 -8 954 -8Q922 -8 894 0.5Q866 9 845 26Q824 43 812 70Q800 97 800 133V367H611V0H451V367H251V0H91V367H10V473L91 495V534Q91 604 120 649Q149 694 195 719.5Q241 745 297 754.5Q353 764 407 764Q456 764 503 758.5Q550 753 605 742Q642 754 682.5 759Q723 764 762 764Q819 764 866.5 758Q914 752 959 741V608Q938 613 918 617Q898 621 876.5 624Q855 627 831 629Q807 631 777 631Q742 631 712 626.5Q682 622 659.5 610.5Q637 599 624 580.5Q611 562 611 534V500H959V155Q959 141 967.5 133Q976 125 1000 125ZM451 534Q451 563 456 587Q461 611 470 631Q459 632 447 632.5Q435 633 422 633Q387 633 356 628.5Q325 624 302 612.5Q279 601 265 582.5Q251 564 251 536V500H451Z" glyph-name="ffi" horiz-adv-x="1025" unicode="&#64259;" /><glyph d="M1010 -4Q1003 -5 996 -6Q990 -7 981.5 -7.5Q973 -8 964 -8Q932 -8 904 0.5Q876 9 855 26Q834 43 822 70Q810 97 810 133V630Q803 631 796 631Q789 631 782 631Q747 631 716 626.5Q685 622 662 610.5Q639 599 625 580.5Q611 562 611 534V500H739V367H611V0H451V367H251V0H91V367H10V473L91 495V534Q91 604 120 649Q149 694 195 719.5Q241 745 297 754.5Q353 764 407 764Q457 764 504 758.5Q551 753 607 742Q645 754 686 759Q727 764 767 764Q824 764 874 758Q924 752 969 741V155Q969 141 977.5 133Q986 125 1010 125ZM451 534Q451 589 471 631Q460 632 447.5 632.5Q435 633 422 633Q387 633 356 628.5Q325 624 302 612.5Q279 601 265 582.5Q251 564 251 536V500H451Z" glyph-name="ffl" horiz-adv-x="1035" unicode="&#64260;" /><glyph d="M640 -4Q633 -5 626 -6Q620 -7 611.5 -7.5Q603 -8 594 -8Q562 -8 534 0.5Q506 9 485 26Q464 43 452 70Q440 97 440 133V367H251V0H91V367H10V473L91 495V534Q91 604 119.5 649Q148 694 192.5 719.5Q237 745 292.5 754.5Q348 764 402 764Q459 764 506.5 758Q554 752 599 741V608Q578 613 558 617Q538 621 516.5 624Q495 627 471 629Q447 631 417 631Q382 631 352 626.5Q322 622 299.5 610.5Q277 599 264 580.5Q251 562 251 534V500H599V155Q599 141 607.5 133Q616 125 640 125Z" glyph-name="fi" horiz-adv-x="665" unicode="&#64257;" /><glyph d="M555 250H45V388H555Z" glyph-name="figuredash" horiz-adv-x="600" unicode="&#8210;" /><glyph d="M555 306H45V444H555Z" glyph-name="figuredash.cap" horiz-adv-x="600" unicode="&#57735;" /><glyph glyph-name="figurespace" horiz-adv-x="600" unicode="&#8199;" /><glyph d="M80 750H830V0H80ZM249 586V164H661V586ZM272 302 345 375 272 448 382 558 455 485 528 558 638 448 565 375 638 302 528 192 455 265 382 192Z" glyph-name="filledbox" horiz-adv-x="910" unicode="&#9632;" /><glyph d="M80 500H580V0H80ZM249 336V164H411V336ZM274 311H386V189H274Z" glyph-name="filledsmallbox" horiz-adv-x="660" unicode="&#57870;" /><glyph d="M223 -139Q115 -139 45 -105V37Q60 31 80 25.5Q100 20 123 16Q146 12 170 9.5Q194 7 217 7Q246 7 270 11.5Q294 16 311 28Q328 40 337.5 60.5Q347 81 347 112Q347 144 338 163Q329 182 313.5 192Q298 202 276 205Q254 208 227 208H64V625H484V475H219V354H277Q319 354 360 345.5Q401 337 433.5 311.5Q466 286 486 238.5Q506 191 506 112Q506 31 482 -18Q458 -67 418.5 -94Q379 -121 328 -130Q277 -139 223 -139Z" glyph-name="five" horiz-adv-x="540" unicode="5" /><glyph d="M270 -14Q239 -14 207.5 -12Q176 -10 147 -5.5Q118 -1 93 5.5Q68 12 51 20V164Q80 152 135.5 142Q191 132 257 132Q288 132 312.5 136Q337 140 354.5 150.5Q372 161 381.5 180Q391 199 391 230Q391 256 383 272Q375 288 361 296.5Q347 305 329 308Q311 311 292 311H70V750H541V600H228V454H305Q356 454 401.5 447.5Q447 441 480.5 417.5Q514 394 533.5 349.5Q553 305 553 230Q553 147 527 99Q501 51 460 25.5Q419 0 369 -7Q319 -14 270 -14Z" glyph-name="five.LP" horiz-adv-x="600" unicode="&#57773;" /><glyph d="M270 -14Q239 -14 207.5 -12Q176 -10 147 -5.5Q118 -1 93 5.5Q68 12 51 20V164Q80 152 135.5 142Q191 132 257 132Q288 132 312.5 136Q337 140 354.5 150.5Q372 161 381.5 180Q391 199 391 230Q391 256 383 272Q375 288 361 296.5Q347 305 329 308Q311 311 292 311H70V750H541V600H228V454H305Q356 454 401.5 447.5Q447 441 480.5 417.5Q514 394 533.5 349.5Q553 305 553 230Q553 147 527 99Q501 51 460 25.5Q419 0 369 -7Q319 -14 270 -14Z" glyph-name="five.LT" horiz-adv-x="600" unicode="&#57783;" /><glyph d="M230 -264Q122 -264 51 -230V-95Q95 -113 137.5 -121Q180 -129 231 -129Q288 -129 326.5 -103Q365 -77 365 -17Q365 14 356.5 34Q348 54 332.5 65.5Q317 77 295.5 81.5Q274 86 248 86H70V500H491V362H225V220H280Q321 220 362.5 213.5Q404 207 437.5 183Q471 159 492 112.5Q513 66 513 -13Q513 -94 489 -143Q465 -192 425.5 -219Q386 -246 335 -255Q284 -264 230 -264Z" glyph-name="five.OP" horiz-adv-x="530" unicode="&#57813;" /><glyph d="M270 -264Q207 -264 146.5 -253Q86 -242 51 -225V-91Q80 -103 135.5 -115.5Q191 -128 257 -128Q326 -128 365.5 -108Q405 -88 405 -37Q405 -8 397.5 11Q390 30 376.5 41Q363 52 343 56.5Q323 61 298 61H70V500H541V362H225V199H305Q356 199 401.5 191.5Q447 184 480.5 160.5Q514 137 533.5 94.5Q553 52 553 -18Q553 -98 527 -146Q501 -194 460 -220.5Q419 -247 369 -255.5Q319 -264 270 -264Z" glyph-name="five.OT" horiz-adv-x="600" unicode="&#57823;" /><glyph d="M226 118Q263 118 283 125.5Q303 133 303 158Q303 181 291 188.5Q279 196 255 196H61V500H448V362H205V309H219Q225 309 231.5 309.5Q238 310 243 310Q296 310 337 304Q378 298 405.5 281Q433 264 447 233.5Q461 203 461 154Q461 106 445 73.5Q429 41 399 21.5Q369 2 326 -6Q283 -14 228 -14Q201 -14 173.5 -11.5Q146 -9 121 -5Q96 -1 76 4Q56 9 45 14V145Q48 143 66 138.5Q84 134 110 129.5Q136 125 166.5 121.5Q197 118 226 118Z" glyph-name="five.XP" horiz-adv-x="496" unicode="&#57833;" /><glyph d="M263 122Q289 122 312.5 123.5Q336 125 354 129Q372 133 383 141Q394 149 394 161Q394 184 380 190Q366 196 342 196H68V500H540V359H212V312Q231 313 252 314Q270 315 292 315.5Q314 316 335 316Q388 316 429 309.5Q470 303 497.5 285Q525 267 539 236Q553 205 553 156Q553 108 532.5 75Q512 42 474.5 22.5Q437 3 384 -5.5Q331 -14 265 -14Q236 -14 204.5 -11.5Q173 -9 144 -5Q115 -1 90.5 4Q66 9 52 14V149Q77 140 132.5 131Q188 122 263 122Z" glyph-name="five.XT" horiz-adv-x="600" unicode="&#57843;" /><glyph d="M45 -106Q80 -118 121 -124.5Q162 -131 210 -131Q248 -131 259.5 -125Q271 -119 271 -109Q271 -93 241 -93H59V159H415V24H199V12H222Q278 12 317.5 6Q357 0 381.5 -15Q406 -30 417.5 -56Q429 -82 429 -121Q429 -193 379 -228.5Q329 -264 215 -264Q190 -264 163.5 -261.5Q137 -259 113.5 -255Q90 -251 72 -246Q54 -241 45 -237V-106Z" glyph-name="five.inf" horiz-adv-x="464" unicode="&#57853;" /><glyph d="M650 -4Q643 -5 636 -6Q630 -7 621.5 -7.5Q613 -8 604 -8Q572 -8 544 0.5Q516 9 495 26Q474 43 462 70Q450 97 450 133V630Q443 631 436 631Q429 631 422 631Q387 631 356 626.5Q325 622 302 610.5Q279 599 265 580.5Q251 562 251 534V500H379V367H251V0H91V367H10V473L91 495V534Q91 604 120 649Q149 694 195 719.5Q241 745 297 754.5Q353 764 407 764Q464 764 514 758Q564 752 609 741V155Q609 141 617.5 133Q626 125 650 125Z" glyph-name="fl" horiz-adv-x="675" unicode="&#64258;" /><glyph d="M241 -125H83V252H21V372H83V433Q83 475 93.5 512.5Q104 550 131.5 578Q159 606 207 622.5Q255 639 331 639Q390 639 436 630Q482 621 512 607V467Q474 479 437 486.5Q400 494 349 494Q299 494 270 474Q241 454 241 412V372H469V252H241Z" glyph-name="florin" horiz-adv-x="540" unicode="&#402;" /><glyph d="M241 0H83V377H21V497H83V558Q83 600 93.5 637.5Q104 675 131.5 703Q159 731 207 747.5Q255 764 331 764Q390 764 436 755Q482 746 512 732V592Q474 604 437 611.5Q400 619 349 619Q299 619 270 599Q241 579 241 537V497H469V377H241Z" glyph-name="florin.LP" horiz-adv-x="540" unicode="&#57753;" /><glyph d="M466 365Q449 370 417 375.5Q385 381 342 381Q307 381 284.5 367.5Q262 354 262 319V310H441V190H262V-250H102V190H21V310H102V338Q102 427 162.5 470.5Q223 514 332 514Q374 514 410 507Q446 500 466 491Z" glyph-name="florin.OP" horiz-adv-x="494" unicode="&#57793;" /><glyph d="M343 203 345 379 221 200ZM498 203H600V52H498V-125H343V52H27V151L370 638H498Z" glyph-name="four" horiz-adv-x="628" unicode="4" /><glyph d="M521 764V297H600V146H521V0H366V146H27V253L395 764ZM366 297 369 503 219 294Z" glyph-name="four.LP" horiz-adv-x="630" unicode="&#57772;" /><glyph d="M488 764V327H573V176H488V0H333V176H27V273L375 764ZM333 327 336 488 218 324Z" glyph-name="four.LT" horiz-adv-x="600" unicode="&#57782;" /><glyph d="M27 39 385 514H511V70H633V-70H511V-250H353V-70H27ZM353 71 356 274 205 68Z" glyph-name="four.OP" horiz-adv-x="660" unicode="&#57812;" /><glyph d="M32 39 340 514H466V70H568V-70H466V-250H308V-70H32ZM308 71 311 239 202 68Z" glyph-name="four.OT" horiz-adv-x="600" unicode="&#57822;" /><glyph d="M25 189 267 514H421V234H490V93H421V0H277V93H25ZM277 234 279 329 212 233Z" glyph-name="four.XP" horiz-adv-x="530" unicode="&#57832;" /><glyph d="M27 194 313 514H473V234H573V93H473V0H329V93H27ZM329 234 332 349 221 230Z" glyph-name="four.XT" horiz-adv-x="600" unicode="&#57842;" /><glyph d="M25 -90 228 173H397V-59H460V-186H397V-250H257V-186H25ZM257 -59 262 24 198 -61Z" glyph-name="four.inf" horiz-adv-x="500" unicode="&#57852;" /><glyph glyph-name="fourperemspace" horiz-adv-x="250" unicode="&#8197;" /><glyph d="M-220 0 312 750H444L-88 0Z" glyph-name="fraction" horiz-adv-x="224" unicode="&#8260;" /><glyph d="M25 322Q25 417 79 465.5Q133 514 250 514Q285 514 312.5 511.5Q340 509 367 500H530V393L470 377Q475 349 475 322Q475 227 421 178.5Q367 130 250 130Q236 130 223.5 130Q211 130 199 132Q197 129 194.5 124.5Q192 120 192 113Q192 98 212 95L405 70Q444 65 470 52.5Q496 40 511.5 21.5Q527 3 533.5 -22Q540 -47 540 -77Q540 -128 513.5 -163.5Q487 -199 443.5 -221.5Q400 -244 344.5 -254Q289 -264 232 -264Q185 -264 142 -256.5Q99 -249 66.5 -232.5Q34 -216 14.5 -190Q-5 -164 -5 -128Q-5 -103 4 -82Q13 -61 28 -46Q43 -31 61.5 -21Q80 -11 99 -7Q76 5 64.5 26.5Q53 48 53 74Q53 95 67.5 119Q82 143 106 160Q25 207 25 322ZM181 -34Q165 -40 154 -54Q143 -68 143 -85Q143 -112 166 -128Q189 -144 249 -144Q306 -144 344 -127Q382 -110 382 -85Q382 -60 354 -56ZM177 322Q177 248 250 248Q323 248 323 322Q323 396 250 396Q177 396 177 322Z" glyph-name="g" horiz-adv-x="540" unicode="g" /><glyph d="M504 500V-28Q504 -74 493.5 -116.5Q483 -159 455.5 -192Q428 -225 379 -244.5Q330 -264 252 -264Q198 -264 147 -257Q96 -250 59 -236V-103Q113 -123 155.5 -129.5Q198 -136 238 -136Q289 -136 316.5 -116Q344 -96 344 -51V18Q321 4 291 -5Q261 -14 219 -14Q121 -14 73 49Q25 112 25 250Q25 388 73 451Q121 514 219 514Q279 514 317 498.5Q355 483 381 460L408 500ZM344 363Q334 369 323 373Q313 377 300.5 380.5Q288 384 273 384Q245 384 227.5 375Q210 366 200 349Q190 332 186.5 307Q183 282 183 250Q183 218 186.5 193Q190 168 200 151Q210 134 227.5 125Q245 116 273 116Q288 116 300.5 119Q313 122 323 126Q334 130 344 137Z" glyph-name="g.school" horiz-adv-x="549" unicode="&#57434;" /><glyph d="M300 125Q320 125 334 127Q348 129 349 130V189H291V305H503V22Q464 5 411.5 -4Q359 -13 310 -13Q170 -13 105 50.5Q40 114 40 250Q40 313 54 362Q68 411 100.5 444.5Q133 478 185 495.5Q237 513 313 513Q379 513 422 505Q465 497 493 485V346Q464 356 423.5 364Q383 372 334 372Q302 372 276.5 367Q251 362 234 348.5Q217 335 208 311Q199 287 199 250Q199 181 225.5 153Q252 125 300 125Z" glyph-name="g.small" horiz-adv-x="550" unicode="&#57458;" /><glyph d="M255 503Q255 449 226.5 427.5Q198 406 132 406H107Q105 404 105 401Q105 394 115 394L219 384Q260 380 273.5 357Q287 334 287 304Q287 253 240 230Q193 207 121 207Q47 207 20 225.5Q-7 244 -7 275Q-7 301 8 315Q23 329 44 334Q31 338 24 350.5Q17 363 17 376Q17 393 25 404Q33 415 45 422H46Q9 444 9 503Q9 556 38 578Q67 600 132 600Q174 600 201 591H284V519L255 511ZM108 318Q97 312 97 302Q97 294 103 288.5Q109 283 131 283Q153 283 166.5 287.5Q180 292 180 301Q180 305 178.5 307.5Q177 310 171 311ZM153 500Q153 514 148.5 521.5Q144 529 132 529Q112 529 112 500Q112 487 116.5 479Q121 471 132 471Q144 471 148.5 479Q153 487 153 500Z" glyph-name="g.superior" horiz-adv-x="278" unicode="&#57663;" /><glyph d="M25 322Q25 417 79 465.5Q133 514 250 514Q285 514 312.5 511.5Q340 509 367 500H530V393L470 377Q475 349 475 322Q475 227 421 178.5Q367 130 250 130Q236 130 223.5 130Q211 130 199 132Q197 129 194.5 124.5Q192 120 192 113Q192 98 212 95L405 70Q444 65 470 52.5Q496 40 511.5 21.5Q527 3 533.5 -22Q540 -47 540 -77Q540 -128 513.5 -163.5Q487 -199 443.5 -221.5Q400 -244 344.5 -254Q289 -264 232 -264Q185 -264 142 -256.5Q99 -249 66.5 -232.5Q34 -216 14.5 -190Q-5 -164 -5 -128Q-5 -103 4 -82Q13 -61 28 -46Q43 -31 61.5 -21Q80 -11 99 -7Q76 5 64.5 26.5Q53 48 53 74Q53 95 67.5 119Q82 143 106 160Q25 207 25 322ZM181 -34Q165 -40 154 -54Q143 -68 143 -85Q143 -112 166 -128Q189 -144 249 -144Q306 -144 344 -127Q382 -110 382 -85Q382 -60 354 -56ZM177 322Q177 248 250 248Q323 248 323 322Q323 396 250 396Q177 396 177 322ZM190 550 255 750H415L310 550Z" glyph-name="gacute" horiz-adv-x="550" unicode="&#501;" /><glyph d="M504 500V-28Q504 -74 493.5 -116.5Q483 -159 455.5 -192Q428 -225 379 -244.5Q330 -264 252 -264Q198 -264 147 -257Q96 -250 59 -236V-103Q113 -123 155.5 -129.5Q198 -136 238 -136Q289 -136 316.5 -116Q344 -96 344 -51V18Q321 4 291 -5Q261 -14 219 -14Q121 -14 73 49Q25 112 25 250Q25 388 73 451Q121 514 219 514Q279 514 317 498.5Q355 483 381 460L408 500ZM344 363Q334 369 323 373Q313 377 300.5 380.5Q288 384 273 384Q245 384 227.5 375Q210 366 200 349Q190 332 186.5 307Q183 282 183 250Q183 218 186.5 193Q190 168 200 151Q210 134 227.5 125Q245 116 273 116Q288 116 300.5 119Q313 122 323 126Q334 130 344 137ZM205 550 270 750H430L325 550Z" glyph-name="gacute.school" horiz-adv-x="549" unicode="&#57435;" /><glyph d="M236 550 301 750H461L356 550ZM300 125Q320 125 334 127Q348 129 349 130V189H291V305H503V22Q464 5 411.5 -4Q359 -13 310 -13Q170 -13 105 50.5Q40 114 40 250Q40 313 54 362Q68 411 100.5 444.5Q133 478 185 495.5Q237 513 313 513Q379 513 422 505Q465 497 493 485V346Q464 356 423.5 364Q383 372 334 372Q302 372 276.5 367Q251 362 234 348.5Q217 335 208 311Q199 287 199 250Q199 181 225.5 153Q252 125 300 125Z" glyph-name="gacute.small" horiz-adv-x="550" unicode="&#57519;" /><glyph d="M25 322Q25 417 79 465.5Q133 514 250 514Q285 514 312.5 511.5Q340 509 367 500H530V393L470 377Q475 349 475 322Q475 227 421 178.5Q367 130 250 130Q236 130 223.5 130Q211 130 199 132Q197 129 194.5 124.5Q192 120 192 113Q192 98 212 95L405 70Q444 65 470 52.5Q496 40 511.5 21.5Q527 3 533.5 -22Q540 -47 540 -77Q540 -128 513.5 -163.5Q487 -199 443.5 -221.5Q400 -244 344.5 -254Q289 -264 232 -264Q185 -264 142 -256.5Q99 -249 66.5 -232.5Q34 -216 14.5 -190Q-5 -164 -5 -128Q-5 -103 4 -82Q13 -61 28 -46Q43 -31 61.5 -21Q80 -11 99 -7Q76 5 64.5 26.5Q53 48 53 74Q53 95 67.5 119Q82 143 106 160Q25 207 25 322ZM181 -34Q165 -40 154 -54Q143 -68 143 -85Q143 -112 166 -128Q189 -144 249 -144Q306 -144 344 -127Q382 -110 382 -85Q382 -60 354 -56ZM177 322Q177 248 250 248Q323 248 323 322Q323 396 250 396Q177 396 177 322ZM255 664Q276 664 291.5 667.5Q307 671 316.5 680.5Q326 690 330.5 707Q335 724 335 750H453Q453 692 440.5 653.5Q428 615 403 592Q378 569 341 559.5Q304 550 255 550Q206 550 169 559.5Q132 569 107 592Q82 615 69.5 653.5Q57 692 57 750H175Q175 724 179.5 707Q184 690 193.5 680.5Q203 671 218.5 667.5Q234 664 255 664Z" glyph-name="gbreve" horiz-adv-x="550" unicode="&#287;" /><glyph d="M504 500V-28Q504 -74 493.5 -116.5Q483 -159 455.5 -192Q428 -225 379 -244.5Q330 -264 252 -264Q198 -264 147 -257Q96 -250 59 -236V-103Q113 -123 155.5 -129.5Q198 -136 238 -136Q289 -136 316.5 -116Q344 -96 344 -51V18Q321 4 291 -5Q261 -14 219 -14Q121 -14 73 49Q25 112 25 250Q25 388 73 451Q121 514 219 514Q279 514 317 498.5Q355 483 381 460L408 500ZM344 363Q334 369 323 373Q313 377 300.5 380.5Q288 384 273 384Q245 384 227.5 375Q210 366 200 349Q190 332 186.5 307Q183 282 183 250Q183 218 186.5 193Q190 168 200 151Q210 134 227.5 125Q245 116 273 116Q288 116 300.5 119Q313 122 323 126Q334 130 344 137ZM270 664Q291 664 306.5 667.5Q322 671 331.5 680.5Q341 690 345.5 707Q350 724 350 750H468Q468 692 455.5 653.5Q443 615 418 592Q393 569 356 559.5Q319 550 270 550Q221 550 184 559.5Q147 569 122 592Q97 615 84.5 653.5Q72 692 72 750H190Q190 724 194.5 707Q199 690 208.5 680.5Q218 671 233.5 667.5Q249 664 270 664Z" glyph-name="gbreve.school" horiz-adv-x="549" unicode="&#57439;" /><glyph d="M301 664Q322 664 337.5 667.5Q353 671 362.5 680.5Q372 690 376.5 707Q381 724 381 750H499Q499 692 486.5 653.5Q474 615 449 592Q424 569 387 559.5Q350 550 301 550Q252 550 215 559.5Q178 569 153 592Q128 615 115.5 653.5Q103 692 103 750H221Q221 724 225.5 707Q230 690 239.5 680.5Q249 671 264.5 667.5Q280 664 301 664ZM300 125Q320 125 334 127Q348 129 349 130V189H291V305H503V22Q464 5 411.5 -4Q359 -13 310 -13Q170 -13 105 50.5Q40 114 40 250Q40 313 54 362Q68 411 100.5 444.5Q133 478 185 495.5Q237 513 313 513Q379 513 422 505Q465 497 493 485V346Q464 356 423.5 364Q383 372 334 372Q302 372 276.5 367Q251 362 234 348.5Q217 335 208 311Q199 287 199 250Q199 181 225.5 153Q252 125 300 125Z" glyph-name="gbreve.small" horiz-adv-x="550" unicode="&#57523;" /></font>
</defs>
</svg>
